[
  {
    "pitch": 53,
    "pitchName": "F3",
    "startQl": 0.0,
    "durationQl": 1.9041,
    "velocity": 85,
    "startSec": 0.11,
    "endSec": 1.07,
    "durationSec": 0.96,
    "confidence": 0.925
  },
  {
    "pitch": 65,
    "pitchName": "F4",
    "startQl": 0.0,
    "durationQl": 0.9214,
    "velocity": 90,
    "startSec": 0.11,
    "endSec": 0.61,
    "durationSec": 0.5,
    "confidence": 0.9625
  },
  {
    "pitch": 65,
    "pitchName": "F4",
    "startQl": 0.9214,
    "durationQl": 0.9827,
    "velocity": 90,
    "startSec": 0.61,
    "endSec": 1.07,
    "durationSec": 0.46,
    "confidence": 0.9625
  },
  {
    "pitch": 48,
    "pitchName": "C3",
    "startQl": 1.9256,
    "durationQl": 1.9042,
    "velocity": 80,
    "startSec": 1.08,
    "endSec": 2.03,
    "durationSec": 0.95,
    "confidence": 0.8875
  },
  {
    "pitch": 60,
    "pitchName": "C4",
    "startQl": 1.9471,
    "durationQl": 0.964,
    "velocity": 80,
    "startSec": 1.09,
    "endSec": 1.58,
    "durationSec": 0.49,
    "confidence": 0.8875
  },
  {
    "pitch": 60,
    "pitchName": "C4",
    "startQl": 2.9111,
    "durationQl": 0.9187,
    "velocity": 80,
    "startSec": 1.58,
    "endSec": 2.03,
    "durationSec": 0.45,
    "confidence": 0.8875
  },
  {
    "pitch": 53,
    "pitchName": "F3",
    "startQl": 3.9528,
    "durationQl": 1.9621,
    "velocity": 85,
    "startSec": 2.09,
    "endSec": 3.07,
    "durationSec": 0.98,
    "confidence": 0.925
  },
  {
    "pitch": 62,
    "pitchName": "D4",
    "startQl": 3.9528,
    "durationQl": 0.9614,
    "velocity": 85,
    "startSec": 2.09,
    "endSec": 2.58,
    "durationSec": 0.49,
    "confidence": 0.925
  },
  {
    "pitch": 62,
    "pitchName": "D4",
    "startQl": 4.9337,
    "durationQl": 0.9812,
    "velocity": 85,
    "startSec": 2.59,
    "endSec": 3.07,
    "durationSec": 0.48,
    "confidence": 0.925
  },
  {
    "pitch": 48,
    "pitchName": "C3",
    "startQl": 5.9355,
    "durationQl": 1.8596,
    "velocity": 80,
    "startSec": 3.08,
    "endSec": 4.01,
    "durationSec": 0.93,
    "confidence": 0.8875
  },
  {
    "pitch": 60,
    "pitchName": "C4",
    "startQl": 5.956,
    "durationQl": 1.8391,
    "velocity": 80,
    "startSec": 3.09,
    "endSec": 4.01,
    "durationSec": 0.92,
    "confidence": 0.8875
  },
  {
    "pitch": 53,
    "pitchName": "F3",
    "startQl": 7.9386,
    "durationQl": 1.9212,
    "velocity": 85,
    "startSec": 4.08,
    "endSec": 5.06,
    "durationSec": 0.98,
    "confidence": 0.925
  },
  {
    "pitch": 65,
    "pitchName": "F4",
    "startQl": 7.9591,
    "durationQl": 0.9611,
    "velocity": 90,
    "startSec": 4.09,
    "endSec": 4.58,
    "durationSec": 0.49,
    "confidence": 0.9625
  },
  {
    "pitch": 65,
    "pitchName": "F4",
    "startQl": 8.9398,
    "durationQl": 0.92,
    "velocity": 90,
    "startSec": 4.59,
    "endSec": 5.06,
    "durationSec": 0.47,
    "confidence": 0.9625
  },
  {
    "pitch": 48,
    "pitchName": "C3",
    "startQl": 9.899,
    "durationQl": 1.8855,
    "velocity": 80,
    "startSec": 5.08,
    "endSec": 6.02,
    "durationSec": 0.94,
    "confidence": 0.8875
  },
  {
    "pitch": 60,
    "pitchName": "C4",
    "startQl": 9.9185,
    "durationQl": 1.001,
    "velocity": 80,
    "startSec": 5.09,
    "endSec": 5.58,
    "durationSec": 0.49,
    "confidence": 0.8875
  },
  {
    "pitch": 60,
    "pitchName": "C4",
    "startQl": 10.9195,
    "durationQl": 0.865,
    "velocity": 80,
    "startSec": 5.58,
    "endSec": 6.02,
    "durationSec": 0.44,
    "confidence": 0.8786
  },
  {
    "pitch": 53,
    "pitchName": "F3",
    "startQl": 11.9216,
    "durationQl": 1.9051,
    "velocity": 85,
    "startSec": 6.09,
    "endSec": 7.04,
    "durationSec": 0.95,
    "confidence": 0.925
  },
  {
    "pitch": 62,
    "pitchName": "D4",
    "startQl": 11.9216,
    "durationQl": 1.0011,
    "velocity": 85,
    "startSec": 6.09,
    "endSec": 6.58,
    "durationSec": 0.49,
    "confidence": 0.925
  },
  {
    "pitch": 62,
    "pitchName": "D4",
    "startQl": 12.9432,
    "durationQl": 0.8835,
    "velocity": 85,
    "startSec": 6.59,
    "endSec": 7.04,
    "durationSec": 0.45,
    "confidence": 0.925
  },
  {
    "pitch": 48,
    "pitchName": "C3",
    "startQl": 13.905,
    "durationQl": 1.8551,
    "velocity": 80,
    "startSec": 7.08,
    "endSec": 8.01,
    "durationSec": 0.93,
    "confidence": 0.8875
  },
  {
    "pitch": 60,
    "pitchName": "C4",
    "startQl": 13.9246,
    "durationQl": 1.8355,
    "velocity": 80,
    "startSec": 7.09,
    "endSec": 8.01,
    "durationSec": 0.92,
    "confidence": 0.8875
  },
  {
    "pitch": 48,
    "pitchName": "C3",
    "startQl": 15.9036,
    "durationQl": 0.9844,
    "velocity": 80,
    "startSec": 8.08,
    "endSec": 8.56,
    "durationSec": 0.48,
    "confidence": 0.8875
  },
  {
    "pitch": 60,
    "pitchName": "C4",
    "startQl": 15.9242,
    "durationQl": 0.9638,
    "velocity": 80,
    "startSec": 8.09,
    "endSec": 8.56,
    "durationSec": 0.47,
    "confidence": 0.8875
  },
  {
    "pitch": 48,
    "pitchName": "C3",
    "startQl": 16.929,
    "durationQl": 0.8842,
    "velocity": 80,
    "startSec": 8.58,
    "endSec": 9.03,
    "durationSec": 0.45,
    "confidence": 0.8875
  },
  {
    "pitch": 60,
    "pitchName": "C4",
    "startQl": 16.9495,
    "durationQl": 0.8637,
    "velocity": 80,
    "startSec": 8.59,
    "endSec": 9.03,
    "durationSec": 0.44,
    "confidence": 0.8786
  },
  {
    "pitch": 50,
    "pitchName": "D3",
    "startQl": 17.9306,
    "durationQl": 0.9606,
    "velocity": 85,
    "startSec": 9.09,
    "endSec": 9.56,
    "durationSec": 0.47,
    "confidence": 0.925
  },
  {
    "pitch": 62,
    "pitchName": "D4",
    "startQl": 17.9306,
    "durationQl": 0.9606,
    "velocity": 85,
    "startSec": 9.09,
    "endSec": 9.56,
    "durationSec": 0.47,
    "confidence": 0.925
  },
  {
    "pitch": 52,
    "pitchName": "E3",
    "startQl": 18.9322,
    "durationQl": 0.9231,
    "velocity": 85,
    "startSec": 9.58,
    "endSec": 10.05,
    "durationSec": 0.47,
    "confidence": 0.925
  },
  {
    "pitch": 64,
    "pitchName": "E4",
    "startQl": 18.9527,
    "durationQl": 0.9026,
    "velocity": 90,
    "startSec": 9.59,
    "endSec": 10.05,
    "durationSec": 0.46,
    "confidence": 0.9625
  },
  {
    "pitch": 53,
    "pitchName": "F3",
    "startQl": 19.9141,
    "durationQl": 1.8555,
    "velocity": 85,
    "startSec": 10.08,
    "endSec": 11.01,
    "durationSec": 0.93,
    "confidence": 0.925
  },
  {
    "pitch": 65,
    "pitchName": "F4",
    "startQl": 19.9336,
    "durationQl": 1.836,
    "velocity": 90,
    "startSec": 10.09,
    "endSec": 11.01,
    "durationSec": 0.92,
    "confidence": 0.9625
  },
  {
    "pitch": 48,
    "pitchName": "C3",
    "startQl": 21.9131,
    "durationQl": 1.8801,
    "velocity": 80,
    "startSec": 11.08,
    "endSec": 12.02,
    "durationSec": 0.94,
    "confidence": 0.8875
  },
  {
    "pitch": 65,
    "pitchName": "F4",
    "startQl": 21.9336,
    "durationQl": 1.8596,
    "velocity": 90,
    "startSec": 11.09,
    "endSec": 12.02,
    "durationSec": 0.93,
    "confidence": 0.9625
  },
  {
    "pitch": 48,
    "pitchName": "C3",
    "startQl": 23.9163,
    "durationQl": 0.963,
    "velocity": 80,
    "startSec": 12.08,
    "endSec": 12.57,
    "durationSec": 0.49,
    "confidence": 0.8875
  },
  {
    "pitch": 60,
    "pitchName": "C4",
    "startQl": 23.9368,
    "durationQl": 0.9425,
    "velocity": 80,
    "startSec": 12.09,
    "endSec": 12.57,
    "durationSec": 0.48,
    "confidence": 0.8875
  },
  {
    "pitch": 48,
    "pitchName": "C3",
    "startQl": 24.8989,
    "durationQl": 0.959,
    "velocity": 80,
    "startSec": 12.58,
    "endSec": 13.05,
    "durationSec": 0.47,
    "confidence": 0.8875
  },
  {
    "pitch": 60,
    "pitchName": "C4",
    "startQl": 24.9185,
    "durationQl": 0.9394,
    "velocity": 80,
    "startSec": 12.59,
    "endSec": 13.05,
    "durationSec": 0.46,
    "confidence": 0.8875
  },
  {
    "pitch": 50,
    "pitchName": "D3",
    "startQl": 25.94,
    "durationQl": 0.9227,
    "velocity": 85,
    "startSec": 13.09,
    "endSec": 13.56,
    "durationSec": 0.47,
    "confidence": 0.925
  },
  {
    "pitch": 62,
    "pitchName": "D4",
    "startQl": 25.94,
    "durationQl": 0.9227,
    "velocity": 85,
    "startSec": 13.09,
    "endSec": 13.56,
    "durationSec": 0.47,
    "confidence": 0.925
  },
  {
    "pitch": 52,
    "pitchName": "E3",
    "startQl": 26.9019,
    "durationQl": 0.9387,
    "velocity": 85,
    "startSec": 13.58,
    "endSec": 14.04,
    "durationSec": 0.46,
    "confidence": 0.925
  },
  {
    "pitch": 64,
    "pitchName": "E4",
    "startQl": 26.9215,
    "durationQl": 0.9191,
    "velocity": 90,
    "startSec": 13.59,
    "endSec": 14.04,
    "durationSec": 0.45,
    "confidence": 0.9625
  },
  {
    "pitch": 53,
    "pitchName": "F3",
    "startQl": 27.9226,
    "durationQl": 1.8391,
    "velocity": 85,
    "startSec": 14.08,
    "endSec": 15.0,
    "durationSec": 0.92,
    "confidence": 0.925
  },
  {
    "pitch": 65,
    "pitchName": "F4",
    "startQl": 27.9431,
    "durationQl": 1.8186,
    "velocity": 90,
    "startSec": 14.09,
    "endSec": 15.0,
    "durationSec": 0.91,
    "confidence": 0.9625
  },
  {
    "pitch": 57,
    "pitchName": "A3",
    "startQl": 29.9258,
    "durationQl": 1.8391,
    "velocity": 80,
    "startSec": 15.08,
    "endSec": 16.0,
    "durationSec": 0.92,
    "confidence": 0.8875
  },
  {
    "pitch": 60,
    "pitchName": "C4",
    "startQl": 29.9258,
    "durationQl": 1.8391,
    "velocity": 80,
    "startSec": 15.08,
    "endSec": 16.0,
    "durationSec": 0.92,
    "confidence": 0.8875
  },
  {
    "pitch": 65,
    "pitchName": "F4",
    "startQl": 29.9463,
    "durationQl": 1.8186,
    "velocity": 85,
    "startSec": 15.09,
    "endSec": 16.0,
    "durationSec": 0.91,
    "confidence": 0.925
  },
  {
    "pitch": 77,
    "pitchName": "F5",
    "startQl": 29.9463,
    "durationQl": 1.8186,
    "velocity": 80,
    "startSec": 15.09,
    "endSec": 16.0,
    "durationSec": 0.91,
    "confidence": 0.8875
  },
  {
    "pitch": 53,
    "pitchName": "F3",
    "startQl": 31.9289,
    "durationQl": 0.9038,
    "velocity": 85,
    "startSec": 16.08,
    "endSec": 16.54,
    "durationSec": 0.46,
    "confidence": 0.925
  },
  {
    "pitch": 65,
    "pitchName": "F4",
    "startQl": 31.9495,
    "durationQl": 0.8832,
    "velocity": 90,
    "startSec": 16.09,
    "endSec": 16.54,
    "durationSec": 0.45,
    "confidence": 0.9625
  },
  {
    "pitch": 57,
    "pitchName": "A3",
    "startQl": 32.911,
    "durationQl": 0.9801,
    "velocity": 80,
    "startSec": 16.58,
    "endSec": 17.06,
    "durationSec": 0.48,
    "confidence": 0.8875
  },
  {
    "pitch": 65,
    "pitchName": "F4",
    "startQl": 32.9305,
    "durationQl": 0.9606,
    "velocity": 90,
    "startSec": 16.59,
    "endSec": 17.06,
    "durationSec": 0.47,
    "confidence": 0.9625
  },
  {
    "pitch": 77,
    "pitchName": "F5",
    "startQl": 32.9305,
    "durationQl": 0.9606,
    "velocity": 75,
    "startSec": 16.59,
    "endSec": 17.06,
    "durationSec": 0.47,
    "confidence": 0.85
  },
  {
    "pitch": 53,
    "pitchName": "F3",
    "startQl": 33.9321,
    "durationQl": 0.9427,
    "velocity": 85,
    "startSec": 17.08,
    "endSec": 17.56,
    "durationSec": 0.48,
    "confidence": 0.925
  },
  {
    "pitch": 60,
    "pitchName": "C4",
    "startQl": 33.9321,
    "durationQl": 0.9427,
    "velocity": 80,
    "startSec": 17.08,
    "endSec": 17.56,
    "durationSec": 0.48,
    "confidence": 0.8875
  },
  {
    "pitch": 65,
    "pitchName": "F4",
    "startQl": 33.9526,
    "durationQl": 0.9222,
    "velocity": 70,
    "startSec": 17.09,
    "endSec": 17.56,
    "durationSec": 0.47,
    "confidence": 0.8125
  },
  {
    "pitch": 57,
    "pitchName": "A3",
    "startQl": 34.914,
    "durationQl": 0.92,
    "velocity": 80,
    "startSec": 17.58,
    "endSec": 18.05,
    "durationSec": 0.47,
    "confidence": 0.8875
  },
  {
    "pitch": 60,
    "pitchName": "C4",
    "startQl": 34.914,
    "durationQl": 0.92,
    "velocity": 80,
    "startSec": 17.58,
    "endSec": 18.05,
    "durationSec": 0.47,
    "confidence": 0.8875
  },
  {
    "pitch": 53,
    "pitchName": "F3",
    "startQl": 35.8928,
    "durationQl": 0.9792,
    "velocity": 85,
    "startSec": 18.08,
    "endSec": 18.56,
    "durationSec": 0.48,
    "confidence": 0.925
  },
  {
    "pitch": 62,
    "pitchName": "D4",
    "startQl": 35.9123,
    "durationQl": 0.9597,
    "velocity": 85,
    "startSec": 18.09,
    "endSec": 18.56,
    "durationSec": 0.47,
    "confidence": 0.925
  },
  {
    "pitch": 57,
    "pitchName": "A3",
    "startQl": 36.913,
    "durationQl": 1.0049,
    "velocity": 80,
    "startSec": 18.58,
    "endSec": 19.07,
    "durationSec": 0.49,
    "confidence": 0.8875
  },
  {
    "pitch": 62,
    "pitchName": "D4",
    "startQl": 36.9335,
    "durationQl": 0.9844,
    "velocity": 85,
    "startSec": 18.59,
    "endSec": 19.07,
    "durationSec": 0.48,
    "confidence": 0.925
  },
  {
    "pitch": 53,
    "pitchName": "F3",
    "startQl": 37.9384,
    "durationQl": 0.9229,
    "velocity": 85,
    "startSec": 19.08,
    "endSec": 19.55,
    "durationSec": 0.47,
    "confidence": 0.925
  },
  {
    "pitch": 60,
    "pitchName": "C4",
    "startQl": 37.9384,
    "durationQl": 1.9408,
    "velocity": 80,
    "startSec": 19.08,
    "endSec": 20.07,
    "durationSec": 0.99,
    "confidence": 0.8875
  },
  {
    "pitch": 65,
    "pitchName": "F4",
    "startQl": 37.9589,
    "durationQl": 0.9024,
    "velocity": 70,
    "startSec": 19.09,
    "endSec": 19.55,
    "durationSec": 0.46,
    "confidence": 0.8125
  },
  {
    "pitch": 57,
    "pitchName": "A3",
    "startQl": 38.92,
    "durationQl": 0.9592,
    "velocity": 80,
    "startSec": 19.58,
    "endSec": 20.07,
    "durationSec": 0.49,
    "confidence": 0.8875
  },
  {
    "pitch": 53,
    "pitchName": "F3",
    "startQl": 39.8988,
    "durationQl": 0.959,
    "velocity": 85,
    "startSec": 20.08,
    "endSec": 20.55,
    "durationSec": 0.47,
    "confidence": 0.925
  },
  {
    "pitch": 65,
    "pitchName": "F4",
    "startQl": 39.9184,
    "durationQl": 0.9394,
    "velocity": 90,
    "startSec": 20.09,
    "endSec": 20.55,
    "durationSec": 0.46,
    "confidence": 0.9625
  },
  {
    "pitch": 57,
    "pitchName": "A3",
    "startQl": 40.9194,
    "durationQl": 0.9628,
    "velocity": 80,
    "startSec": 20.58,
    "endSec": 21.07,
    "durationSec": 0.49,
    "confidence": 0.8875
  },
  {
    "pitch": 65,
    "pitchName": "F4",
    "startQl": 40.9399,
    "durationQl": 0.9423,
    "velocity": 90,
    "startSec": 20.59,
    "endSec": 21.07,
    "durationSec": 0.48,
    "confidence": 0.9625
  },
  {
    "pitch": 53,
    "pitchName": "F3",
    "startQl": 41.9018,
    "durationQl": 0.9797,
    "velocity": 85,
    "startSec": 21.08,
    "endSec": 21.56,
    "durationSec": 0.48,
    "confidence": 0.925
  },
  {
    "pitch": 60,
    "pitchName": "C4",
    "startQl": 41.9018,
    "durationQl": 0.9797,
    "velocity": 80,
    "startSec": 21.08,
    "endSec": 21.56,
    "durationSec": 0.48,
    "confidence": 0.8875
  },
  {
    "pitch": 65,
    "pitchName": "F4",
    "startQl": 41.9214,
    "durationQl": 0.9601,
    "velocity": 70,
    "startSec": 21.09,
    "endSec": 21.56,
    "durationSec": 0.47,
    "confidence": 0.8125
  },
  {
    "pitch": 57,
    "pitchName": "A3",
    "startQl": 42.9225,
    "durationQl": 0.9628,
    "velocity": 80,
    "startSec": 21.58,
    "endSec": 22.07,
    "durationSec": 0.49,
    "confidence": 0.8875
  },
  {
    "pitch": 60,
    "pitchName": "C4",
    "startQl": 42.9225,
    "durationQl": 0.9628,
    "velocity": 80,
    "startSec": 21.58,
    "endSec": 22.07,
    "durationSec": 0.49,
    "confidence": 0.8875
  },
  {
    "pitch": 53,
    "pitchName": "F3",
    "startQl": 43.9048,
    "durationQl": 0.9799,
    "velocity": 85,
    "startSec": 22.08,
    "endSec": 22.56,
    "durationSec": 0.48,
    "confidence": 0.925
  },
  {
    "pitch": 62,
    "pitchName": "D4",
    "startQl": 43.9244,
    "durationQl": 0.9603,
    "velocity": 85,
    "startSec": 22.09,
    "endSec": 22.56,
    "durationSec": 0.47,
    "confidence": 0.925
  },
  {
    "pitch": 57,
    "pitchName": "A3",
    "startQl": 44.9257,
    "durationQl": 0.9626,
    "velocity": 80,
    "startSec": 22.58,
    "endSec": 23.07,
    "durationSec": 0.49,
    "confidence": 0.8875
  },
  {
    "pitch": 62,
    "pitchName": "D4",
    "startQl": 44.9462,
    "durationQl": 0.9421,
    "velocity": 85,
    "startSec": 22.59,
    "endSec": 23.07,
    "durationSec": 0.48,
    "confidence": 0.925
  },
  {
    "pitch": 53,
    "pitchName": "F3",
    "startQl": 45.9078,
    "durationQl": 0.9595,
    "velocity": 85,
    "startSec": 23.08,
    "endSec": 23.55,
    "durationSec": 0.47,
    "confidence": 0.925
  },
  {
    "pitch": 60,
    "pitchName": "C4",
    "startQl": 45.9078,
    "durationQl": 1.9835,
    "velocity": 80,
    "startSec": 23.08,
    "endSec": 24.07,
    "durationSec": 0.99,
    "confidence": 0.8875
  },
  {
    "pitch": 65,
    "pitchName": "F4",
    "startQl": 45.9274,
    "durationQl": 0.9399,
    "velocity": 70,
    "startSec": 23.09,
    "endSec": 23.55,
    "durationSec": 0.46,
    "confidence": 0.8125
  },
  {
    "pitch": 57,
    "pitchName": "A3",
    "startQl": 46.9289,
    "durationQl": 0.9624,
    "velocity": 80,
    "startSec": 23.58,
    "endSec": 24.07,
    "durationSec": 0.49,
    "confidence": 0.8875
  },
  {
    "pitch": 48,
    "pitchName": "C3",
    "startQl": 47.9109,
    "durationQl": 1.0006,
    "velocity": 80,
    "startSec": 24.08,
    "endSec": 24.57,
    "durationSec": 0.49,
    "confidence": 0.8875
  },
  {
    "pitch": 60,
    "pitchName": "C4",
    "startQl": 47.9304,
    "durationQl": 0.9811,
    "velocity": 80,
    "startSec": 24.09,
    "endSec": 24.57,
    "durationSec": 0.48,
    "confidence": 0.8875
  },
  {
    "pitch": 48,
    "pitchName": "C3",
    "startQl": 48.932,
    "durationQl": 0.9623,
    "velocity": 80,
    "startSec": 24.58,
    "endSec": 25.07,
    "durationSec": 0.49,
    "confidence": 0.8875
  },
  {
    "pitch": 60,
    "pitchName": "C4",
    "startQl": 48.9525,
    "durationQl": 0.9418,
    "velocity": 80,
    "startSec": 24.59,
    "endSec": 25.07,
    "durationSec": 0.48,
    "confidence": 0.8875
  },
  {
    "pitch": 50,
    "pitchName": "D3",
    "startQl": 49.9139,
    "durationQl": 1.0008,
    "velocity": 85,
    "startSec": 25.08,
    "endSec": 25.57,
    "durationSec": 0.49,
    "confidence": 0.925
  },
  {
    "pitch": 62,
    "pitchName": "D4",
    "startQl": 49.9335,
    "durationQl": 0.9812,
    "velocity": 85,
    "startSec": 25.09,
    "endSec": 25.57,
    "durationSec": 0.48,
    "confidence": 0.925
  },
  {
    "pitch": 52,
    "pitchName": "E3",
    "startQl": 50.9352,
    "durationQl": 0.9621,
    "velocity": 85,
    "startSec": 25.58,
    "endSec": 26.07,
    "durationSec": 0.49,
    "confidence": 0.925
  },
  {
    "pitch": 64,
    "pitchName": "E4",
    "startQl": 50.9557,
    "durationQl": 0.9416,
    "velocity": 90,
    "startSec": 25.59,
    "endSec": 26.07,
    "durationSec": 0.48,
    "confidence": 0.9625
  },
  {
    "pitch": 53,
    "pitchName": "F3",
    "startQl": 51.9169,
    "durationQl": 0.9804,
    "velocity": 85,
    "startSec": 26.08,
    "endSec": 26.56,
    "durationSec": 0.48,
    "confidence": 0.925
  },
  {
    "pitch": 65,
    "pitchName": "F4",
    "startQl": 51.9365,
    "durationQl": 0.9608,
    "velocity": 90,
    "startSec": 26.09,
    "endSec": 26.56,
    "durationSec": 0.47,
    "confidence": 0.9625
  },
  {
    "pitch": 57,
    "pitchName": "A3",
    "startQl": 52.9383,
    "durationQl": 0.962,
    "velocity": 80,
    "startSec": 26.58,
    "endSec": 27.07,
    "durationSec": 0.49,
    "confidence": 0.8875
  },
  {
    "pitch": 53,
    "pitchName": "F3",
    "startQl": 53.9199,
    "durationQl": 0.9397,
    "velocity": 85,
    "startSec": 27.08,
    "endSec": 27.56,
    "durationSec": 0.48,
    "confidence": 0.925
  },
  {
    "pitch": 65,
    "pitchName": "F4",
    "startQl": 53.9395,
    "durationQl": 0.9201,
    "velocity": 90,
    "startSec": 27.09,
    "endSec": 27.56,
    "durationSec": 0.47,
    "confidence": 0.9625
  },
  {
    "pitch": 57,
    "pitchName": "A3",
    "startQl": 54.8987,
    "durationQl": 1.0001,
    "velocity": 80,
    "startSec": 27.58,
    "endSec": 28.07,
    "durationSec": 0.49,
    "confidence": 0.8875
  },
  {
    "pitch": 48,
    "pitchName": "C3",
    "startQl": 55.9193,
    "durationQl": 0.9628,
    "velocity": 80,
    "startSec": 28.08,
    "endSec": 28.57,
    "durationSec": 0.49,
    "confidence": 0.8875
  },
  {
    "pitch": 60,
    "pitchName": "C4",
    "startQl": 55.9398,
    "durationQl": 0.9423,
    "velocity": 80,
    "startSec": 28.09,
    "endSec": 28.57,
    "durationSec": 0.48,
    "confidence": 0.8875
  },
  {
    "pitch": 48,
    "pitchName": "C3",
    "startQl": 56.9017,
    "durationQl": 1.0002,
    "velocity": 80,
    "startSec": 28.58,
    "endSec": 29.07,
    "durationSec": 0.49,
    "confidence": 0.8875
  },
  {
    "pitch": 60,
    "pitchName": "C4",
    "startQl": 56.9213,
    "durationQl": 0.9806,
    "velocity": 80,
    "startSec": 28.59,
    "endSec": 29.07,
    "durationSec": 0.48,
    "confidence": 0.8875
  },
  {
    "pitch": 50,
    "pitchName": "D3",
    "startQl": 57.9224,
    "durationQl": 0.9628,
    "velocity": 85,
    "startSec": 29.08,
    "endSec": 29.57,
    "durationSec": 0.49,
    "confidence": 0.925
  },
  {
    "pitch": 62,
    "pitchName": "D4",
    "startQl": 57.9429,
    "durationQl": 0.9423,
    "velocity": 85,
    "startSec": 29.09,
    "endSec": 29.57,
    "durationSec": 0.48,
    "confidence": 0.925
  },
  {
    "pitch": 52,
    "pitchName": "E3",
    "startQl": 58.9047,
    "durationQl": 0.9594,
    "velocity": 85,
    "startSec": 29.58,
    "endSec": 30.05,
    "durationSec": 0.47,
    "confidence": 0.925
  },
  {
    "pitch": 64,
    "pitchName": "E4",
    "startQl": 58.9243,
    "durationQl": 0.9603,
    "velocity": 90,
    "startSec": 29.59,
    "endSec": 30.06,
    "durationSec": 0.47,
    "confidence": 0.9625
  },
  {
    "pitch": 53,
    "pitchName": "F3",
    "startQl": 59.9256,
    "durationQl": 0.943,
    "velocity": 85,
    "startSec": 30.08,
    "endSec": 30.56,
    "durationSec": 0.48,
    "confidence": 0.925
  },
  {
    "pitch": 65,
    "pitchName": "F4",
    "startQl": 59.9461,
    "durationQl": 0.9225,
    "velocity": 90,
    "startSec": 30.09,
    "endSec": 30.56,
    "durationSec": 0.47,
    "confidence": 0.9625
  },
  {
    "pitch": 57,
    "pitchName": "A3",
    "startQl": 60.9078,
    "durationQl": 1.0005,
    "velocity": 80,
    "startSec": 30.58,
    "endSec": 31.07,
    "durationSec": 0.49,
    "confidence": 0.8875
  },
  {
    "pitch": 53,
    "pitchName": "F3",
    "startQl": 61.9288,
    "durationQl": 0.9624,
    "velocity": 85,
    "startSec": 31.08,
    "endSec": 31.57,
    "durationSec": 0.49,
    "confidence": 0.925
  },
  {
    "pitch": 65,
    "pitchName": "F4",
    "startQl": 61.9493,
    "durationQl": 0.9419,
    "velocity": 90,
    "startSec": 31.09,
    "endSec": 31.57,
    "durationSec": 0.48,
    "confidence": 0.9625
  },
  {
    "pitch": 57,
    "pitchName": "A3",
    "startQl": 62.9108,
    "durationQl": 0.9601,
    "velocity": 80,
    "startSec": 31.58,
    "endSec": 32.03,
    "durationSec": 0.45,
    "confidence": 0.8875
  },
  {
    "pitch": 60,
    "pitchName": "C4",
    "startQl": 62.9108,
    "durationQl": 0.9601,
    "velocity": 80,
    "startSec": 31.58,
    "endSec": 32.03,
    "durationSec": 0.45,
    "confidence": 0.8875
  },
  {
    "pitch": 53,
    "pitchName": "F3",
    "startQl": 62.9304,
    "durationQl": 0.1437,
    "velocity": 85,
    "startSec": 31.59,
    "endSec": 31.66,
    "durationSec": 0.07,
    "confidence": 0.5872
  },
  {
    "pitch": 65,
    "pitchName": "F4",
    "startQl": 62.9304,
    "durationQl": 0.9405,
    "velocity": 70,
    "startSec": 31.59,
    "endSec": 32.03,
    "durationSec": 0.44,
    "confidence": 0.8036
  },
  {
    "pitch": 24,
    "pitchName": "C1",
    "startQl": 63.8709,
    "durationQl": 0.1076,
    "velocity": 55,
    "startSec": 32.03,
    "endSec": 32.08,
    "durationSec": 0.05,
    "confidence": 0.2619
  },
  {
    "pitch": 52,
    "pitchName": "E3",
    "startQl": 64.0,
    "durationQl": 0.0862,
    "velocity": 40,
    "startSec": 32.09,
    "endSec": 32.13,
    "durationSec": 0.04,
    "confidence": 0.2231
  },
  {
    "pitch": 48,
    "pitchName": "C3",
    "startQl": 64.0862,
    "durationQl": 0.1076,
    "velocity": 30,
    "startSec": 32.13,
    "endSec": 32.18,
    "durationSec": 0.05,
    "confidence": 0.1944
  },
  {
    "pitch": 48,
    "pitchName": "C3",
    "startQl": 64.1938,
    "durationQl": 0.1077,
    "velocity": 25,
    "startSec": 32.18,
    "endSec": 32.23,
    "durationSec": 0.05,
    "confidence": 0.1944
  },
  {
    "pitch": 48,
    "pitchName": "C3",
    "startQl": 64.3015,
    "durationQl": 0.1077,
    "velocity": 20,
    "startSec": 32.23,
    "endSec": 32.28,
    "durationSec": 0.05,
    "confidence": 0.1944
  },
  {
    "pitch": 31,
    "pitchName": "G1",
    "startQl": 64.323,
    "durationQl": 0.3446,
    "velocity": 50,
    "startSec": 32.24,
    "endSec": 32.4,
    "durationSec": 0.16,
    "confidence": 0.3222
  },
  {
    "pitch": 48,
    "pitchName": "C3",
    "startQl": 64.4092,
    "durationQl": 0.1076,
    "velocity": 20,
    "startSec": 32.28,
    "endSec": 32.33,
    "durationSec": 0.05,
    "confidence": 0.1944
  },
  {
    "pitch": 55,
    "pitchName": "G3",
    "startQl": 64.5384,
    "durationQl": 0.1076,
    "velocity": 55,
    "startSec": 32.34,
    "endSec": 32.39,
    "durationSec": 0.05,
    "confidence": 0.3444
  },
  {
    "pitch": 36,
    "pitchName": "C2",
    "startQl": 64.6676,
    "durationQl": 0.6171,
    "velocity": 45,
    "startSec": 32.4,
    "endSec": 32.68,
    "durationSec": 0.28,
    "confidence": 0.4289
  },
  {
    "pitch": 55,
    "pitchName": "G3",
    "startQl": 64.7537,
    "durationQl": 0.0861,
    "velocity": 50,
    "startSec": 32.44,
    "endSec": 32.48,
    "durationSec": 0.04,
    "confidence": 0.2981
  },
  {
    "pitch": 57,
    "pitchName": "A3",
    "startQl": 64.9475,
    "durationQl": 0.2919,
    "velocity": 60,
    "startSec": 32.53,
    "endSec": 32.66,
    "durationSec": 0.13,
    "confidence": 0.4531
  },
  {
    "pitch": 64,
    "pitchName": "E4",
    "startQl": 64.969,
    "durationQl": 0.1571,
    "velocity": 45,
    "startSec": 32.54,
    "endSec": 32.61,
    "durationSec": 0.07,
    "confidence": 0.2872
  },
  {
    "pitch": 58,
    "pitchName": "B-3",
    "startQl": 65.4207,
    "durationQl": 0.068,
    "velocity": 60,
    "startSec": 32.74,
    "endSec": 32.77,
    "durationSec": 0.03,
    "confidence": 0.3642
  },
  {
    "pitch": 73,
    "pitchName": "C#5",
    "startQl": 65.4434,
    "durationQl": 0.068,
    "velocity": 55,
    "startSec": 32.75,
    "endSec": 32.78,
    "durationSec": 0.03,
    "confidence": 0.3267
  },
  {
    "pitch": 36,
    "pitchName": "C2",
    "startQl": 65.4887,
    "durationQl": 0.6132,
    "velocity": 60,
    "startSec": 32.77,
    "endSec": 33.05,
    "durationSec": 0.28,
    "confidence": 0.5414
  },
  {
    "pitch": 57,
    "pitchName": "A3",
    "startQl": 65.6701,
    "durationQl": 0.1133,
    "velocity": 65,
    "startSec": 32.85,
    "endSec": 32.9,
    "durationSec": 0.05,
    "confidence": 0.4194
  },
  {
    "pitch": 58,
    "pitchName": "B-3",
    "startQl": 65.8741,
    "durationQl": 0.068,
    "velocity": 65,
    "startSec": 32.94,
    "endSec": 32.97,
    "durationSec": 0.03,
    "confidence": 0.4017
  },
  {
    "pitch": 73,
    "pitchName": "C#5",
    "startQl": 65.8741,
    "durationQl": 0.0906,
    "velocity": 60,
    "startSec": 32.94,
    "endSec": 32.98,
    "durationSec": 0.04,
    "confidence": 0.3731
  },
  {
    "pitch": 59,
    "pitchName": "B3",
    "startQl": 66.2517,
    "durationQl": 0.2247,
    "velocity": 65,
    "startSec": 33.13,
    "endSec": 33.25,
    "durationSec": 0.12,
    "confidence": 0.4817
  },
  {
    "pitch": 71,
    "pitchName": "B4",
    "startQl": 66.2517,
    "durationQl": 0.0749,
    "velocity": 60,
    "startSec": 33.13,
    "endSec": 33.17,
    "durationSec": 0.04,
    "confidence": 0.3731
  },
  {
    "pitch": 24,
    "pitchName": "C1",
    "startQl": 66.5888,
    "durationQl": 0.0936,
    "velocity": 60,
    "startSec": 33.31,
    "endSec": 33.36,
    "durationSec": 0.05,
    "confidence": 0.2994
  },
  {
    "pitch": 67,
    "pitchName": "G4",
    "startQl": 66.5888,
    "durationQl": 0.0562,
    "velocity": 50,
    "startSec": 33.31,
    "endSec": 33.34,
    "durationSec": 0.03,
    "confidence": 0.2892
  },
  {
    "pitch": 64,
    "pitchName": "E4",
    "startQl": 66.6824,
    "durationQl": 0.0749,
    "velocity": 30,
    "startSec": 33.36,
    "endSec": 33.4,
    "durationSec": 0.04,
    "confidence": 0.1856
  },
  {
    "pitch": 64,
    "pitchName": "E4",
    "startQl": 66.9258,
    "durationQl": 0.075,
    "velocity": 40,
    "startSec": 33.49,
    "endSec": 33.53,
    "durationSec": 0.04,
    "confidence": 0.2231
  },
  {
    "pitch": 64,
    "pitchName": "E4",
    "startQl": 67.0224,
    "durationQl": 0.1076,
    "velocity": 15,
    "startSec": 33.54,
    "endSec": 33.59,
    "durationSec": 0.05,
    "confidence": 0.1944
  },
  {
    "pitch": 64,
    "pitchName": "E4",
    "startQl": 67.1516,
    "durationQl": 0.1076,
    "velocity": 15,
    "startSec": 33.6,
    "endSec": 33.65,
    "durationSec": 0.05,
    "confidence": 0.1944
  },
  {
    "pitch": 64,
    "pitchName": "E4",
    "startQl": 67.2808,
    "durationQl": 0.1507,
    "velocity": 20,
    "startSec": 33.66,
    "endSec": 33.73,
    "durationSec": 0.07,
    "confidence": 0.2122
  },
  {
    "pitch": 29,
    "pitchName": "F1",
    "startQl": 67.3023,
    "durationQl": 0.0861,
    "velocity": 55,
    "startSec": 33.67,
    "endSec": 33.71,
    "durationSec": 0.04,
    "confidence": 0.2531
  },
  {
    "pitch": 60,
    "pitchName": "C4",
    "startQl": 67.3454,
    "durationQl": 0.323,
    "velocity": 45,
    "startSec": 33.69,
    "endSec": 33.84,
    "durationSec": 0.15,
    "confidence": 0.3583
  },
  {
    "pitch": 60,
    "pitchName": "C4",
    "startQl": 67.6899,
    "durationQl": 0.05,
    "velocity": 15,
    "startSec": 33.85,
    "endSec": 33.87,
    "durationSec": 0.02,
    "confidence": 0.1678
  },
  {
    "pitch": 40,
    "pitchName": "E2",
    "startQl": 67.733,
    "durationQl": 0.2799,
    "velocity": 55,
    "startSec": 33.87,
    "endSec": 34.0,
    "durationSec": 0.13,
    "confidence": 0.4156
  },
  {
    "pitch": 60,
    "pitchName": "C4",
    "startQl": 67.733,
    "durationQl": 0.0646,
    "velocity": 10,
    "startSec": 33.87,
    "endSec": 33.9,
    "durationSec": 0.03,
    "confidence": 0.1767
  },
  {
    "pitch": 59,
    "pitchName": "B3",
    "startQl": 67.7976,
    "durationQl": 0.1507,
    "velocity": 50,
    "startSec": 33.9,
    "endSec": 33.97,
    "durationSec": 0.07,
    "confidence": 0.3247
  },
  {
    "pitch": 60,
    "pitchName": "C4",
    "startQl": 68.0344,
    "durationQl": 0.1077,
    "velocity": 20,
    "startSec": 34.01,
    "endSec": 34.06,
    "durationSec": 0.05,
    "confidence": 0.1944
  },
  {
    "pitch": 60,
    "pitchName": "C4",
    "startQl": 68.1636,
    "durationQl": 0.2154,
    "velocity": 35,
    "startSec": 34.07,
    "endSec": 34.17,
    "durationSec": 0.1,
    "confidence": 0.2389
  },
  {
    "pitch": 60,
    "pitchName": "C4",
    "startQl": 68.4005,
    "durationQl": 0.0861,
    "velocity": 20,
    "startSec": 34.18,
    "endSec": 34.22,
    "durationSec": 0.04,
    "confidence": 0.1856
  },
  {
    "pitch": 67,
    "pitchName": "G4",
    "startQl": 68.5082,
    "durationQl": 0.3014,
    "velocity": 40,
    "startSec": 34.23,
    "endSec": 34.37,
    "durationSec": 0.14,
    "confidence": 0.3119
  },
  {
    "pitch": 62,
    "pitchName": "D4",
    "startQl": 68.5297,
    "durationQl": 0.2369,
    "velocity": 45,
    "startSec": 34.24,
    "endSec": 34.35,
    "durationSec": 0.11,
    "confidence": 0.3228
  },
  {
    "pitch": 36,
    "pitchName": "C2",
    "startQl": 68.8742,
    "durationQl": 0.0646,
    "velocity": 65,
    "startSec": 34.4,
    "endSec": 34.43,
    "durationSec": 0.03,
    "confidence": 0.3567
  },
  {
    "pitch": 46,
    "pitchName": "B-2",
    "startQl": 68.8958,
    "durationQl": 0.0646,
    "velocity": 70,
    "startSec": 34.41,
    "endSec": 34.44,
    "durationSec": 0.03,
    "confidence": 0.4392
  },
  {
    "pitch": 58,
    "pitchName": "B-3",
    "startQl": 68.8958,
    "durationQl": 0.0861,
    "velocity": 70,
    "startSec": 34.41,
    "endSec": 34.45,
    "durationSec": 0.04,
    "confidence": 0.4481
  },
  {
    "pitch": 64,
    "pitchName": "E4",
    "startQl": 68.9173,
    "durationQl": 0.2729,
    "velocity": 60,
    "startSec": 34.42,
    "endSec": 34.56,
    "durationSec": 0.14,
    "confidence": 0.4619
  },
  {
    "pitch": 74,
    "pitchName": "D5",
    "startQl": 68.9819,
    "durationQl": 0.0585,
    "velocity": 65,
    "startSec": 34.45,
    "endSec": 34.48,
    "durationSec": 0.03,
    "confidence": 0.4017
  },
  {
    "pitch": 62,
    "pitchName": "D4",
    "startQl": 69.2277,
    "durationQl": 0.0749,
    "velocity": 40,
    "startSec": 34.58,
    "endSec": 34.62,
    "durationSec": 0.04,
    "confidence": 0.2231
  },
  {
    "pitch": 62,
    "pitchName": "D4",
    "startQl": 69.3026,
    "durationQl": 0.1872,
    "velocity": 20,
    "startSec": 34.62,
    "endSec": 34.72,
    "durationSec": 0.1,
    "confidence": 0.2389
  },
  {
    "pitch": 62,
    "pitchName": "D4",
    "startQl": 69.4898,
    "durationQl": 0.1498,
    "velocity": 15,
    "startSec": 34.72,
    "endSec": 34.8,
    "durationSec": 0.08,
    "confidence": 0.2211
  },
  {
    "pitch": 64,
    "pitchName": "E4",
    "startQl": 69.6771,
    "durationQl": 0.2246,
    "velocity": 65,
    "startSec": 34.82,
    "endSec": 34.94,
    "durationSec": 0.12,
    "confidence": 0.4817
  },
  {
    "pitch": 36,
    "pitchName": "C2",
    "startQl": 69.9205,
    "durationQl": 0.0561,
    "velocity": 60,
    "startSec": 34.95,
    "endSec": 34.98,
    "durationSec": 0.03,
    "confidence": 0.3192
  },
  {
    "pitch": 67,
    "pitchName": "G4",
    "startQl": 70.0162,
    "durationQl": 0.2153,
    "velocity": 60,
    "startSec": 35.0,
    "endSec": 35.1,
    "durationSec": 0.1,
    "confidence": 0.4264
  },
  {
    "pitch": 58,
    "pitchName": "B-3",
    "startQl": 70.3392,
    "durationQl": 0.0861,
    "velocity": 25,
    "startSec": 35.15,
    "endSec": 35.19,
    "durationSec": 0.04,
    "confidence": 0.1856
  },
  {
    "pitch": 24,
    "pitchName": "C1",
    "startQl": 70.7053,
    "durationQl": 0.1076,
    "velocity": 60,
    "startSec": 35.32,
    "endSec": 35.37,
    "durationSec": 0.05,
    "confidence": 0.2994
  },
  {
    "pitch": 67,
    "pitchName": "G4",
    "startQl": 70.7914,
    "durationQl": 0.0646,
    "velocity": 70,
    "startSec": 35.36,
    "endSec": 35.39,
    "durationSec": 0.03,
    "confidence": 0.4392
  },
  {
    "pitch": 67,
    "pitchName": "G4",
    "startQl": 71.1575,
    "durationQl": 0.0646,
    "velocity": 35,
    "startSec": 35.53,
    "endSec": 35.56,
    "durationSec": 0.03,
    "confidence": 0.1767
  },
  {
    "pitch": 67,
    "pitchName": "G4",
    "startQl": 71.2221,
    "durationQl": 0.0861,
    "velocity": 20,
    "startSec": 35.56,
    "endSec": 35.6,
    "durationSec": 0.04,
    "confidence": 0.1856
  },
  {
    "pitch": 69,
    "pitchName": "A4",
    "startQl": 71.502,
    "durationQl": 0.3661,
    "velocity": 60,
    "startSec": 35.69,
    "endSec": 35.86,
    "durationSec": 0.17,
    "confidence": 0.4886
  },
  {
    "pitch": 33,
    "pitchName": "A1",
    "startQl": 71.8896,
    "durationQl": 0.0646,
    "velocity": 60,
    "startSec": 35.87,
    "endSec": 35.9,
    "durationSec": 0.03,
    "confidence": 0.2817
  },
  {
    "pitch": 45,
    "pitchName": "A2",
    "startQl": 71.8896,
    "durationQl": 0.0646,
    "velocity": 65,
    "startSec": 35.87,
    "endSec": 35.9,
    "durationSec": 0.03,
    "confidence": 0.4017
  },
  {
    "pitch": 64,
    "pitchName": "E4",
    "startQl": 71.9111,
    "durationQl": 0.0862,
    "velocity": 55,
    "startSec": 35.88,
    "endSec": 35.92,
    "durationSec": 0.04,
    "confidence": 0.3356
  },
  {
    "pitch": 64,
    "pitchName": "E4",
    "startQl": 71.9973,
    "durationQl": 0.0752,
    "velocity": 40,
    "startSec": 35.92,
    "endSec": 35.96,
    "durationSec": 0.04,
    "confidence": 0.2231
  },
  {
    "pitch": 64,
    "pitchName": "E4",
    "startQl": 72.0912,
    "durationQl": 0.1124,
    "velocity": 15,
    "startSec": 35.97,
    "endSec": 36.03,
    "durationSec": 0.06,
    "confidence": 0.2033
  },
  {
    "pitch": 64,
    "pitchName": "E4",
    "startQl": 72.2036,
    "durationQl": 0.0749,
    "velocity": 15,
    "startSec": 36.03,
    "endSec": 36.07,
    "durationSec": 0.04,
    "confidence": 0.1856
  },
  {
    "pitch": 67,
    "pitchName": "G4",
    "startQl": 72.2972,
    "durationQl": 0.1311,
    "velocity": 65,
    "startSec": 36.08,
    "endSec": 36.15,
    "durationSec": 0.07,
    "confidence": 0.4372
  },
  {
    "pitch": 69,
    "pitchName": "A4",
    "startQl": 72.5968,
    "durationQl": 0.2434,
    "velocity": 45,
    "startSec": 36.24,
    "endSec": 36.37,
    "durationSec": 0.13,
    "confidence": 0.3406
  },
  {
    "pitch": 33,
    "pitchName": "A1",
    "startQl": 72.9151,
    "durationQl": 0.0749,
    "velocity": 55,
    "startSec": 36.41,
    "endSec": 36.45,
    "durationSec": 0.04,
    "confidence": 0.2531
  },
  {
    "pitch": 45,
    "pitchName": "A2",
    "startQl": 72.9338,
    "durationQl": 0.0763,
    "velocity": 55,
    "startSec": 36.42,
    "endSec": 36.46,
    "durationSec": 0.04,
    "confidence": 0.3356
  },
  {
    "pitch": 72,
    "pitchName": "C5",
    "startQl": 72.9526,
    "durationQl": 0.1005,
    "velocity": 80,
    "startSec": 36.43,
    "endSec": 36.48,
    "durationSec": 0.05,
    "confidence": 0.5319
  },
  {
    "pitch": 72,
    "pitchName": "C5",
    "startQl": 73.2685,
    "durationQl": 0.0646,
    "velocity": 60,
    "startSec": 36.58,
    "endSec": 36.61,
    "durationSec": 0.03,
    "confidence": 0.3642
  },
  {
    "pitch": 72,
    "pitchName": "C5",
    "startQl": 73.3331,
    "durationQl": 0.3014,
    "velocity": 65,
    "startSec": 36.61,
    "endSec": 36.75,
    "durationSec": 0.14,
    "confidence": 0.4994
  },
  {
    "pitch": 72,
    "pitchName": "C5",
    "startQl": 73.6345,
    "durationQl": 0.0646,
    "velocity": 35,
    "startSec": 36.75,
    "endSec": 36.78,
    "durationSec": 0.03,
    "confidence": 0.1767
  },
  {
    "pitch": 69,
    "pitchName": "A4",
    "startQl": 73.7422,
    "durationQl": 0.3015,
    "velocity": 50,
    "startSec": 36.8,
    "endSec": 36.94,
    "durationSec": 0.14,
    "confidence": 0.3869
  },
  {
    "pitch": 40,
    "pitchName": "E2",
    "startQl": 73.7637,
    "durationQl": 0.7967,
    "velocity": 45,
    "startSec": 36.81,
    "endSec": 37.18,
    "durationSec": 0.37,
    "confidence": 0.5539
  },
  {
    "pitch": 52,
    "pitchName": "E3",
    "startQl": 73.7853,
    "durationQl": 0.0861,
    "velocity": 40,
    "startSec": 36.82,
    "endSec": 36.86,
    "durationSec": 0.04,
    "confidence": 0.2231
  },
  {
    "pitch": 52,
    "pitchName": "E3",
    "startQl": 73.8714,
    "durationQl": 0.1292,
    "velocity": 10,
    "startSec": 36.86,
    "endSec": 36.92,
    "durationSec": 0.06,
    "confidence": 0.2033
  },
  {
    "pitch": 52,
    "pitchName": "E3",
    "startQl": 74.0006,
    "durationQl": 0.5814,
    "velocity": 10,
    "startSec": 36.92,
    "endSec": 37.19,
    "durationSec": 0.27,
    "confidence": 0.39
  },
  {
    "pitch": 69,
    "pitchName": "A4",
    "startQl": 74.0652,
    "durationQl": 0.0861,
    "velocity": 15,
    "startSec": 36.95,
    "endSec": 36.99,
    "durationSec": 0.04,
    "confidence": 0.1856
  },
  {
    "pitch": 69,
    "pitchName": "A4",
    "startQl": 74.1513,
    "durationQl": 0.1292,
    "velocity": 10,
    "startSec": 36.99,
    "endSec": 37.05,
    "durationSec": 0.06,
    "confidence": 0.2033
  },
  {
    "pitch": 69,
    "pitchName": "A4",
    "startQl": 74.2805,
    "durationQl": 0.1938,
    "velocity": 10,
    "startSec": 37.05,
    "endSec": 37.14,
    "durationSec": 0.09,
    "confidence": 0.23
  },
  {
    "pitch": 67,
    "pitchName": "G4",
    "startQl": 74.5174,
    "durationQl": 0.323,
    "velocity": 40,
    "startSec": 37.16,
    "endSec": 37.31,
    "durationSec": 0.15,
    "confidence": 0.3208
  },
  {
    "pitch": 52,
    "pitchName": "E3",
    "startQl": 74.8619,
    "durationQl": 0.0646,
    "velocity": 50,
    "startSec": 37.32,
    "endSec": 37.35,
    "durationSec": 0.03,
    "confidence": 0.2892
  },
  {
    "pitch": 36,
    "pitchName": "C2",
    "startQl": 74.8834,
    "durationQl": 0.0646,
    "velocity": 55,
    "startSec": 37.33,
    "endSec": 37.36,
    "durationSec": 0.03,
    "confidence": 0.2817
  },
  {
    "pitch": 74,
    "pitchName": "D5",
    "startQl": 74.9696,
    "durationQl": 0.0601,
    "velocity": 70,
    "startSec": 37.37,
    "endSec": 37.4,
    "durationSec": 0.03,
    "confidence": 0.4392
  },
  {
    "pitch": 74,
    "pitchName": "D5",
    "startQl": 75.217,
    "durationQl": 0.0561,
    "velocity": 35,
    "startSec": 37.5,
    "endSec": 37.53,
    "durationSec": 0.03,
    "confidence": 0.1767
  },
  {
    "pitch": 74,
    "pitchName": "D5",
    "startQl": 75.2919,
    "durationQl": 0.0749,
    "velocity": 15,
    "startSec": 37.54,
    "endSec": 37.58,
    "durationSec": 0.04,
    "confidence": 0.1856
  },
  {
    "pitch": 74,
    "pitchName": "D5",
    "startQl": 75.3668,
    "durationQl": 0.0749,
    "velocity": 15,
    "startSec": 37.58,
    "endSec": 37.62,
    "durationSec": 0.04,
    "confidence": 0.1856
  },
  {
    "pitch": 74,
    "pitchName": "D5",
    "startQl": 75.6664,
    "durationQl": 0.0749,
    "velocity": 85,
    "startSec": 37.74,
    "endSec": 37.78,
    "durationSec": 0.04,
    "confidence": 0.5606
  },
  {
    "pitch": 74,
    "pitchName": "D5",
    "startQl": 75.9472,
    "durationQl": 0.0782,
    "velocity": 70,
    "startSec": 37.89,
    "endSec": 37.93,
    "durationSec": 0.04,
    "confidence": 0.4481
  },
  {
    "pitch": 35,
    "pitchName": "B1",
    "startQl": 75.9659,
    "durationQl": 0.1026,
    "velocity": 50,
    "startSec": 37.9,
    "endSec": 37.95,
    "durationSec": 0.05,
    "confidence": 0.2244
  },
  {
    "pitch": 74,
    "pitchName": "D5",
    "startQl": 76.2192,
    "durationQl": 0.0862,
    "velocity": 35,
    "startSec": 38.02,
    "endSec": 38.06,
    "durationSec": 0.04,
    "confidence": 0.1856
  },
  {
    "pitch": 72,
    "pitchName": "C5",
    "startQl": 76.37,
    "durationQl": 0.2368,
    "velocity": 65,
    "startSec": 38.09,
    "endSec": 38.2,
    "durationSec": 0.11,
    "confidence": 0.4728
  },
  {
    "pitch": 72,
    "pitchName": "C5",
    "startQl": 76.6284,
    "durationQl": 0.0646,
    "velocity": 35,
    "startSec": 38.21,
    "endSec": 38.24,
    "durationSec": 0.03,
    "confidence": 0.1767
  },
  {
    "pitch": 33,
    "pitchName": "A1",
    "startQl": 76.7145,
    "durationQl": 0.646,
    "velocity": 50,
    "startSec": 38.25,
    "endSec": 38.55,
    "durationSec": 0.3,
    "confidence": 0.4467
  },
  {
    "pitch": 74,
    "pitchName": "D5",
    "startQl": 76.7791,
    "durationQl": 0.0861,
    "velocity": 65,
    "startSec": 38.28,
    "endSec": 38.32,
    "durationSec": 0.04,
    "confidence": 0.4106
  },
  {
    "pitch": 74,
    "pitchName": "D5",
    "startQl": 76.8868,
    "durationQl": 0.1292,
    "velocity": 35,
    "startSec": 38.33,
    "endSec": 38.39,
    "durationSec": 0.06,
    "confidence": 0.2033
  },
  {
    "pitch": 74,
    "pitchName": "D5",
    "startQl": 77.059,
    "durationQl": 0.1077,
    "velocity": 35,
    "startSec": 38.41,
    "endSec": 38.46,
    "durationSec": 0.05,
    "confidence": 0.1944
  },
  {
    "pitch": 74,
    "pitchName": "D5",
    "startQl": 77.1882,
    "durationQl": 0.1292,
    "velocity": 30,
    "startSec": 38.47,
    "endSec": 38.53,
    "durationSec": 0.06,
    "confidence": 0.2033
  },
  {
    "pitch": 76,
    "pitchName": "E5",
    "startQl": 77.5112,
    "durationQl": 0.323,
    "velocity": 70,
    "startSec": 38.62,
    "endSec": 38.77,
    "durationSec": 0.15,
    "confidence": 0.5458
  },
  {
    "pitch": 76,
    "pitchName": "E5",
    "startQl": 77.8342,
    "durationQl": 0.8268,
    "velocity": 35,
    "startSec": 38.77,
    "endSec": 39.2,
    "durationSec": 0.43,
    "confidence": 0.5322
  },
  {
    "pitch": 33,
    "pitchName": "A1",
    "startQl": 77.8773,
    "durationQl": 0.0646,
    "velocity": 55,
    "startSec": 38.79,
    "endSec": 38.82,
    "durationSec": 0.03,
    "confidence": 0.2442
  },
  {
    "pitch": 45,
    "pitchName": "A2",
    "startQl": 77.8988,
    "durationQl": 0.0646,
    "velocity": 55,
    "startSec": 38.8,
    "endSec": 38.83,
    "durationSec": 0.03,
    "confidence": 0.3267
  },
  {
    "pitch": 64,
    "pitchName": "E4",
    "startQl": 77.9204,
    "durationQl": 0.0852,
    "velocity": 50,
    "startSec": 38.81,
    "endSec": 38.85,
    "durationSec": 0.04,
    "confidence": 0.2981
  },
  {
    "pitch": 64,
    "pitchName": "E4",
    "startQl": 78.0056,
    "durationQl": 0.0749,
    "velocity": 30,
    "startSec": 38.85,
    "endSec": 38.89,
    "durationSec": 0.04,
    "confidence": 0.1856
  },
  {
    "pitch": 64,
    "pitchName": "E4",
    "startQl": 78.0805,
    "durationQl": 0.1124,
    "velocity": 25,
    "startSec": 38.89,
    "endSec": 38.95,
    "durationSec": 0.06,
    "confidence": 0.2033
  },
  {
    "pitch": 64,
    "pitchName": "E4",
    "startQl": 78.1929,
    "durationQl": 0.0749,
    "velocity": 15,
    "startSec": 38.95,
    "endSec": 38.99,
    "durationSec": 0.04,
    "confidence": 0.1856
  },
  {
    "pitch": 64,
    "pitchName": "E4",
    "startQl": 78.2678,
    "durationQl": 0.1123,
    "velocity": 15,
    "startSec": 38.99,
    "endSec": 39.05,
    "durationSec": 0.06,
    "confidence": 0.2033
  },
  {
    "pitch": 64,
    "pitchName": "E4",
    "startQl": 78.3801,
    "durationQl": 0.1311,
    "velocity": 15,
    "startSec": 39.05,
    "endSec": 39.12,
    "durationSec": 0.07,
    "confidence": 0.2122
  },
  {
    "pitch": 64,
    "pitchName": "E4",
    "startQl": 78.5112,
    "durationQl": 0.1124,
    "velocity": 15,
    "startSec": 39.12,
    "endSec": 39.18,
    "durationSec": 0.06,
    "confidence": 0.2033
  },
  {
    "pitch": 79,
    "pitchName": "G5",
    "startQl": 78.6797,
    "durationQl": 0.2622,
    "velocity": 70,
    "startSec": 39.21,
    "endSec": 39.35,
    "durationSec": 0.14,
    "confidence": 0.5369
  },
  {
    "pitch": 36,
    "pitchName": "C2",
    "startQl": 78.9419,
    "durationQl": 0.0561,
    "velocity": 55,
    "startSec": 39.35,
    "endSec": 39.38,
    "durationSec": 0.03,
    "confidence": 0.2817
  },
  {
    "pitch": 64,
    "pitchName": "E4",
    "startQl": 78.9419,
    "durationQl": 0.0774,
    "velocity": 60,
    "startSec": 39.35,
    "endSec": 39.39,
    "durationSec": 0.04,
    "confidence": 0.3731
  },
  {
    "pitch": 76,
    "pitchName": "E5",
    "startQl": 79.0624,
    "durationQl": 0.4091,
    "velocity": 50,
    "startSec": 39.41,
    "endSec": 39.6,
    "durationSec": 0.19,
    "confidence": 0.4314
  },
  {
    "pitch": 64,
    "pitchName": "E4",
    "startQl": 79.0839,
    "durationQl": 0.1077,
    "velocity": 35,
    "startSec": 39.42,
    "endSec": 39.47,
    "durationSec": 0.05,
    "confidence": 0.1944
  },
  {
    "pitch": 64,
    "pitchName": "E4",
    "startQl": 79.1916,
    "durationQl": 0.1292,
    "velocity": 15,
    "startSec": 39.47,
    "endSec": 39.53,
    "durationSec": 0.06,
    "confidence": 0.2033
  },
  {
    "pitch": 64,
    "pitchName": "E4",
    "startQl": 79.3208,
    "durationQl": 0.1076,
    "velocity": 15,
    "startSec": 39.53,
    "endSec": 39.58,
    "durationSec": 0.05,
    "confidence": 0.1944
  },
  {
    "pitch": 76,
    "pitchName": "E5",
    "startQl": 79.493,
    "durationQl": 0.1077,
    "velocity": 30,
    "startSec": 39.61,
    "endSec": 39.66,
    "durationSec": 0.05,
    "confidence": 0.1944
  },
  {
    "pitch": 40,
    "pitchName": "E2",
    "startQl": 79.6868,
    "durationQl": 0.0861,
    "velocity": 55,
    "startSec": 39.7,
    "endSec": 39.74,
    "durationSec": 0.04,
    "confidence": 0.3356
  },
  {
    "pitch": 52,
    "pitchName": "E3",
    "startQl": 79.6868,
    "durationQl": 0.0646,
    "velocity": 60,
    "startSec": 39.7,
    "endSec": 39.73,
    "durationSec": 0.03,
    "confidence": 0.3642
  },
  {
    "pitch": 79,
    "pitchName": "G5",
    "startQl": 79.8375,
    "durationQl": 0.2369,
    "velocity": 70,
    "startSec": 39.77,
    "endSec": 39.88,
    "durationSec": 0.11,
    "confidence": 0.5103
  },
  {
    "pitch": 52,
    "pitchName": "E3",
    "startQl": 80.1175,
    "durationQl": 0.1076,
    "velocity": 35,
    "startSec": 39.9,
    "endSec": 39.95,
    "durationSec": 0.05,
    "confidence": 0.1944
  },
  {
    "pitch": 62,
    "pitchName": "D4",
    "startQl": 80.139,
    "durationQl": 0.7537,
    "velocity": 30,
    "startSec": 39.91,
    "endSec": 40.26,
    "durationSec": 0.35,
    "confidence": 0.4611
  },
  {
    "pitch": 52,
    "pitchName": "E3",
    "startQl": 80.2251,
    "durationQl": 0.1077,
    "velocity": 10,
    "startSec": 39.95,
    "endSec": 40.0,
    "durationSec": 0.05,
    "confidence": 0.1944
  },
  {
    "pitch": 52,
    "pitchName": "E3",
    "startQl": 80.3328,
    "durationQl": 0.1077,
    "velocity": 10,
    "startSec": 40.0,
    "endSec": 40.05,
    "durationSec": 0.05,
    "confidence": 0.1944
  },
  {
    "pitch": 67,
    "pitchName": "G4",
    "startQl": 80.5051,
    "durationQl": 0.323,
    "velocity": 40,
    "startSec": 40.08,
    "endSec": 40.23,
    "durationSec": 0.15,
    "confidence": 0.3208
  },
  {
    "pitch": 76,
    "pitchName": "E5",
    "startQl": 80.5697,
    "durationQl": 0.2153,
    "velocity": 70,
    "startSec": 40.11,
    "endSec": 40.21,
    "durationSec": 0.1,
    "confidence": 0.5014
  },
  {
    "pitch": 36,
    "pitchName": "C2",
    "startQl": 80.8711,
    "durationQl": 0.0646,
    "velocity": 60,
    "startSec": 40.25,
    "endSec": 40.28,
    "durationSec": 0.03,
    "confidence": 0.3192
  },
  {
    "pitch": 52,
    "pitchName": "E3",
    "startQl": 80.8927,
    "durationQl": 0.0646,
    "velocity": 55,
    "startSec": 40.26,
    "endSec": 40.29,
    "durationSec": 0.03,
    "confidence": 0.3267
  },
  {
    "pitch": 74,
    "pitchName": "D5",
    "startQl": 80.9788,
    "durationQl": 0.0589,
    "velocity": 70,
    "startSec": 40.3,
    "endSec": 40.33,
    "durationSec": 0.03,
    "confidence": 0.4392
  },
  {
    "pitch": 40,
    "pitchName": "E2",
    "startQl": 81.2437,
    "durationQl": 0.0749,
    "velocity": 55,
    "startSec": 40.44,
    "endSec": 40.48,
    "durationSec": 0.04,
    "confidence": 0.3356
  },
  {
    "pitch": 71,
    "pitchName": "B4",
    "startQl": 81.2812,
    "durationQl": 0.0749,
    "velocity": 60,
    "startSec": 40.46,
    "endSec": 40.5,
    "durationSec": 0.04,
    "confidence": 0.3731
  },
  {
    "pitch": 71,
    "pitchName": "B4",
    "startQl": 81.5808,
    "durationQl": 0.0936,
    "velocity": 20,
    "startSec": 40.62,
    "endSec": 40.67,
    "durationSec": 0.05,
    "confidence": 0.1944
  },
  {
    "pitch": 71,
    "pitchName": "B4",
    "startQl": 81.6744,
    "durationQl": 0.0936,
    "velocity": 10,
    "startSec": 40.67,
    "endSec": 40.72,
    "durationSec": 0.05,
    "confidence": 0.1944
  },
  {
    "pitch": 35,
    "pitchName": "B1",
    "startQl": 81.9178,
    "durationQl": 0.0749,
    "velocity": 50,
    "startSec": 40.8,
    "endSec": 40.84,
    "durationSec": 0.04,
    "confidence": 0.2156
  },
  {
    "pitch": 76,
    "pitchName": "E5",
    "startQl": 81.9552,
    "durationQl": 0.3379,
    "velocity": 75,
    "startSec": 40.82,
    "endSec": 40.98,
    "durationSec": 0.16,
    "confidence": 0.5922
  },
  {
    "pitch": 76,
    "pitchName": "E5",
    "startQl": 82.2931,
    "durationQl": 0.0646,
    "velocity": 35,
    "startSec": 40.98,
    "endSec": 41.01,
    "durationSec": 0.03,
    "confidence": 0.1767
  },
  {
    "pitch": 33,
    "pitchName": "A1",
    "startQl": 82.7022,
    "durationQl": 0.0861,
    "velocity": 55,
    "startSec": 41.17,
    "endSec": 41.21,
    "durationSec": 0.04,
    "confidence": 0.2531
  },
  {
    "pitch": 69,
    "pitchName": "A4",
    "startQl": 82.7237,
    "durationQl": 0.0862,
    "velocity": 60,
    "startSec": 41.18,
    "endSec": 41.22,
    "durationSec": 0.04,
    "confidence": 0.3731
  },
  {
    "pitch": 70,
    "pitchName": "B-4",
    "startQl": 82.8745,
    "durationQl": 0.2368,
    "velocity": 55,
    "startSec": 41.25,
    "endSec": 41.36,
    "durationSec": 0.11,
    "confidence": 0.3978
  },
  {
    "pitch": 58,
    "pitchName": "B-3",
    "startQl": 83.1329,
    "durationQl": 0.0646,
    "velocity": 45,
    "startSec": 41.37,
    "endSec": 41.4,
    "durationSec": 0.03,
    "confidence": 0.2517
  },
  {
    "pitch": 69,
    "pitchName": "A4",
    "startQl": 83.1544,
    "durationQl": 0.1077,
    "velocity": 40,
    "startSec": 41.38,
    "endSec": 41.43,
    "durationSec": 0.05,
    "confidence": 0.2319
  },
  {
    "pitch": 58,
    "pitchName": "B-3",
    "startQl": 83.4343,
    "durationQl": 0.0862,
    "velocity": 30,
    "startSec": 41.51,
    "endSec": 41.55,
    "durationSec": 0.04,
    "confidence": 0.1856
  },
  {
    "pitch": 67,
    "pitchName": "G4",
    "startQl": 83.6066,
    "durationQl": 0.2369,
    "velocity": 60,
    "startSec": 41.59,
    "endSec": 41.7,
    "durationSec": 0.11,
    "confidence": 0.4353
  },
  {
    "pitch": 33,
    "pitchName": "A1",
    "startQl": 83.8865,
    "durationQl": 0.0646,
    "velocity": 60,
    "startSec": 41.72,
    "endSec": 41.75,
    "durationSec": 0.03,
    "confidence": 0.2817
  },
  {
    "pitch": 52,
    "pitchName": "E3",
    "startQl": 83.8865,
    "durationQl": 0.0646,
    "velocity": 60,
    "startSec": 41.72,
    "endSec": 41.75,
    "durationSec": 0.03,
    "confidence": 0.3642
  },
  {
    "pitch": 45,
    "pitchName": "A2",
    "startQl": 83.9081,
    "durationQl": 0.0646,
    "velocity": 55,
    "startSec": 41.73,
    "endSec": 41.76,
    "durationSec": 0.03,
    "confidence": 0.3267
  },
  {
    "pitch": 64,
    "pitchName": "E4",
    "startQl": 83.9727,
    "durationQl": 0.0597,
    "velocity": 55,
    "startSec": 41.76,
    "endSec": 41.79,
    "durationSec": 0.03,
    "confidence": 0.3267
  },
  {
    "pitch": 34,
    "pitchName": "B-1",
    "startQl": 84.2384,
    "durationQl": 0.0749,
    "velocity": 65,
    "startSec": 41.9,
    "endSec": 41.94,
    "durationSec": 0.04,
    "confidence": 0.3281
  },
  {
    "pitch": 46,
    "pitchName": "B-2",
    "startQl": 84.2384,
    "durationQl": 0.0561,
    "velocity": 70,
    "startSec": 41.9,
    "endSec": 41.93,
    "durationSec": 0.03,
    "confidence": 0.4392
  },
  {
    "pitch": 58,
    "pitchName": "B-3",
    "startQl": 84.2384,
    "durationQl": 0.0749,
    "velocity": 60,
    "startSec": 41.9,
    "endSec": 41.94,
    "durationSec": 0.04,
    "confidence": 0.3731
  },
  {
    "pitch": 69,
    "pitchName": "A4",
    "startQl": 84.3507,
    "durationQl": 0.0749,
    "velocity": 40,
    "startSec": 41.96,
    "endSec": 42.0,
    "durationSec": 0.04,
    "confidence": 0.2231
  },
  {
    "pitch": 59,
    "pitchName": "B3",
    "startQl": 84.6316,
    "durationQl": 0.0936,
    "velocity": 20,
    "startSec": 42.11,
    "endSec": 42.16,
    "durationSec": 0.05,
    "confidence": 0.1944
  },
  {
    "pitch": 59,
    "pitchName": "B3",
    "startQl": 84.7252,
    "durationQl": 0.1124,
    "velocity": 15,
    "startSec": 42.16,
    "endSec": 42.22,
    "durationSec": 0.06,
    "confidence": 0.2033
  },
  {
    "pitch": 59,
    "pitchName": "B3",
    "startQl": 84.8376,
    "durationQl": 0.0936,
    "velocity": 15,
    "startSec": 42.22,
    "endSec": 42.27,
    "durationSec": 0.05,
    "confidence": 0.1944
  },
  {
    "pitch": 33,
    "pitchName": "A1",
    "startQl": 84.9312,
    "durationQl": 0.0561,
    "velocity": 60,
    "startSec": 42.27,
    "endSec": 42.3,
    "durationSec": 0.03,
    "confidence": 0.2817
  },
  {
    "pitch": 45,
    "pitchName": "A2",
    "startQl": 84.9499,
    "durationQl": 0.0571,
    "velocity": 60,
    "startSec": 42.28,
    "endSec": 42.31,
    "durationSec": 0.03,
    "confidence": 0.3642
  },
  {
    "pitch": 64,
    "pitchName": "E4",
    "startQl": 84.9499,
    "durationQl": 0.0786,
    "velocity": 55,
    "startSec": 42.28,
    "endSec": 42.32,
    "durationSec": 0.04,
    "confidence": 0.3356
  },
  {
    "pitch": 69,
    "pitchName": "A4",
    "startQl": 85.3515,
    "durationQl": 0.2584,
    "velocity": 80,
    "startSec": 42.47,
    "endSec": 42.59,
    "durationSec": 0.12,
    "confidence": 0.5942
  },
  {
    "pitch": 69,
    "pitchName": "A4",
    "startQl": 85.6314,
    "durationQl": 0.0646,
    "velocity": 40,
    "startSec": 42.6,
    "endSec": 42.63,
    "durationSec": 0.03,
    "confidence": 0.2142
  },
  {
    "pitch": 40,
    "pitchName": "E2",
    "startQl": 85.696,
    "durationQl": 0.1292,
    "velocity": 50,
    "startSec": 42.63,
    "endSec": 42.69,
    "durationSec": 0.06,
    "confidence": 0.3158
  },
  {
    "pitch": 52,
    "pitchName": "E3",
    "startQl": 85.7176,
    "durationQl": 0.0861,
    "velocity": 45,
    "startSec": 42.64,
    "endSec": 42.68,
    "durationSec": 0.04,
    "confidence": 0.2606
  },
  {
    "pitch": 67,
    "pitchName": "G4",
    "startQl": 85.7391,
    "durationQl": 0.3661,
    "velocity": 55,
    "startSec": 42.65,
    "endSec": 42.82,
    "durationSec": 0.17,
    "confidence": 0.4511
  },
  {
    "pitch": 67,
    "pitchName": "G4",
    "startQl": 86.1267,
    "durationQl": 0.0861,
    "velocity": 35,
    "startSec": 42.83,
    "endSec": 42.87,
    "durationSec": 0.04,
    "confidence": 0.1856
  },
  {
    "pitch": 67,
    "pitchName": "G4",
    "startQl": 86.2128,
    "durationQl": 0.2369,
    "velocity": 55,
    "startSec": 42.87,
    "endSec": 42.98,
    "durationSec": 0.11,
    "confidence": 0.3978
  },
  {
    "pitch": 67,
    "pitchName": "G4",
    "startQl": 86.4712,
    "durationQl": 0.0862,
    "velocity": 35,
    "startSec": 42.99,
    "endSec": 43.03,
    "durationSec": 0.04,
    "confidence": 0.1856
  },
  {
    "pitch": 66,
    "pitchName": "F#4",
    "startQl": 86.5789,
    "durationQl": 0.2584,
    "velocity": 60,
    "startSec": 43.04,
    "endSec": 43.16,
    "durationSec": 0.12,
    "confidence": 0.4442
  },
  {
    "pitch": 36,
    "pitchName": "C2",
    "startQl": 86.8588,
    "durationQl": 0.0862,
    "velocity": 55,
    "startSec": 43.17,
    "endSec": 43.21,
    "durationSec": 0.04,
    "confidence": 0.2906
  },
  {
    "pitch": 45,
    "pitchName": "A2",
    "startQl": 86.8804,
    "durationQl": 0.0861,
    "velocity": 55,
    "startSec": 43.18,
    "endSec": 43.22,
    "durationSec": 0.04,
    "confidence": 0.3356
  },
  {
    "pitch": 52,
    "pitchName": "E3",
    "startQl": 86.8804,
    "durationQl": 0.0646,
    "velocity": 55,
    "startSec": 43.18,
    "endSec": 43.21,
    "durationSec": 0.03,
    "confidence": 0.3267
  },
  {
    "pitch": 74,
    "pitchName": "D5",
    "startQl": 86.988,
    "durationQl": 0.0578,
    "velocity": 70,
    "startSec": 43.23,
    "endSec": 43.26,
    "durationSec": 0.03,
    "confidence": 0.4392
  },
  {
    "pitch": 40,
    "pitchName": "E2",
    "startQl": 87.2517,
    "durationQl": 0.0749,
    "velocity": 50,
    "startSec": 43.37,
    "endSec": 43.41,
    "durationSec": 0.04,
    "confidence": 0.2981
  },
  {
    "pitch": 64,
    "pitchName": "E4",
    "startQl": 87.3079,
    "durationQl": 0.0749,
    "velocity": 70,
    "startSec": 43.4,
    "endSec": 43.44,
    "durationSec": 0.04,
    "confidence": 0.4481
  },
  {
    "pitch": 64,
    "pitchName": "E4",
    "startQl": 87.6262,
    "durationQl": 0.0562,
    "velocity": 40,
    "startSec": 43.57,
    "endSec": 43.6,
    "durationSec": 0.03,
    "confidence": 0.2142
  },
  {
    "pitch": 64,
    "pitchName": "E4",
    "startQl": 87.6824,
    "durationQl": 0.0936,
    "velocity": 30,
    "startSec": 43.6,
    "endSec": 43.65,
    "durationSec": 0.05,
    "confidence": 0.1944
  },
  {
    "pitch": 33,
    "pitchName": "A1",
    "startQl": 87.9258,
    "durationQl": 0.0562,
    "velocity": 55,
    "startSec": 43.73,
    "endSec": 43.76,
    "durationSec": 0.03,
    "confidence": 0.2442
  },
  {
    "pitch": 62,
    "pitchName": "D4",
    "startQl": 87.9445,
    "durationQl": 0.0565,
    "velocity": 65,
    "startSec": 43.74,
    "endSec": 43.77,
    "durationSec": 0.03,
    "confidence": 0.4017
  },
  {
    "pitch": 74,
    "pitchName": "D5",
    "startQl": 88.001,
    "durationQl": 0.076,
    "velocity": 55,
    "startSec": 43.77,
    "endSec": 43.8,
    "durationSec": 0.03,
    "confidence": 0.3267
  },
  {
    "pitch": 64,
    "pitchName": "E4",
    "startQl": 88.5076,
    "durationQl": 0.1014,
    "velocity": 45,
    "startSec": 43.97,
    "endSec": 44.01,
    "durationSec": 0.04,
    "confidence": 0.2606
  },
  {
    "pitch": 64,
    "pitchName": "E4",
    "startQl": 88.609,
    "durationQl": 0.1266,
    "velocity": 20,
    "startSec": 44.01,
    "endSec": 44.06,
    "durationSec": 0.05,
    "confidence": 0.1944
  },
  {
    "pitch": 64,
    "pitchName": "E4",
    "startQl": 88.837,
    "durationQl": 0.1266,
    "velocity": 45,
    "startSec": 44.1,
    "endSec": 44.15,
    "durationSec": 0.05,
    "confidence": 0.2694
  },
  {
    "pitch": 33,
    "pitchName": "A1",
    "startQl": 88.8623,
    "durationQl": 0.076,
    "velocity": 50,
    "startSec": 44.11,
    "endSec": 44.14,
    "durationSec": 0.03,
    "confidence": 0.2067
  },
  {
    "pitch": 64,
    "pitchName": "E4",
    "startQl": 88.9636,
    "durationQl": 0.1062,
    "velocity": 30,
    "startSec": 44.15,
    "endSec": 44.2,
    "durationSec": 0.05,
    "confidence": 0.1944
  },
  {
    "pitch": 64,
    "pitchName": "E4",
    "startQl": 89.0698,
    "durationQl": 0.0979,
    "velocity": 20,
    "startSec": 44.2,
    "endSec": 44.25,
    "durationSec": 0.05,
    "confidence": 0.1944
  },
  {
    "pitch": 64,
    "pitchName": "E4",
    "startQl": 89.1872,
    "durationQl": 0.0783,
    "velocity": 30,
    "startSec": 44.26,
    "endSec": 44.3,
    "durationSec": 0.04,
    "confidence": 0.1856
  },
  {
    "pitch": 33,
    "pitchName": "A1",
    "startQl": 89.2264,
    "durationQl": 0.0979,
    "velocity": 55,
    "startSec": 44.28,
    "endSec": 44.33,
    "durationSec": 0.05,
    "confidence": 0.2619
  },
  {
    "pitch": 64,
    "pitchName": "E4",
    "startQl": 89.2851,
    "durationQl": 0.0783,
    "velocity": 65,
    "startSec": 44.31,
    "endSec": 44.35,
    "durationSec": 0.04,
    "confidence": 0.4106
  },
  {
    "pitch": 64,
    "pitchName": "E4",
    "startQl": 89.5396,
    "durationQl": 0.0587,
    "velocity": 40,
    "startSec": 44.44,
    "endSec": 44.47,
    "durationSec": 0.03,
    "confidence": 0.2142
  },
  {
    "pitch": 62,
    "pitchName": "D4",
    "startQl": 89.6179,
    "durationQl": 0.1958,
    "velocity": 55,
    "startSec": 44.48,
    "endSec": 44.58,
    "durationSec": 0.1,
    "confidence": 0.3889
  },
  {
    "pitch": 45,
    "pitchName": "A2",
    "startQl": 89.892,
    "durationQl": 0.0587,
    "velocity": 60,
    "startSec": 44.62,
    "endSec": 44.65,
    "durationSec": 0.03,
    "confidence": 0.3642
  },
  {
    "pitch": 46,
    "pitchName": "B-2",
    "startQl": 89.9311,
    "durationQl": 0.05,
    "velocity": 70,
    "startSec": 44.64,
    "endSec": 44.66,
    "durationSec": 0.02,
    "confidence": 0.4303
  },
  {
    "pitch": 73,
    "pitchName": "C#5",
    "startQl": 89.9507,
    "durationQl": 0.0597,
    "velocity": 70,
    "startSec": 44.65,
    "endSec": 44.68,
    "durationSec": 0.03,
    "confidence": 0.4392
  },
  {
    "pitch": 71,
    "pitchName": "B4",
    "startQl": 89.9703,
    "durationQl": 0.0616,
    "velocity": 65,
    "startSec": 44.66,
    "endSec": 44.69,
    "durationSec": 0.03,
    "confidence": 0.4017
  },
  {
    "pitch": 33,
    "pitchName": "A1",
    "startQl": 90.3333,
    "durationQl": 0.1077,
    "velocity": 65,
    "startSec": 44.83,
    "endSec": 44.88,
    "durationSec": 0.05,
    "confidence": 0.3369
  },
  {
    "pitch": 45,
    "pitchName": "A2",
    "startQl": 90.3549,
    "durationQl": 0.0861,
    "velocity": 65,
    "startSec": 44.84,
    "endSec": 44.88,
    "durationSec": 0.04,
    "confidence": 0.4106
  },
  {
    "pitch": 62,
    "pitchName": "D4",
    "startQl": 90.3979,
    "durationQl": 0.323,
    "velocity": 70,
    "startSec": 44.86,
    "endSec": 45.01,
    "durationSec": 0.15,
    "confidence": 0.5458
  },
  {
    "pitch": 74,
    "pitchName": "D5",
    "startQl": 90.3979,
    "durationQl": 0.0646,
    "velocity": 70,
    "startSec": 44.86,
    "endSec": 44.89,
    "durationSec": 0.03,
    "confidence": 0.4392
  },
  {
    "pitch": 64,
    "pitchName": "E4",
    "startQl": 90.7855,
    "durationQl": 0.0646,
    "velocity": 55,
    "startSec": 45.04,
    "endSec": 45.07,
    "durationSec": 0.03,
    "confidence": 0.3267
  },
  {
    "pitch": 64,
    "pitchName": "E4",
    "startQl": 90.8501,
    "durationQl": 0.1723,
    "velocity": 40,
    "startSec": 45.07,
    "endSec": 45.15,
    "durationSec": 0.08,
    "confidence": 0.2586
  },
  {
    "pitch": 64,
    "pitchName": "E4",
    "startQl": 91.0439,
    "durationQl": 0.0646,
    "velocity": 40,
    "startSec": 45.16,
    "endSec": 45.19,
    "durationSec": 0.03,
    "confidence": 0.2142
  },
  {
    "pitch": 64,
    "pitchName": "E4",
    "startQl": 91.1301,
    "durationQl": 0.1507,
    "velocity": 50,
    "startSec": 45.2,
    "endSec": 45.27,
    "durationSec": 0.07,
    "confidence": 0.3247
  },
  {
    "pitch": 35,
    "pitchName": "B1",
    "startQl": 91.1516,
    "durationQl": 0.0861,
    "velocity": 50,
    "startSec": 45.21,
    "endSec": 45.25,
    "durationSec": 0.04,
    "confidence": 0.2156
  },
  {
    "pitch": 64,
    "pitchName": "E4",
    "startQl": 91.3023,
    "durationQl": 0.1077,
    "velocity": 35,
    "startSec": 45.28,
    "endSec": 45.33,
    "durationSec": 0.05,
    "confidence": 0.1944
  },
  {
    "pitch": 64,
    "pitchName": "E4",
    "startQl": 91.5177,
    "durationQl": 0.0861,
    "velocity": 65,
    "startSec": 45.38,
    "endSec": 45.42,
    "durationSec": 0.04,
    "confidence": 0.4106
  },
  {
    "pitch": 64,
    "pitchName": "E4",
    "startQl": 91.8622,
    "durationQl": 0.1486,
    "velocity": 40,
    "startSec": 45.54,
    "endSec": 45.61,
    "durationSec": 0.07,
    "confidence": 0.2497
  },
  {
    "pitch": 40,
    "pitchName": "E2",
    "startQl": 91.9053,
    "durationQl": 0.0646,
    "velocity": 55,
    "startSec": 45.56,
    "endSec": 45.59,
    "durationSec": 0.03,
    "confidence": 0.3267
  },
  {
    "pitch": 52,
    "pitchName": "E3",
    "startQl": 91.9268,
    "durationQl": 0.0646,
    "velocity": 60,
    "startSec": 45.57,
    "endSec": 45.6,
    "durationSec": 0.03,
    "confidence": 0.3642
  },
  {
    "pitch": 52,
    "pitchName": "E3",
    "startQl": 92.0287,
    "durationQl": 0.0718,
    "velocity": 50,
    "startSec": 45.62,
    "endSec": 45.66,
    "durationSec": 0.04,
    "confidence": 0.2981
  },
  {
    "pitch": 52,
    "pitchName": "E3",
    "startQl": 92.1005,
    "durationQl": 0.0718,
    "velocity": 35,
    "startSec": 45.66,
    "endSec": 45.7,
    "durationSec": 0.04,
    "confidence": 0.1856
  },
  {
    "pitch": 57,
    "pitchName": "A3",
    "startQl": 92.2261,
    "durationQl": 0.0538,
    "velocity": 55,
    "startSec": 45.73,
    "endSec": 45.76,
    "durationSec": 0.03,
    "confidence": 0.3267
  },
  {
    "pitch": 67,
    "pitchName": "G4",
    "startQl": 92.6029,
    "durationQl": 0.2872,
    "velocity": 40,
    "startSec": 45.94,
    "endSec": 46.1,
    "durationSec": 0.16,
    "confidence": 0.3297
  },
  {
    "pitch": 52,
    "pitchName": "E3",
    "startQl": 92.908,
    "durationQl": 0.0538,
    "velocity": 55,
    "startSec": 46.11,
    "endSec": 46.14,
    "durationSec": 0.03,
    "confidence": 0.3267
  },
  {
    "pitch": 48,
    "pitchName": "C3",
    "startQl": 92.9259,
    "durationQl": 0.0539,
    "velocity": 60,
    "startSec": 46.12,
    "endSec": 46.15,
    "durationSec": 0.03,
    "confidence": 0.3642
  },
  {
    "pitch": 57,
    "pitchName": "A3",
    "startQl": 92.9259,
    "durationQl": 0.0539,
    "velocity": 70,
    "startSec": 46.12,
    "endSec": 46.15,
    "durationSec": 0.03,
    "confidence": 0.4392
  },
  {
    "pitch": 74,
    "pitchName": "D5",
    "startQl": 92.9798,
    "durationQl": 0.0553,
    "velocity": 70,
    "startSec": 46.15,
    "endSec": 46.18,
    "durationSec": 0.03,
    "confidence": 0.4392
  },
  {
    "pitch": 57,
    "pitchName": "A3",
    "startQl": 93.241,
    "durationQl": 0.2996,
    "velocity": 50,
    "startSec": 46.29,
    "endSec": 46.45,
    "durationSec": 0.16,
    "confidence": 0.4047
  },
  {
    "pitch": 40,
    "pitchName": "E2",
    "startQl": 93.2598,
    "durationQl": 0.0749,
    "velocity": 45,
    "startSec": 46.3,
    "endSec": 46.34,
    "durationSec": 0.04,
    "confidence": 0.2606
  },
  {
    "pitch": 57,
    "pitchName": "A3",
    "startQl": 93.6343,
    "durationQl": 0.2808,
    "velocity": 50,
    "startSec": 46.5,
    "endSec": 46.65,
    "durationSec": 0.15,
    "confidence": 0.3958
  },
  {
    "pitch": 35,
    "pitchName": "B1",
    "startQl": 93.9338,
    "durationQl": 0.0763,
    "velocity": 50,
    "startSec": 46.66,
    "endSec": 46.7,
    "durationSec": 0.04,
    "confidence": 0.2156
  },
  {
    "pitch": 57,
    "pitchName": "A3",
    "startQl": 93.9526,
    "durationQl": 0.079,
    "velocity": 65,
    "startSec": 46.67,
    "endSec": 46.71,
    "durationSec": 0.04,
    "confidence": 0.4106
  },
  {
    "pitch": 57,
    "pitchName": "A3",
    "startQl": 94.3331,
    "durationQl": 0.3445,
    "velocity": 40,
    "startSec": 46.85,
    "endSec": 47.01,
    "durationSec": 0.16,
    "confidence": 0.3297
  },
  {
    "pitch": 33,
    "pitchName": "A1",
    "startQl": 94.6991,
    "durationQl": 0.0862,
    "velocity": 55,
    "startSec": 47.02,
    "endSec": 47.06,
    "durationSec": 0.04,
    "confidence": 0.2531
  },
  {
    "pitch": 57,
    "pitchName": "A3",
    "startQl": 94.7207,
    "durationQl": 0.0861,
    "velocity": 70,
    "startSec": 47.03,
    "endSec": 47.07,
    "durationSec": 0.04,
    "confidence": 0.4481
  },
  {
    "pitch": 57,
    "pitchName": "A3",
    "startQl": 95.1513,
    "durationQl": 0.3445,
    "velocity": 45,
    "startSec": 47.23,
    "endSec": 47.39,
    "durationSec": 0.16,
    "confidence": 0.3672
  },
  {
    "pitch": 57,
    "pitchName": "A3",
    "startQl": 95.5174,
    "durationQl": 0.0646,
    "velocity": 60,
    "startSec": 47.4,
    "endSec": 47.43,
    "durationSec": 0.03,
    "confidence": 0.3642
  },
  {
    "pitch": 52,
    "pitchName": "E3",
    "startQl": 95.8834,
    "durationQl": 0.0646,
    "velocity": 60,
    "startSec": 47.57,
    "endSec": 47.6,
    "durationSec": 0.03,
    "confidence": 0.3642
  },
  {
    "pitch": 45,
    "pitchName": "A2",
    "startQl": 95.905,
    "durationQl": 0.0646,
    "velocity": 60,
    "startSec": 47.58,
    "endSec": 47.61,
    "durationSec": 0.03,
    "confidence": 0.3642
  },
  {
    "pitch": 64,
    "pitchName": "E4",
    "startQl": 95.9696,
    "durationQl": 0.0601,
    "velocity": 55,
    "startSec": 47.61,
    "endSec": 47.64,
    "durationSec": 0.03,
    "confidence": 0.3267
  },
  {
    "pitch": 58,
    "pitchName": "B-3",
    "startQl": 96.2357,
    "durationQl": 0.0562,
    "velocity": 65,
    "startSec": 47.75,
    "endSec": 47.78,
    "durationSec": 0.03,
    "confidence": 0.4017
  },
  {
    "pitch": 46,
    "pitchName": "B-2",
    "startQl": 96.2544,
    "durationQl": 0.0562,
    "velocity": 65,
    "startSec": 47.76,
    "endSec": 47.79,
    "durationSec": 0.03,
    "confidence": 0.4017
  },
  {
    "pitch": 57,
    "pitchName": "A3",
    "startQl": 96.2544,
    "durationQl": 0.0749,
    "velocity": 75,
    "startSec": 47.76,
    "endSec": 47.8,
    "durationSec": 0.04,
    "confidence": 0.4856
  },
  {
    "pitch": 57,
    "pitchName": "A3",
    "startQl": 96.348,
    "durationQl": 0.0562,
    "velocity": 65,
    "startSec": 47.81,
    "endSec": 47.84,
    "durationSec": 0.03,
    "confidence": 0.4017
  },
  {
    "pitch": 57,
    "pitchName": "A3",
    "startQl": 96.6289,
    "durationQl": 0.2621,
    "velocity": 45,
    "startSec": 47.96,
    "endSec": 48.1,
    "durationSec": 0.14,
    "confidence": 0.3494
  },
  {
    "pitch": 57,
    "pitchName": "A3",
    "startQl": 96.9285,
    "durationQl": 0.1185,
    "velocity": 60,
    "startSec": 48.12,
    "endSec": 48.18,
    "durationSec": 0.06,
    "confidence": 0.3908
  },
  {
    "pitch": 35,
    "pitchName": "B1",
    "startQl": 96.9472,
    "durationQl": 0.0782,
    "velocity": 50,
    "startSec": 48.13,
    "endSec": 48.17,
    "durationSec": 0.04,
    "confidence": 0.2156
  },
  {
    "pitch": 58,
    "pitchName": "B-3",
    "startQl": 97.3269,
    "durationQl": 0.323,
    "velocity": 65,
    "startSec": 48.31,
    "endSec": 48.46,
    "durationSec": 0.15,
    "confidence": 0.5083
  },
  {
    "pitch": 70,
    "pitchName": "B-4",
    "startQl": 97.3484,
    "durationQl": 0.0862,
    "velocity": 60,
    "startSec": 48.32,
    "endSec": 48.36,
    "durationSec": 0.04,
    "confidence": 0.3731
  },
  {
    "pitch": 40,
    "pitchName": "E2",
    "startQl": 97.693,
    "durationQl": 0.0861,
    "velocity": 55,
    "startSec": 48.48,
    "endSec": 48.52,
    "durationSec": 0.04,
    "confidence": 0.3356
  },
  {
    "pitch": 59,
    "pitchName": "B3",
    "startQl": 97.693,
    "durationQl": 0.3445,
    "velocity": 60,
    "startSec": 48.48,
    "endSec": 48.64,
    "durationSec": 0.16,
    "confidence": 0.4797
  },
  {
    "pitch": 52,
    "pitchName": "E3",
    "startQl": 97.7145,
    "durationQl": 0.0861,
    "velocity": 55,
    "startSec": 48.49,
    "endSec": 48.53,
    "durationSec": 0.04,
    "confidence": 0.3356
  },
  {
    "pitch": 59,
    "pitchName": "B3",
    "startQl": 98.1021,
    "durationQl": 0.0646,
    "velocity": 40,
    "startSec": 48.67,
    "endSec": 48.7,
    "durationSec": 0.03,
    "confidence": 0.2142
  },
  {
    "pitch": 59,
    "pitchName": "B3",
    "startQl": 98.1667,
    "durationQl": 0.2369,
    "velocity": 50,
    "startSec": 48.7,
    "endSec": 48.81,
    "durationSec": 0.11,
    "confidence": 0.3603
  },
  {
    "pitch": 62,
    "pitchName": "D4",
    "startQl": 98.4251,
    "durationQl": 0.0861,
    "velocity": 20,
    "startSec": 48.82,
    "endSec": 48.86,
    "durationSec": 0.04,
    "confidence": 0.1856
  },
  {
    "pitch": 67,
    "pitchName": "G4",
    "startQl": 98.5328,
    "durationQl": 0.3445,
    "velocity": 35,
    "startSec": 48.87,
    "endSec": 49.03,
    "durationSec": 0.16,
    "confidence": 0.2922
  },
  {
    "pitch": 48,
    "pitchName": "C3",
    "startQl": 98.8988,
    "durationQl": 0.0646,
    "velocity": 65,
    "startSec": 49.04,
    "endSec": 49.07,
    "durationSec": 0.03,
    "confidence": 0.4017
  },
  {
    "pitch": 52,
    "pitchName": "E3",
    "startQl": 98.8988,
    "durationQl": 0.05,
    "velocity": 60,
    "startSec": 49.04,
    "endSec": 49.06,
    "durationSec": 0.02,
    "confidence": 0.3553
  },
  {
    "pitch": 57,
    "pitchName": "A3",
    "startQl": 98.8988,
    "durationQl": 0.0646,
    "velocity": 65,
    "startSec": 49.04,
    "endSec": 49.07,
    "durationSec": 0.03,
    "confidence": 0.4017
  },
  {
    "pitch": 74,
    "pitchName": "D5",
    "startQl": 98.985,
    "durationQl": 0.0581,
    "velocity": 70,
    "startSec": 49.08,
    "endSec": 49.11,
    "durationSec": 0.03,
    "confidence": 0.4392
  },
  {
    "pitch": 40,
    "pitchName": "E2",
    "startQl": 99.2491,
    "durationQl": 0.0561,
    "velocity": 55,
    "startSec": 49.22,
    "endSec": 49.25,
    "durationSec": 0.03,
    "confidence": 0.3267
  },
  {
    "pitch": 57,
    "pitchName": "A3",
    "startQl": 99.2678,
    "durationQl": 0.0562,
    "velocity": 65,
    "startSec": 49.23,
    "endSec": 49.26,
    "durationSec": 0.03,
    "confidence": 0.4017
  },
  {
    "pitch": 67,
    "pitchName": "G4",
    "startQl": 99.3427,
    "durationQl": 0.0749,
    "velocity": 40,
    "startSec": 49.27,
    "endSec": 49.31,
    "durationSec": 0.04,
    "confidence": 0.2231
  },
  {
    "pitch": 58,
    "pitchName": "B-3",
    "startQl": 99.5861,
    "durationQl": 0.2996,
    "velocity": 55,
    "startSec": 49.4,
    "endSec": 49.56,
    "durationSec": 0.16,
    "confidence": 0.4422
  },
  {
    "pitch": 70,
    "pitchName": "B-4",
    "startQl": 99.6048,
    "durationQl": 0.0749,
    "velocity": 50,
    "startSec": 49.41,
    "endSec": 49.45,
    "durationSec": 0.04,
    "confidence": 0.2981
  },
  {
    "pitch": 59,
    "pitchName": "B3",
    "startQl": 99.9231,
    "durationQl": 0.0562,
    "velocity": 50,
    "startSec": 49.58,
    "endSec": 49.61,
    "durationSec": 0.03,
    "confidence": 0.2892
  },
  {
    "pitch": 35,
    "pitchName": "B1",
    "startQl": 99.9419,
    "durationQl": 0.0774,
    "velocity": 55,
    "startSec": 49.59,
    "endSec": 49.63,
    "durationSec": 0.04,
    "confidence": 0.2531
  },
  {
    "pitch": 67,
    "pitchName": "G4",
    "startQl": 99.9793,
    "durationQl": 0.0615,
    "velocity": 40,
    "startSec": 49.61,
    "endSec": 49.64,
    "durationSec": 0.03,
    "confidence": 0.2142
  },
  {
    "pitch": 59,
    "pitchName": "B3",
    "startQl": 100.3854,
    "durationQl": 0.1076,
    "velocity": 65,
    "startSec": 49.8,
    "endSec": 49.85,
    "durationSec": 0.05,
    "confidence": 0.4194
  },
  {
    "pitch": 71,
    "pitchName": "B4",
    "startQl": 100.4069,
    "durationQl": 0.0646,
    "velocity": 65,
    "startSec": 49.81,
    "endSec": 49.84,
    "durationSec": 0.03,
    "confidence": 0.4017
  },
  {
    "pitch": 33,
    "pitchName": "A1",
    "startQl": 100.7083,
    "durationQl": 0.0862,
    "velocity": 50,
    "startSec": 49.95,
    "endSec": 49.99,
    "durationSec": 0.04,
    "confidence": 0.2156
  },
  {
    "pitch": 33,
    "pitchName": "A1",
    "startQl": 101.1175,
    "durationQl": 0.3445,
    "velocity": 40,
    "startSec": 50.14,
    "endSec": 50.3,
    "durationSec": 0.16,
    "confidence": 0.2472
  },
  {
    "pitch": 57,
    "pitchName": "A3",
    "startQl": 101.1605,
    "durationQl": 0.0862,
    "velocity": 35,
    "startSec": 50.16,
    "endSec": 50.2,
    "durationSec": 0.04,
    "confidence": 0.1856
  },
  {
    "pitch": 57,
    "pitchName": "A3",
    "startQl": 101.5266,
    "durationQl": 0.2153,
    "velocity": 55,
    "startSec": 50.33,
    "endSec": 50.43,
    "durationSec": 0.1,
    "confidence": 0.3889
  },
  {
    "pitch": 58,
    "pitchName": "B-3",
    "startQl": 101.8065,
    "durationQl": 0.1723,
    "velocity": 30,
    "startSec": 50.46,
    "endSec": 50.54,
    "durationSec": 0.08,
    "confidence": 0.2211
  },
  {
    "pitch": 52,
    "pitchName": "E3",
    "startQl": 101.8711,
    "durationQl": 0.0646,
    "velocity": 50,
    "startSec": 50.49,
    "endSec": 50.52,
    "durationSec": 0.03,
    "confidence": 0.2892
  },
  {
    "pitch": 46,
    "pitchName": "B-2",
    "startQl": 101.8927,
    "durationQl": 0.0646,
    "velocity": 50,
    "startSec": 50.5,
    "endSec": 50.53,
    "durationSec": 0.03,
    "confidence": 0.2892
  },
  {
    "pitch": 58,
    "pitchName": "B-3",
    "startQl": 102.0003,
    "durationQl": 0.1872,
    "velocity": 45,
    "startSec": 50.55,
    "endSec": 50.65,
    "durationSec": 0.1,
    "confidence": 0.3139
  },
  {
    "pitch": 33,
    "pitchName": "A1",
    "startQl": 102.225,
    "durationQl": 0.0936,
    "velocity": 40,
    "startSec": 50.67,
    "endSec": 50.72,
    "durationSec": 0.05,
    "confidence": 0.1494
  },
  {
    "pitch": 59,
    "pitchName": "B3",
    "startQl": 102.2437,
    "durationQl": 0.3183,
    "velocity": 45,
    "startSec": 50.68,
    "endSec": 50.85,
    "durationSec": 0.17,
    "confidence": 0.3761
  },
  {
    "pitch": 59,
    "pitchName": "B3",
    "startQl": 102.5995,
    "durationQl": 0.0562,
    "velocity": 30,
    "startSec": 50.87,
    "endSec": 50.9,
    "durationSec": 0.03,
    "confidence": 0.1767
  },
  {
    "pitch": 59,
    "pitchName": "B3",
    "startQl": 102.6557,
    "durationQl": 0.2434,
    "velocity": 35,
    "startSec": 50.9,
    "endSec": 51.03,
    "durationSec": 0.13,
    "confidence": 0.2656
  },
  {
    "pitch": 31,
    "pitchName": "G1",
    "startQl": 102.9365,
    "durationQl": 0.095,
    "velocity": 35,
    "startSec": 51.05,
    "endSec": 51.1,
    "durationSec": 0.05,
    "confidence": 0.1119
  },
  {
    "pitch": 52,
    "pitchName": "E3",
    "startQl": 103.3447,
    "durationQl": 0.0979,
    "velocity": 10,
    "startSec": 51.26,
    "endSec": 51.31,
    "durationSec": 0.05,
    "confidence": 0.1944
  },
  {
    "pitch": 52,
    "pitchName": "E3",
    "startQl": 103.6384,
    "durationQl": 0.137,
    "velocity": 10,
    "startSec": 51.41,
    "endSec": 51.48,
    "durationSec": 0.07,
    "confidence": 0.2122
  },
  {
    "pitch": 57,
    "pitchName": "A3",
    "startQl": 103.6775,
    "durationQl": 0.0783,
    "velocity": 30,
    "startSec": 51.43,
    "endSec": 51.47,
    "durationSec": 0.04,
    "confidence": 0.1856
  },
  {
    "pitch": 40,
    "pitchName": "E2",
    "startQl": 103.6971,
    "durationQl": 0.0979,
    "velocity": 10,
    "startSec": 51.44,
    "endSec": 51.49,
    "durationSec": 0.05,
    "confidence": 0.1944
  }
]