[
  {
    "pitch": 53,
    "pitchName": "F3",
    "startQl": 0.0,
    "durationQl": 1.9041,
    "velocity": 85,
    "startSec": 0.11,
    "endSec": 1.07,
    "durationSec": 0.96,
    "confidence": 0.925
  },
  {
    "pitch": 65,
    "pitchName": "F4",
    "startQl": 0.0,
    "durationQl": 0.9214,
    "velocity": 90,
    "startSec": 0.11,
    "endSec": 0.61,
    "durationSec": 0.5,
    "confidence": 0.9625
  },
  {
    "pitch": 65,
    "pitchName": "F4",
    "startQl": 0.9214,
    "durationQl": 0.9827,
    "velocity": 90,
    "startSec": 0.61,
    "endSec": 1.07,
    "durationSec": 0.46,
    "confidence": 0.9625
  },
  {
    "pitch": 48,
    "pitchName": "C3",
    "startQl": 1.9364,
    "durationQl": 1.9042,
    "velocity": 80,
    "startSec": 1.08,
    "endSec": 2.03,
    "durationSec": 0.95,
    "confidence": 0.8875
  },
  {
    "pitch": 60,
    "pitchName": "C4",
    "startQl": 1.9364,
    "durationQl": 0.964,
    "velocity": 80,
    "startSec": 1.09,
    "endSec": 1.58,
    "durationSec": 0.49,
    "confidence": 0.8875
  },
  {
    "pitch": 60,
    "pitchName": "C4",
    "startQl": 2.9111,
    "durationQl": 0.9187,
    "velocity": 80,
    "startSec": 1.58,
    "endSec": 2.03,
    "durationSec": 0.45,
    "confidence": 0.8875
  },
  {
    "pitch": 53,
    "pitchName": "F3",
    "startQl": 3.9528,
    "durationQl": 1.9621,
    "velocity": 85,
    "startSec": 2.09,
    "endSec": 3.07,
    "durationSec": 0.98,
    "confidence": 0.925
  },
  {
    "pitch": 62,
    "pitchName": "D4",
    "startQl": 3.9528,
    "durationQl": 0.9614,
    "velocity": 85,
    "startSec": 2.09,
    "endSec": 2.58,
    "durationSec": 0.49,
    "confidence": 0.925
  },
  {
    "pitch": 62,
    "pitchName": "D4",
    "startQl": 4.9337,
    "durationQl": 0.9812,
    "velocity": 85,
    "startSec": 2.59,
    "endSec": 3.07,
    "durationSec": 0.48,
    "confidence": 0.925
  },
  {
    "pitch": 48,
    "pitchName": "C3",
    "startQl": 5.9458,
    "durationQl": 1.8596,
    "velocity": 80,
    "startSec": 3.08,
    "endSec": 4.01,
    "durationSec": 0.93,
    "confidence": 0.8875
  },
  {
    "pitch": 60,
    "pitchName": "C4",
    "startQl": 5.9458,
    "durationQl": 1.8391,
    "velocity": 80,
    "startSec": 3.09,
    "endSec": 4.01,
    "durationSec": 0.92,
    "confidence": 0.8875
  },
  {
    "pitch": 53,
    "pitchName": "F3",
    "startQl": 7.9489,
    "durationQl": 1.9212,
    "velocity": 85,
    "startSec": 4.08,
    "endSec": 5.06,
    "durationSec": 0.98,
    "confidence": 0.925
  },
  {
    "pitch": 65,
    "pitchName": "F4",
    "startQl": 7.9489,
    "durationQl": 0.9611,
    "velocity": 90,
    "startSec": 4.09,
    "endSec": 4.58,
    "durationSec": 0.49,
    "confidence": 0.9625
  },
  {
    "pitch": 65,
    "pitchName": "F4",
    "startQl": 8.9398,
    "durationQl": 0.92,
    "velocity": 90,
    "startSec": 4.59,
    "endSec": 5.06,
    "durationSec": 0.47,
    "confidence": 0.9625
  },
  {
    "pitch": 48,
    "pitchName": "C3",
    "startQl": 9.9087,
    "durationQl": 1.8855,
    "velocity": 80,
    "startSec": 5.08,
    "endSec": 6.02,
    "durationSec": 0.94,
    "confidence": 0.8875
  },
  {
    "pitch": 60,
    "pitchName": "C4",
    "startQl": 9.9087,
    "durationQl": 1.001,
    "velocity": 80,
    "startSec": 5.09,
    "endSec": 5.58,
    "durationSec": 0.49,
    "confidence": 0.8875
  },
  {
    "pitch": 60,
    "pitchName": "C4",
    "startQl": 10.9195,
    "durationQl": 0.865,
    "velocity": 80,
    "startSec": 5.58,
    "endSec": 6.02,
    "durationSec": 0.44,
    "confidence": 0.8875
  },
  {
    "pitch": 53,
    "pitchName": "F3",
    "startQl": 11.9216,
    "durationQl": 1.9051,
    "velocity": 85,
    "startSec": 6.09,
    "endSec": 7.04,
    "durationSec": 0.95,
    "confidence": 0.925
  },
  {
    "pitch": 62,
    "pitchName": "D4",
    "startQl": 11.9216,
    "durationQl": 1.0011,
    "velocity": 85,
    "startSec": 6.09,
    "endSec": 6.58,
    "durationSec": 0.49,
    "confidence": 0.925
  },
  {
    "pitch": 62,
    "pitchName": "D4",
    "startQl": 12.9432,
    "durationQl": 0.8835,
    "velocity": 85,
    "startSec": 6.59,
    "endSec": 7.04,
    "durationSec": 0.45,
    "confidence": 0.925
  },
  {
    "pitch": 48,
    "pitchName": "C3",
    "startQl": 13.9148,
    "durationQl": 1.8551,
    "velocity": 80,
    "startSec": 7.08,
    "endSec": 8.01,
    "durationSec": 0.93,
    "confidence": 0.8875
  },
  {
    "pitch": 60,
    "pitchName": "C4",
    "startQl": 13.9148,
    "durationQl": 1.8355,
    "velocity": 80,
    "startSec": 7.09,
    "endSec": 8.01,
    "durationSec": 0.92,
    "confidence": 0.8875
  },
  {
    "pitch": 48,
    "pitchName": "C3",
    "startQl": 15.9139,
    "durationQl": 0.9844,
    "velocity": 80,
    "startSec": 8.08,
    "endSec": 8.56,
    "durationSec": 0.48,
    "confidence": 0.8875
  },
  {
    "pitch": 60,
    "pitchName": "C4",
    "startQl": 15.9139,
    "durationQl": 0.9638,
    "velocity": 80,
    "startSec": 8.09,
    "endSec": 8.56,
    "durationSec": 0.47,
    "confidence": 0.8875
  },
  {
    "pitch": 48,
    "pitchName": "C3",
    "startQl": 16.9393,
    "durationQl": 0.8842,
    "velocity": 80,
    "startSec": 8.58,
    "endSec": 9.03,
    "durationSec": 0.45,
    "confidence": 0.8875
  },
  {
    "pitch": 60,
    "pitchName": "C4",
    "startQl": 16.9393,
    "durationQl": 0.8637,
    "velocity": 80,
    "startSec": 8.59,
    "endSec": 9.03,
    "durationSec": 0.44,
    "confidence": 0.8875
  },
  {
    "pitch": 50,
    "pitchName": "D3",
    "startQl": 17.9306,
    "durationQl": 0.9606,
    "velocity": 85,
    "startSec": 9.09,
    "endSec": 9.56,
    "durationSec": 0.47,
    "confidence": 0.925
  },
  {
    "pitch": 62,
    "pitchName": "D4",
    "startQl": 17.9306,
    "durationQl": 0.9606,
    "velocity": 85,
    "startSec": 9.09,
    "endSec": 9.56,
    "durationSec": 0.47,
    "confidence": 0.925
  },
  {
    "pitch": 52,
    "pitchName": "E3",
    "startQl": 18.9425,
    "durationQl": 0.9231,
    "velocity": 85,
    "startSec": 9.58,
    "endSec": 10.05,
    "durationSec": 0.47,
    "confidence": 0.925
  },
  {
    "pitch": 64,
    "pitchName": "E4",
    "startQl": 18.9425,
    "durationQl": 0.9026,
    "velocity": 90,
    "startSec": 9.59,
    "endSec": 10.05,
    "durationSec": 0.46,
    "confidence": 0.9625
  },
  {
    "pitch": 53,
    "pitchName": "F3",
    "startQl": 19.9239,
    "durationQl": 1.8555,
    "velocity": 85,
    "startSec": 10.08,
    "endSec": 11.01,
    "durationSec": 0.93,
    "confidence": 0.925
  },
  {
    "pitch": 65,
    "pitchName": "F4",
    "startQl": 19.9239,
    "durationQl": 1.836,
    "velocity": 90,
    "startSec": 10.09,
    "endSec": 11.01,
    "durationSec": 0.92,
    "confidence": 0.9625
  },
  {
    "pitch": 48,
    "pitchName": "C3",
    "startQl": 21.9233,
    "durationQl": 1.8801,
    "velocity": 80,
    "startSec": 11.08,
    "endSec": 12.02,
    "durationSec": 0.94,
    "confidence": 0.8875
  },
  {
    "pitch": 65,
    "pitchName": "F4",
    "startQl": 21.9233,
    "durationQl": 1.8596,
    "velocity": 90,
    "startSec": 11.09,
    "endSec": 12.02,
    "durationSec": 0.93,
    "confidence": 0.9625
  },
  {
    "pitch": 48,
    "pitchName": "C3",
    "startQl": 23.9265,
    "durationQl": 0.963,
    "velocity": 80,
    "startSec": 12.08,
    "endSec": 12.57,
    "durationSec": 0.49,
    "confidence": 0.8875
  },
  {
    "pitch": 60,
    "pitchName": "C4",
    "startQl": 23.9265,
    "durationQl": 0.9425,
    "velocity": 80,
    "startSec": 12.09,
    "endSec": 12.57,
    "durationSec": 0.48,
    "confidence": 0.8875
  },
  {
    "pitch": 48,
    "pitchName": "C3",
    "startQl": 24.9087,
    "durationQl": 0.959,
    "velocity": 80,
    "startSec": 12.58,
    "endSec": 13.05,
    "durationSec": 0.47,
    "confidence": 0.8875
  },
  {
    "pitch": 60,
    "pitchName": "C4",
    "startQl": 24.9087,
    "durationQl": 0.9394,
    "velocity": 80,
    "startSec": 12.59,
    "endSec": 13.05,
    "durationSec": 0.46,
    "confidence": 0.8875
  },
  {
    "pitch": 50,
    "pitchName": "D3",
    "startQl": 25.94,
    "durationQl": 0.9227,
    "velocity": 85,
    "startSec": 13.09,
    "endSec": 13.56,
    "durationSec": 0.47,
    "confidence": 0.925
  },
  {
    "pitch": 62,
    "pitchName": "D4",
    "startQl": 25.94,
    "durationQl": 0.9227,
    "velocity": 85,
    "startSec": 13.09,
    "endSec": 13.56,
    "durationSec": 0.47,
    "confidence": 0.925
  },
  {
    "pitch": 52,
    "pitchName": "E3",
    "startQl": 26.9117,
    "durationQl": 0.9387,
    "velocity": 85,
    "startSec": 13.58,
    "endSec": 14.04,
    "durationSec": 0.46,
    "confidence": 0.925
  },
  {
    "pitch": 64,
    "pitchName": "E4",
    "startQl": 26.9117,
    "durationQl": 0.9191,
    "velocity": 90,
    "startSec": 13.59,
    "endSec": 14.04,
    "durationSec": 0.45,
    "confidence": 0.9625
  },
  {
    "pitch": 53,
    "pitchName": "F3",
    "startQl": 27.9329,
    "durationQl": 1.8391,
    "velocity": 85,
    "startSec": 14.08,
    "endSec": 15.0,
    "durationSec": 0.92,
    "confidence": 0.925
  },
  {
    "pitch": 65,
    "pitchName": "F4",
    "startQl": 27.9329,
    "durationQl": 1.8186,
    "velocity": 90,
    "startSec": 14.09,
    "endSec": 15.0,
    "durationSec": 0.91,
    "confidence": 0.9625
  },
  {
    "pitch": 57,
    "pitchName": "A3",
    "startQl": 29.9361,
    "durationQl": 1.8391,
    "velocity": 80,
    "startSec": 15.08,
    "endSec": 16.0,
    "durationSec": 0.92,
    "confidence": 0.8875
  },
  {
    "pitch": 60,
    "pitchName": "C4",
    "startQl": 29.9361,
    "durationQl": 1.8391,
    "velocity": 80,
    "startSec": 15.08,
    "endSec": 16.0,
    "durationSec": 0.92,
    "confidence": 0.8875
  },
  {
    "pitch": 65,
    "pitchName": "F4",
    "startQl": 29.9361,
    "durationQl": 1.8186,
    "velocity": 85,
    "startSec": 15.09,
    "endSec": 16.0,
    "durationSec": 0.91,
    "confidence": 0.925
  },
  {
    "pitch": 77,
    "pitchName": "F5",
    "startQl": 29.9361,
    "durationQl": 1.8186,
    "velocity": 80,
    "startSec": 15.09,
    "endSec": 16.0,
    "durationSec": 0.91,
    "confidence": 0.8875
  },
  {
    "pitch": 53,
    "pitchName": "F3",
    "startQl": 31.9392,
    "durationQl": 0.9038,
    "velocity": 85,
    "startSec": 16.08,
    "endSec": 16.54,
    "durationSec": 0.46,
    "confidence": 0.925
  },
  {
    "pitch": 65,
    "pitchName": "F4",
    "startQl": 31.9392,
    "durationQl": 0.8832,
    "velocity": 90,
    "startSec": 16.09,
    "endSec": 16.54,
    "durationSec": 0.45,
    "confidence": 0.9625
  },
  {
    "pitch": 57,
    "pitchName": "A3",
    "startQl": 32.9305,
    "durationQl": 0.9801,
    "velocity": 80,
    "startSec": 16.58,
    "endSec": 17.06,
    "durationSec": 0.48,
    "confidence": 0.8875
  },
  {
    "pitch": 65,
    "pitchName": "F4",
    "startQl": 32.9305,
    "durationQl": 0.9606,
    "velocity": 90,
    "startSec": 16.59,
    "endSec": 17.06,
    "durationSec": 0.47,
    "confidence": 0.9625
  },
  {
    "pitch": 77,
    "pitchName": "F5",
    "startQl": 32.9305,
    "durationQl": 0.9606,
    "velocity": 75,
    "startSec": 16.59,
    "endSec": 17.06,
    "durationSec": 0.47,
    "confidence": 0.85
  },
  {
    "pitch": 53,
    "pitchName": "F3",
    "startQl": 33.9321,
    "durationQl": 0.9427,
    "velocity": 85,
    "startSec": 17.08,
    "endSec": 17.56,
    "durationSec": 0.48,
    "confidence": 0.925
  },
  {
    "pitch": 60,
    "pitchName": "C4",
    "startQl": 33.9321,
    "durationQl": 0.9427,
    "velocity": 80,
    "startSec": 17.08,
    "endSec": 17.56,
    "durationSec": 0.48,
    "confidence": 0.8875
  },
  {
    "pitch": 65,
    "pitchName": "F4",
    "startQl": 33.9321,
    "durationQl": 0.9222,
    "velocity": 70,
    "startSec": 17.09,
    "endSec": 17.56,
    "durationSec": 0.47,
    "confidence": 0.8125
  },
  {
    "pitch": 57,
    "pitchName": "A3",
    "startQl": 34.914,
    "durationQl": 0.92,
    "velocity": 80,
    "startSec": 17.58,
    "endSec": 18.05,
    "durationSec": 0.47,
    "confidence": 0.8875
  },
  {
    "pitch": 60,
    "pitchName": "C4",
    "startQl": 34.914,
    "durationQl": 0.92,
    "velocity": 80,
    "startSec": 17.58,
    "endSec": 18.05,
    "durationSec": 0.47,
    "confidence": 0.8875
  },
  {
    "pitch": 53,
    "pitchName": "F3",
    "startQl": 35.9026,
    "durationQl": 0.9792,
    "velocity": 85,
    "startSec": 18.08,
    "endSec": 18.56,
    "durationSec": 0.48,
    "confidence": 0.925
  },
  {
    "pitch": 62,
    "pitchName": "D4",
    "startQl": 35.9026,
    "durationQl": 0.9597,
    "velocity": 85,
    "startSec": 18.09,
    "endSec": 18.56,
    "durationSec": 0.47,
    "confidence": 0.925
  },
  {
    "pitch": 57,
    "pitchName": "A3",
    "startQl": 36.9232,
    "durationQl": 1.0049,
    "velocity": 80,
    "startSec": 18.58,
    "endSec": 19.07,
    "durationSec": 0.49,
    "confidence": 0.8875
  },
  {
    "pitch": 62,
    "pitchName": "D4",
    "startQl": 36.9232,
    "durationQl": 0.9844,
    "velocity": 85,
    "startSec": 18.59,
    "endSec": 19.07,
    "durationSec": 0.48,
    "confidence": 0.925
  },
  {
    "pitch": 53,
    "pitchName": "F3",
    "startQl": 37.9384,
    "durationQl": 0.9229,
    "velocity": 85,
    "startSec": 19.08,
    "endSec": 19.55,
    "durationSec": 0.47,
    "confidence": 0.925
  },
  {
    "pitch": 60,
    "pitchName": "C4",
    "startQl": 37.9384,
    "durationQl": 1.9408,
    "velocity": 80,
    "startSec": 19.08,
    "endSec": 20.07,
    "durationSec": 0.99,
    "confidence": 0.8875
  },
  {
    "pitch": 65,
    "pitchName": "F4",
    "startQl": 37.9384,
    "durationQl": 0.9024,
    "velocity": 70,
    "startSec": 19.09,
    "endSec": 19.55,
    "durationSec": 0.46,
    "confidence": 0.8125
  },
  {
    "pitch": 57,
    "pitchName": "A3",
    "startQl": 38.92,
    "durationQl": 0.9592,
    "velocity": 80,
    "startSec": 19.58,
    "endSec": 20.07,
    "durationSec": 0.49,
    "confidence": 0.8875
  },
  {
    "pitch": 53,
    "pitchName": "F3",
    "startQl": 39.9086,
    "durationQl": 0.959,
    "velocity": 85,
    "startSec": 20.08,
    "endSec": 20.55,
    "durationSec": 0.47,
    "confidence": 0.925
  },
  {
    "pitch": 65,
    "pitchName": "F4",
    "startQl": 39.9086,
    "durationQl": 0.9394,
    "velocity": 90,
    "startSec": 20.09,
    "endSec": 20.55,
    "durationSec": 0.46,
    "confidence": 0.9625
  },
  {
    "pitch": 57,
    "pitchName": "A3",
    "startQl": 40.9297,
    "durationQl": 0.9628,
    "velocity": 80,
    "startSec": 20.58,
    "endSec": 21.07,
    "durationSec": 0.49,
    "confidence": 0.8875
  },
  {
    "pitch": 65,
    "pitchName": "F4",
    "startQl": 40.9297,
    "durationQl": 0.9423,
    "velocity": 90,
    "startSec": 20.59,
    "endSec": 21.07,
    "durationSec": 0.48,
    "confidence": 0.9625
  },
  {
    "pitch": 53,
    "pitchName": "F3",
    "startQl": 41.9018,
    "durationQl": 0.9797,
    "velocity": 85,
    "startSec": 21.08,
    "endSec": 21.56,
    "durationSec": 0.48,
    "confidence": 0.925
  },
  {
    "pitch": 60,
    "pitchName": "C4",
    "startQl": 41.9018,
    "durationQl": 0.9797,
    "velocity": 80,
    "startSec": 21.08,
    "endSec": 21.56,
    "durationSec": 0.48,
    "confidence": 0.8875
  },
  {
    "pitch": 65,
    "pitchName": "F4",
    "startQl": 41.9018,
    "durationQl": 0.9601,
    "velocity": 70,
    "startSec": 21.09,
    "endSec": 21.56,
    "durationSec": 0.47,
    "confidence": 0.8125
  },
  {
    "pitch": 57,
    "pitchName": "A3",
    "startQl": 42.9225,
    "durationQl": 0.9628,
    "velocity": 80,
    "startSec": 21.58,
    "endSec": 22.07,
    "durationSec": 0.49,
    "confidence": 0.8875
  },
  {
    "pitch": 60,
    "pitchName": "C4",
    "startQl": 42.9225,
    "durationQl": 0.9628,
    "velocity": 80,
    "startSec": 21.58,
    "endSec": 22.07,
    "durationSec": 0.49,
    "confidence": 0.8875
  },
  {
    "pitch": 53,
    "pitchName": "F3",
    "startQl": 43.9146,
    "durationQl": 0.9799,
    "velocity": 85,
    "startSec": 22.08,
    "endSec": 22.56,
    "durationSec": 0.48,
    "confidence": 0.925
  },
  {
    "pitch": 62,
    "pitchName": "D4",
    "startQl": 43.9146,
    "durationQl": 0.9603,
    "velocity": 85,
    "startSec": 22.09,
    "endSec": 22.56,
    "durationSec": 0.47,
    "confidence": 0.925
  },
  {
    "pitch": 57,
    "pitchName": "A3",
    "startQl": 44.9359,
    "durationQl": 0.9626,
    "velocity": 80,
    "startSec": 22.58,
    "endSec": 23.07,
    "durationSec": 0.49,
    "confidence": 0.8875
  },
  {
    "pitch": 62,
    "pitchName": "D4",
    "startQl": 44.9359,
    "durationQl": 0.9421,
    "velocity": 85,
    "startSec": 22.59,
    "endSec": 23.07,
    "durationSec": 0.48,
    "confidence": 0.925
  },
  {
    "pitch": 53,
    "pitchName": "F3",
    "startQl": 45.9078,
    "durationQl": 0.9595,
    "velocity": 85,
    "startSec": 23.08,
    "endSec": 23.55,
    "durationSec": 0.47,
    "confidence": 0.925
  },
  {
    "pitch": 60,
    "pitchName": "C4",
    "startQl": 45.9078,
    "durationQl": 1.9835,
    "velocity": 80,
    "startSec": 23.08,
    "endSec": 24.07,
    "durationSec": 0.99,
    "confidence": 0.8875
  },
  {
    "pitch": 65,
    "pitchName": "F4",
    "startQl": 45.9078,
    "durationQl": 0.9399,
    "velocity": 70,
    "startSec": 23.09,
    "endSec": 23.55,
    "durationSec": 0.46,
    "confidence": 0.8125
  },
  {
    "pitch": 57,
    "pitchName": "A3",
    "startQl": 46.9289,
    "durationQl": 0.9624,
    "velocity": 80,
    "startSec": 23.58,
    "endSec": 24.07,
    "durationSec": 0.49,
    "confidence": 0.8875
  },
  {
    "pitch": 48,
    "pitchName": "C3",
    "startQl": 47.9206,
    "durationQl": 1.0006,
    "velocity": 80,
    "startSec": 24.08,
    "endSec": 24.57,
    "durationSec": 0.49,
    "confidence": 0.8875
  },
  {
    "pitch": 60,
    "pitchName": "C4",
    "startQl": 47.9206,
    "durationQl": 0.9811,
    "velocity": 80,
    "startSec": 24.09,
    "endSec": 24.57,
    "durationSec": 0.48,
    "confidence": 0.8875
  },
  {
    "pitch": 48,
    "pitchName": "C3",
    "startQl": 48.9423,
    "durationQl": 0.9623,
    "velocity": 80,
    "startSec": 24.58,
    "endSec": 25.07,
    "durationSec": 0.49,
    "confidence": 0.8875
  },
  {
    "pitch": 60,
    "pitchName": "C4",
    "startQl": 48.9423,
    "durationQl": 0.9418,
    "velocity": 80,
    "startSec": 24.59,
    "endSec": 25.07,
    "durationSec": 0.48,
    "confidence": 0.8875
  },
  {
    "pitch": 50,
    "pitchName": "D3",
    "startQl": 49.9237,
    "durationQl": 1.0008,
    "velocity": 85,
    "startSec": 25.08,
    "endSec": 25.57,
    "durationSec": 0.49,
    "confidence": 0.925
  },
  {
    "pitch": 62,
    "pitchName": "D4",
    "startQl": 49.9237,
    "durationQl": 0.9812,
    "velocity": 85,
    "startSec": 25.09,
    "endSec": 25.57,
    "durationSec": 0.48,
    "confidence": 0.925
  },
  {
    "pitch": 52,
    "pitchName": "E3",
    "startQl": 50.9455,
    "durationQl": 0.9621,
    "velocity": 85,
    "startSec": 25.58,
    "endSec": 26.07,
    "durationSec": 0.49,
    "confidence": 0.925
  },
  {
    "pitch": 64,
    "pitchName": "E4",
    "startQl": 50.9455,
    "durationQl": 0.9416,
    "velocity": 90,
    "startSec": 25.59,
    "endSec": 26.07,
    "durationSec": 0.48,
    "confidence": 0.9625
  },
  {
    "pitch": 53,
    "pitchName": "F3",
    "startQl": 51.9267,
    "durationQl": 0.9804,
    "velocity": 85,
    "startSec": 26.08,
    "endSec": 26.56,
    "durationSec": 0.48,
    "confidence": 0.925
  },
  {
    "pitch": 65,
    "pitchName": "F4",
    "startQl": 51.9267,
    "durationQl": 0.9608,
    "velocity": 90,
    "startSec": 26.09,
    "endSec": 26.56,
    "durationSec": 0.47,
    "confidence": 0.9625
  },
  {
    "pitch": 57,
    "pitchName": "A3",
    "startQl": 52.9383,
    "durationQl": 0.962,
    "velocity": 80,
    "startSec": 26.58,
    "endSec": 27.07,
    "durationSec": 0.49,
    "confidence": 0.8875
  },
  {
    "pitch": 53,
    "pitchName": "F3",
    "startQl": 53.9297,
    "durationQl": 0.9397,
    "velocity": 85,
    "startSec": 27.08,
    "endSec": 27.56,
    "durationSec": 0.48,
    "confidence": 0.925
  },
  {
    "pitch": 65,
    "pitchName": "F4",
    "startQl": 53.9297,
    "durationQl": 0.9201,
    "velocity": 90,
    "startSec": 27.09,
    "endSec": 27.56,
    "durationSec": 0.47,
    "confidence": 0.9625
  },
  {
    "pitch": 57,
    "pitchName": "A3",
    "startQl": 54.8987,
    "durationQl": 1.0001,
    "velocity": 80,
    "startSec": 27.58,
    "endSec": 28.07,
    "durationSec": 0.49,
    "confidence": 0.8875
  },
  {
    "pitch": 48,
    "pitchName": "C3",
    "startQl": 55.9295,
    "durationQl": 0.9628,
    "velocity": 80,
    "startSec": 28.08,
    "endSec": 28.57,
    "durationSec": 0.49,
    "confidence": 0.8875
  },
  {
    "pitch": 60,
    "pitchName": "C4",
    "startQl": 55.9295,
    "durationQl": 0.9423,
    "velocity": 80,
    "startSec": 28.09,
    "endSec": 28.57,
    "durationSec": 0.48,
    "confidence": 0.8875
  },
  {
    "pitch": 48,
    "pitchName": "C3",
    "startQl": 56.9115,
    "durationQl": 1.0002,
    "velocity": 80,
    "startSec": 28.58,
    "endSec": 29.07,
    "durationSec": 0.49,
    "confidence": 0.8875
  },
  {
    "pitch": 60,
    "pitchName": "C4",
    "startQl": 56.9115,
    "durationQl": 0.9806,
    "velocity": 80,
    "startSec": 28.59,
    "endSec": 29.07,
    "durationSec": 0.48,
    "confidence": 0.8875
  },
  {
    "pitch": 50,
    "pitchName": "D3",
    "startQl": 57.9327,
    "durationQl": 0.9628,
    "velocity": 85,
    "startSec": 29.08,
    "endSec": 29.57,
    "durationSec": 0.49,
    "confidence": 0.925
  },
  {
    "pitch": 62,
    "pitchName": "D4",
    "startQl": 57.9327,
    "durationQl": 0.9423,
    "velocity": 85,
    "startSec": 29.09,
    "endSec": 29.57,
    "durationSec": 0.48,
    "confidence": 0.925
  },
  {
    "pitch": 52,
    "pitchName": "E3",
    "startQl": 58.9145,
    "durationQl": 0.9594,
    "velocity": 85,
    "startSec": 29.58,
    "endSec": 30.05,
    "durationSec": 0.47,
    "confidence": 0.925
  },
  {
    "pitch": 64,
    "pitchName": "E4",
    "startQl": 58.9145,
    "durationQl": 0.9603,
    "velocity": 90,
    "startSec": 29.59,
    "endSec": 30.06,
    "durationSec": 0.47,
    "confidence": 0.9625
  },
  {
    "pitch": 53,
    "pitchName": "F3",
    "startQl": 59.9359,
    "durationQl": 0.943,
    "velocity": 85,
    "startSec": 30.08,
    "endSec": 30.56,
    "durationSec": 0.48,
    "confidence": 0.925
  },
  {
    "pitch": 65,
    "pitchName": "F4",
    "startQl": 59.9359,
    "durationQl": 0.9225,
    "velocity": 90,
    "startSec": 30.09,
    "endSec": 30.56,
    "durationSec": 0.47,
    "confidence": 0.9625
  },
  {
    "pitch": 57,
    "pitchName": "A3",
    "startQl": 60.9078,
    "durationQl": 1.0005,
    "velocity": 80,
    "startSec": 30.58,
    "endSec": 31.07,
    "durationSec": 0.49,
    "confidence": 0.8875
  },
  {
    "pitch": 53,
    "pitchName": "F3",
    "startQl": 61.9391,
    "durationQl": 0.9624,
    "velocity": 85,
    "startSec": 31.08,
    "endSec": 31.57,
    "durationSec": 0.49,
    "confidence": 0.925
  },
  {
    "pitch": 65,
    "pitchName": "F4",
    "startQl": 61.9391,
    "durationQl": 0.9419,
    "velocity": 90,
    "startSec": 31.09,
    "endSec": 31.57,
    "durationSec": 0.48,
    "confidence": 0.9625
  },
  {
    "pitch": 57,
    "pitchName": "A3",
    "startQl": 62.9206,
    "durationQl": 0.9601,
    "velocity": 80,
    "startSec": 31.58,
    "endSec": 32.03,
    "durationSec": 0.45,
    "confidence": 0.8875
  },
  {
    "pitch": 60,
    "pitchName": "C4",
    "startQl": 62.9206,
    "durationQl": 0.9405,
    "velocity": 85,
    "startSec": 31.59,
    "endSec": 32.03,
    "durationSec": 0.44,
    "confidence": 0.925
  },
  {
    "pitch": 65,
    "pitchName": "F4",
    "startQl": 62.9206,
    "durationQl": 0.9405,
    "velocity": 70,
    "startSec": 31.59,
    "endSec": 32.03,
    "durationSec": 0.44,
    "confidence": 0.8125
  },
  {
    "pitch": 36,
    "pitchName": "C2",
    "startQl": 64.6676,
    "durationQl": 0.6171,
    "velocity": 45,
    "startSec": 32.4,
    "endSec": 32.68,
    "durationSec": 0.28,
    "confidence": 0.503
  },
  {
    "pitch": 57,
    "pitchName": "A3",
    "startQl": 64.9582,
    "durationQl": 0.2919,
    "velocity": 60,
    "startSec": 32.53,
    "endSec": 32.66,
    "durationSec": 0.13,
    "confidence": 0.5237
  },
  {
    "pitch": 36,
    "pitchName": "C2",
    "startQl": 65.4887,
    "durationQl": 0.6132,
    "velocity": 60,
    "startSec": 32.77,
    "endSec": 33.05,
    "durationSec": 0.28,
    "confidence": 0.6137
  },
  {
    "pitch": 60,
    "pitchName": "C4",
    "startQl": 67.3023,
    "durationQl": 0.323,
    "velocity": 45,
    "startSec": 33.69,
    "endSec": 33.84,
    "durationSec": 0.15,
    "confidence": 0.4257
  },
  {
    "pitch": 67,
    "pitchName": "G4",
    "startQl": 68.519,
    "durationQl": 0.3014,
    "velocity": 40,
    "startSec": 34.23,
    "endSec": 34.37,
    "durationSec": 0.14,
    "confidence": 0.3782
  },
  {
    "pitch": 67,
    "pitchName": "G4",
    "startQl": 70.7914,
    "durationQl": 0.3015,
    "velocity": 70,
    "startSec": 35.36,
    "endSec": 35.5,
    "durationSec": 0.14,
    "confidence": 0.6032
  },
  {
    "pitch": 69,
    "pitchName": "A4",
    "startQl": 71.502,
    "durationQl": 0.3445,
    "velocity": 65,
    "startSec": 35.69,
    "endSec": 35.85,
    "durationSec": 0.16,
    "confidence": 0.5858
  },
  {
    "pitch": 72,
    "pitchName": "C5",
    "startQl": 72.9526,
    "durationQl": 0.2728,
    "velocity": 80,
    "startSec": 36.43,
    "endSec": 36.56,
    "durationSec": 0.13,
    "confidence": 0.6648
  },
  {
    "pitch": 72,
    "pitchName": "C5",
    "startQl": 73.3331,
    "durationQl": 0.3014,
    "velocity": 65,
    "startSec": 36.61,
    "endSec": 36.75,
    "durationSec": 0.14,
    "confidence": 0.5657
  },
  {
    "pitch": 40,
    "pitchName": "E2",
    "startQl": 73.7422,
    "durationQl": 0.8182,
    "velocity": 45,
    "startSec": 36.8,
    "endSec": 37.18,
    "durationSec": 0.38,
    "confidence": 0.625
  },
  {
    "pitch": 52,
    "pitchName": "E3",
    "startQl": 73.7422,
    "durationQl": 0.8183,
    "velocity": 40,
    "startSec": 36.81,
    "endSec": 37.19,
    "durationSec": 0.38,
    "confidence": 0.5875
  },
  {
    "pitch": 69,
    "pitchName": "A4",
    "startQl": 73.7422,
    "durationQl": 0.3014,
    "velocity": 55,
    "startSec": 36.79,
    "endSec": 36.93,
    "durationSec": 0.14,
    "confidence": 0.4907
  },
  {
    "pitch": 67,
    "pitchName": "G4",
    "startQl": 74.5174,
    "durationQl": 0.323,
    "velocity": 40,
    "startSec": 37.16,
    "endSec": 37.31,
    "durationSec": 0.15,
    "confidence": 0.3882
  },
  {
    "pitch": 74,
    "pitchName": "D5",
    "startQl": 74.9911,
    "durationQl": 0.1884,
    "velocity": 70,
    "startSec": 37.38,
    "endSec": 37.48,
    "durationSec": 0.1,
    "confidence": 0.5504
  },
  {
    "pitch": 74,
    "pitchName": "D5",
    "startQl": 75.6664,
    "durationQl": 0.2621,
    "velocity": 85,
    "startSec": 37.74,
    "endSec": 37.88,
    "durationSec": 0.14,
    "confidence": 0.6973
  },
  {
    "pitch": 33,
    "pitchName": "A1",
    "startQl": 76.7468,
    "durationQl": 0.646,
    "velocity": 50,
    "startSec": 38.25,
    "endSec": 38.55,
    "durationSec": 0.3,
    "confidence": 0.494
  },
  {
    "pitch": 76,
    "pitchName": "E5",
    "startQl": 77.5112,
    "durationQl": 0.3015,
    "velocity": 70,
    "startSec": 38.62,
    "endSec": 38.76,
    "durationSec": 0.14,
    "confidence": 0.6032
  },
  {
    "pitch": 76,
    "pitchName": "E5",
    "startQl": 77.8342,
    "durationQl": 0.883,
    "velocity": 40,
    "startSec": 38.77,
    "endSec": 39.23,
    "durationSec": 0.46,
    "confidence": 0.5875
  },
  {
    "pitch": 79,
    "pitchName": "G5",
    "startQl": 78.6797,
    "durationQl": 0.2622,
    "velocity": 70,
    "startSec": 39.21,
    "endSec": 39.35,
    "durationSec": 0.14,
    "confidence": 0.5849
  },
  {
    "pitch": 76,
    "pitchName": "E5",
    "startQl": 79.0731,
    "durationQl": 0.4091,
    "velocity": 50,
    "startSec": 39.41,
    "endSec": 39.6,
    "durationSec": 0.19,
    "confidence": 0.5034
  },
  {
    "pitch": 79,
    "pitchName": "G5",
    "startQl": 79.8375,
    "durationQl": 0.2369,
    "velocity": 70,
    "startSec": 39.77,
    "endSec": 39.88,
    "durationSec": 0.11,
    "confidence": 0.5731
  },
  {
    "pitch": 62,
    "pitchName": "D4",
    "startQl": 80.1605,
    "durationQl": 0.8585,
    "velocity": 30,
    "startSec": 39.92,
    "endSec": 40.32,
    "durationSec": 0.4,
    "confidence": 0.55
  },
  {
    "pitch": 67,
    "pitchName": "G4",
    "startQl": 80.5374,
    "durationQl": 0.323,
    "velocity": 40,
    "startSec": 40.08,
    "endSec": 40.23,
    "durationSec": 0.15,
    "confidence": 0.3882
  },
  {
    "pitch": 76,
    "pitchName": "E5",
    "startQl": 80.5374,
    "durationQl": 0.2153,
    "velocity": 70,
    "startSec": 40.11,
    "endSec": 40.21,
    "durationSec": 0.1,
    "confidence": 0.563
  },
  {
    "pitch": 74,
    "pitchName": "D5",
    "startQl": 80.9788,
    "durationQl": 0.2087,
    "velocity": 70,
    "startSec": 40.3,
    "endSec": 40.41,
    "durationSec": 0.11,
    "confidence": 0.5599
  },
  {
    "pitch": 76,
    "pitchName": "E5",
    "startQl": 81.9552,
    "durationQl": 0.3163,
    "velocity": 75,
    "startSec": 40.82,
    "endSec": 40.97,
    "durationSec": 0.15,
    "confidence": 0.6476
  },
  {
    "pitch": 46,
    "pitchName": "B-2",
    "startQl": 83.3482,
    "durationQl": 0.5168,
    "velocity": 30,
    "startSec": 41.47,
    "endSec": 41.71,
    "durationSec": 0.24,
    "confidence": 0.4412
  },
  {
    "pitch": 69,
    "pitchName": "A4",
    "startQl": 85.3515,
    "durationQl": 0.2584,
    "velocity": 85,
    "startSec": 42.47,
    "endSec": 42.59,
    "durationSec": 0.12,
    "confidence": 0.6956
  },
  {
    "pitch": 67,
    "pitchName": "G4",
    "startQl": 85.7176,
    "durationQl": 0.3661,
    "velocity": 55,
    "startSec": 42.65,
    "endSec": 42.82,
    "durationSec": 0.17,
    "confidence": 0.5208
  },
  {
    "pitch": 74,
    "pitchName": "D5",
    "startQl": 86.988,
    "durationQl": 0.2263,
    "velocity": 70,
    "startSec": 43.23,
    "endSec": 43.35,
    "durationSec": 0.12,
    "confidence": 0.5681
  },
  {
    "pitch": 64,
    "pitchName": "E4",
    "startQl": 87.3266,
    "durationQl": 0.2622,
    "velocity": 70,
    "startSec": 43.41,
    "endSec": 43.55,
    "durationSec": 0.14,
    "confidence": 0.5849
  },
  {
    "pitch": 62,
    "pitchName": "D4",
    "startQl": 87.9445,
    "durationQl": 0.4365,
    "velocity": 65,
    "startSec": 43.74,
    "endSec": 43.92,
    "durationSec": 0.18,
    "confidence": 0.6287
  },
  {
    "pitch": 64,
    "pitchName": "E4",
    "startQl": 88.5076,
    "durationQl": 0.304,
    "velocity": 50,
    "startSec": 43.97,
    "endSec": 44.09,
    "durationSec": 0.12,
    "confidence": 0.4544
  },
  {
    "pitch": 64,
    "pitchName": "E4",
    "startQl": 88.837,
    "durationQl": 0.3307,
    "velocity": 40,
    "startSec": 44.1,
    "endSec": 44.25,
    "durationSec": 0.15,
    "confidence": 0.3918
  },
  {
    "pitch": 62,
    "pitchName": "D4",
    "startQl": 90.3764,
    "durationQl": 0.3446,
    "velocity": 75,
    "startSec": 44.86,
    "endSec": 45.02,
    "durationSec": 0.16,
    "confidence": 0.6608
  },
  {
    "pitch": 74,
    "pitchName": "D5",
    "startQl": 90.3764,
    "durationQl": 0.3014,
    "velocity": 70,
    "startSec": 44.87,
    "endSec": 45.01,
    "durationSec": 0.14,
    "confidence": 0.6032
  },
  {
    "pitch": 64,
    "pitchName": "E4",
    "startQl": 91.1409,
    "durationQl": 0.323,
    "velocity": 55,
    "startSec": 45.2,
    "endSec": 45.35,
    "durationSec": 0.15,
    "confidence": 0.5007
  },
  {
    "pitch": 64,
    "pitchName": "E4",
    "startQl": 91.5177,
    "durationQl": 0.323,
    "velocity": 65,
    "startSec": 45.38,
    "endSec": 45.53,
    "durationSec": 0.15,
    "confidence": 0.5757
  },
  {
    "pitch": 64,
    "pitchName": "E4",
    "startQl": 91.8407,
    "durationQl": 0.8161,
    "velocity": 40,
    "startSec": 45.53,
    "endSec": 45.97,
    "durationSec": 0.44,
    "confidence": 0.5875
  },
  {
    "pitch": 67,
    "pitchName": "G4",
    "startQl": 92.6029,
    "durationQl": 0.2872,
    "velocity": 40,
    "startSec": 45.94,
    "endSec": 46.1,
    "durationSec": 0.16,
    "confidence": 0.3715
  },
  {
    "pitch": 74,
    "pitchName": "D5",
    "startQl": 92.9977,
    "durationQl": 0.2059,
    "velocity": 70,
    "startSec": 46.16,
    "endSec": 46.27,
    "durationSec": 0.11,
    "confidence": 0.5586
  },
  {
    "pitch": 57,
    "pitchName": "A3",
    "startQl": 93.2223,
    "durationQl": 0.3371,
    "velocity": 45,
    "startSec": 46.28,
    "endSec": 46.46,
    "durationSec": 0.18,
    "confidence": 0.4323
  },
  {
    "pitch": 57,
    "pitchName": "A3",
    "startQl": 93.6343,
    "durationQl": 0.2808,
    "velocity": 50,
    "startSec": 46.5,
    "endSec": 46.65,
    "durationSec": 0.15,
    "confidence": 0.4435
  },
  {
    "pitch": 57,
    "pitchName": "A3",
    "startQl": 93.9526,
    "durationQl": 0.3589,
    "velocity": 65,
    "startSec": 46.67,
    "endSec": 46.84,
    "durationSec": 0.17,
    "confidence": 0.5925
  },
  {
    "pitch": 57,
    "pitchName": "A3",
    "startQl": 94.3331,
    "durationQl": 0.3445,
    "velocity": 35,
    "startSec": 46.85,
    "endSec": 47.01,
    "durationSec": 0.16,
    "confidence": 0.3608
  },
  {
    "pitch": 57,
    "pitchName": "A3",
    "startQl": 94.7099,
    "durationQl": 0.3445,
    "velocity": 70,
    "startSec": 47.03,
    "endSec": 47.19,
    "durationSec": 0.16,
    "confidence": 0.6233
  },
  {
    "pitch": 57,
    "pitchName": "A3",
    "startQl": 95.1513,
    "durationQl": 0.3445,
    "velocity": 45,
    "startSec": 47.23,
    "endSec": 47.39,
    "durationSec": 0.16,
    "confidence": 0.4358
  },
  {
    "pitch": 57,
    "pitchName": "A3",
    "startQl": 96.3293,
    "durationQl": 0.2434,
    "velocity": 70,
    "startSec": 47.8,
    "endSec": 47.93,
    "durationSec": 0.13,
    "confidence": 0.5761
  },
  {
    "pitch": 57,
    "pitchName": "A3",
    "startQl": 96.9285,
    "durationQl": 0.2907,
    "velocity": 55,
    "startSec": 48.12,
    "endSec": 48.26,
    "durationSec": 0.14,
    "confidence": 0.4857
  },
  {
    "pitch": 58,
    "pitchName": "B-3",
    "startQl": 97.3376,
    "durationQl": 0.323,
    "velocity": 65,
    "startSec": 48.31,
    "endSec": 48.46,
    "durationSec": 0.15,
    "confidence": 0.5757
  },
  {
    "pitch": 59,
    "pitchName": "B3",
    "startQl": 97.693,
    "durationQl": 0.323,
    "velocity": 60,
    "startSec": 48.49,
    "endSec": 48.64,
    "durationSec": 0.15,
    "confidence": 0.5382
  },
  {
    "pitch": 62,
    "pitchName": "D4",
    "startQl": 98.4789,
    "durationQl": 0.323,
    "velocity": 30,
    "startSec": 48.83,
    "endSec": 48.98,
    "durationSec": 0.15,
    "confidence": 0.3507
  },
  {
    "pitch": 67,
    "pitchName": "G4",
    "startQl": 98.4789,
    "durationQl": 0.323,
    "velocity": 35,
    "startSec": 48.86,
    "endSec": 49.01,
    "durationSec": 0.15,
    "confidence": 0.3507
  },
  {
    "pitch": 58,
    "pitchName": "B-3",
    "startQl": 99.5954,
    "durationQl": 0.2809,
    "velocity": 55,
    "startSec": 49.4,
    "endSec": 49.55,
    "durationSec": 0.15,
    "confidence": 0.4811
  },
  {
    "pitch": 59,
    "pitchName": "B3",
    "startQl": 102.2437,
    "durationQl": 0.2996,
    "velocity": 50,
    "startSec": 50.69,
    "endSec": 50.85,
    "durationSec": 0.16,
    "confidence": 0.4523
  },
  {
    "pitch": 52,
    "pitchName": "E3",
    "startQl": 103.6775,
    "durationQl": 0.3327,
    "velocity": 10,
    "startSec": 51.41,
    "endSec": 51.58,
    "durationSec": 0.17,
    "confidence": 0.3553
  }
]