[
  {
    "pitch": 33,
    "startQl": 0.0,
    "durationQl": 0.25,
    "velocity": 75,
    "confidence": 1.0,
    "hand": "lh"
  },
  {
    "pitch": 45,
    "startQl": 0.0,
    "durationQl": 0.25,
    "velocity": 75,
    "confidence": 1.0,
    "hand": "lh"
  },
  {
    "pitch": 48,
    "startQl": 0.0,
    "durationQl": 0.25,
    "velocity": 75,
    "confidence": 1.0,
    "hand": "lh"
  },
  {
    "pitch": 65,
    "startQl": 0.0,
    "durationQl": 0.25,
    "velocity": 81,
    "confidence": 1.0,
    "hand": "rh"
  },
  {
    "pitch": 69,
    "startQl": 0.0,
    "durationQl": 0.25,
    "velocity": 81,
    "confidence": 1.0,
    "hand": "rh"
  },
  {
    "pitch": 77,
    "startQl": 0.0,
    "durationQl": 0.25,
    "velocity": 81,
    "confidence": 1.0,
    "hand": "rh"
  },
  {
    "pitch": 33,
    "startQl": 0.25,
    "durationQl": 0.25,
    "velocity": 60,
    "confidence": 1.0,
    "hand": "lh"
  },
  {
    "pitch": 40,
    "startQl": 0.25,
    "durationQl": 0.25,
    "velocity": 60,
    "confidence": 1.0,
    "hand": "lh"
  },
  {
    "pitch": 45,
    "startQl": 0.25,
    "durationQl": 0.25,
    "velocity": 60,
    "confidence": 1.0,
    "hand": "lh"
  },
  {
    "pitch": 71,
    "startQl": 0.25,
    "durationQl": 0.25,
    "velocity": 78,
    "confidence": 1.0,
    "hand": "rh"
  },
  {
    "pitch": 74,
    "startQl": 0.25,
    "durationQl": 0.25,
    "velocity": 78,
    "confidence": 1.0,
    "hand": "rh"
  },
  {
    "pitch": 77,
    "startQl": 0.25,
    "durationQl": 0.25,
    "velocity": 78,
    "confidence": 1.0,
    "hand": "rh"
  },
  {
    "pitch": 79,
    "startQl": 0.25,
    "durationQl": 0.25,
    "velocity": 78,
    "confidence": 1.0,
    "hand": "rh"
  },
  {
    "pitch": 33,
    "startQl": 0.5,
    "durationQl": 0.25,
    "velocity": 65,
    "confidence": 1.0,
    "hand": "lh"
  },
  {
    "pitch": 35,
    "startQl": 0.5,
    "durationQl": 0.25,
    "velocity": 65,
    "confidence": 1.0,
    "hand": "lh"
  },
  {
    "pitch": 45,
    "startQl": 0.5,
    "durationQl": 0.25,
    "velocity": 65,
    "confidence": 1.0,
    "hand": "lh"
  },
  {
    "pitch": 62,
    "startQl": 0.5,
    "durationQl": 0.25,
    "velocity": 75,
    "confidence": 1.0,
    "hand": "rh"
  },
  {
    "pitch": 67,
    "startQl": 0.5,
    "durationQl": 0.25,
    "velocity": 75,
    "confidence": 1.0,
    "hand": "rh"
  },
  {
    "pitch": 74,
    "startQl": 0.5,
    "durationQl": 0.25,
    "velocity": 75,
    "confidence": 1.0,
    "hand": "rh"
  },
  {
    "pitch": 28,
    "startQl": 0.75,
    "durationQl": 0.25,
    "velocity": 58,
    "confidence": 1.0,
    "hand": "lh"
  },
  {
    "pitch": 48,
    "startQl": 0.75,
    "durationQl": 0.25,
    "velocity": 58,
    "confidence": 1.0,
    "hand": "lh"
  },
  {
    "pitch": 52,
    "startQl": 0.75,
    "durationQl": 0.25,
    "velocity": 58,
    "confidence": 1.0,
    "hand": "lh"
  },
  {
    "pitch": 67,
    "startQl": 0.75,
    "durationQl": 0.25,
    "velocity": 66,
    "confidence": 1.0,
    "hand": "rh"
  },
  {
    "pitch": 72,
    "startQl": 0.75,
    "durationQl": 0.25,
    "velocity": 66,
    "confidence": 1.0,
    "hand": "rh"
  },
  {
    "pitch": 74,
    "startQl": 0.75,
    "durationQl": 0.25,
    "velocity": 66,
    "confidence": 1.0,
    "hand": "rh"
  },
  {
    "pitch": 76,
    "startQl": 0.75,
    "durationQl": 0.25,
    "velocity": 66,
    "confidence": 1.0,
    "hand": "rh"
  },
  {
    "pitch": 31,
    "startQl": 1.0,
    "durationQl": 0.25,
    "velocity": 57,
    "confidence": 1.0,
    "hand": "lh"
  },
  {
    "pitch": 33,
    "startQl": 1.0,
    "durationQl": 0.25,
    "velocity": 57,
    "confidence": 1.0,
    "hand": "lh"
  },
  {
    "pitch": 35,
    "startQl": 1.0,
    "durationQl": 0.25,
    "velocity": 57,
    "confidence": 1.0,
    "hand": "lh"
  },
  {
    "pitch": 62,
    "startQl": 1.0,
    "durationQl": 0.25,
    "velocity": 87,
    "confidence": 1.0,
    "hand": "rh"
  },
  {
    "pitch": 65,
    "startQl": 1.0,
    "durationQl": 0.25,
    "velocity": 87,
    "confidence": 1.0,
    "hand": "rh"
  },
  {
    "pitch": 74,
    "startQl": 1.0,
    "durationQl": 0.25,
    "velocity": 87,
    "confidence": 1.0,
    "hand": "rh"
  },
  {
    "pitch": 33,
    "startQl": 1.25,
    "durationQl": 0.25,
    "velocity": 60,
    "confidence": 1.0,
    "hand": "lh"
  },
  {
    "pitch": 36,
    "startQl": 1.25,
    "durationQl": 0.25,
    "velocity": 60,
    "confidence": 1.0,
    "hand": "lh"
  },
  {
    "pitch": 40,
    "startQl": 1.25,
    "durationQl": 0.25,
    "velocity": 60,
    "confidence": 1.0,
    "hand": "lh"
  },
  {
    "pitch": 65,
    "startQl": 1.25,
    "durationQl": 0.25,
    "velocity": 70,
    "confidence": 1.0,
    "hand": "rh"
  },
  {
    "pitch": 69,
    "startQl": 1.25,
    "durationQl": 0.25,
    "velocity": 70,
    "confidence": 1.0,
    "hand": "rh"
  },
  {
    "pitch": 70,
    "startQl": 1.25,
    "durationQl": 0.25,
    "velocity": 70,
    "confidence": 1.0,
    "hand": "rh"
  },
  {
    "pitch": 74,
    "startQl": 1.25,
    "durationQl": 0.25,
    "velocity": 70,
    "confidence": 1.0,
    "hand": "rh"
  },
  {
    "pitch": 33,
    "startQl": 1.5,
    "durationQl": 0.25,
    "velocity": 61,
    "confidence": 1.0,
    "hand": "lh"
  },
  {
    "pitch": 34,
    "startQl": 1.5,
    "durationQl": 0.25,
    "velocity": 61,
    "confidence": 1.0,
    "hand": "lh"
  },
  {
    "pitch": 36,
    "startQl": 1.5,
    "durationQl": 0.25,
    "velocity": 61,
    "confidence": 1.0,
    "hand": "lh"
  },
  {
    "pitch": 65,
    "startQl": 1.5,
    "durationQl": 0.25,
    "velocity": 70,
    "confidence": 1.0,
    "hand": "rh"
  },
  {
    "pitch": 71,
    "startQl": 1.5,
    "durationQl": 0.25,
    "velocity": 70,
    "confidence": 1.0,
    "hand": "rh"
  },
  {
    "pitch": 72,
    "startQl": 1.5,
    "durationQl": 0.25,
    "velocity": 70,
    "confidence": 1.0,
    "hand": "rh"
  },
  {
    "pitch": 74,
    "startQl": 1.5,
    "durationQl": 0.25,
    "velocity": 70,
    "confidence": 1.0,
    "hand": "rh"
  },
  {
    "pitch": 33,
    "startQl": 1.75,
    "durationQl": 0.25,
    "velocity": 61,
    "confidence": 1.0,
    "hand": "lh"
  },
  {
    "pitch": 40,
    "startQl": 1.75,
    "durationQl": 0.25,
    "velocity": 61,
    "confidence": 1.0,
    "hand": "lh"
  },
  {
    "pitch": 45,
    "startQl": 1.75,
    "durationQl": 0.25,
    "velocity": 61,
    "confidence": 1.0,
    "hand": "lh"
  },
  {
    "pitch": 65,
    "startQl": 1.75,
    "durationQl": 0.25,
    "velocity": 74,
    "confidence": 1.0,
    "hand": "rh"
  },
  {
    "pitch": 67,
    "startQl": 1.75,
    "durationQl": 0.25,
    "velocity": 74,
    "confidence": 1.0,
    "hand": "rh"
  },
  {
    "pitch": 69,
    "startQl": 1.75,
    "durationQl": 0.25,
    "velocity": 74,
    "confidence": 1.0,
    "hand": "rh"
  },
  {
    "pitch": 72,
    "startQl": 1.75,
    "durationQl": 0.25,
    "velocity": 74,
    "confidence": 1.0,
    "hand": "rh"
  },
  {
    "pitch": 35,
    "startQl": 2.0,
    "durationQl": 0.25,
    "velocity": 65,
    "confidence": 1.0,
    "hand": "lh"
  },
  {
    "pitch": 45,
    "startQl": 2.0,
    "durationQl": 0.25,
    "velocity": 65,
    "confidence": 1.0,
    "hand": "lh"
  },
  {
    "pitch": 46,
    "startQl": 2.0,
    "durationQl": 0.25,
    "velocity": 65,
    "confidence": 1.0,
    "hand": "lh"
  },
  {
    "pitch": 65,
    "startQl": 2.0,
    "durationQl": 0.25,
    "velocity": 82,
    "confidence": 1.0,
    "hand": "rh"
  },
  {
    "pitch": 73,
    "startQl": 2.0,
    "durationQl": 0.25,
    "velocity": 82,
    "confidence": 1.0,
    "hand": "rh"
  },
  {
    "pitch": 76,
    "startQl": 2.0,
    "durationQl": 0.25,
    "velocity": 82,
    "confidence": 1.0,
    "hand": "rh"
  },
  {
    "pitch": 33,
    "startQl": 2.25,
    "durationQl": 0.5,
    "velocity": 63,
    "confidence": 1.0,
    "hand": "lh"
  },
  {
    "pitch": 35,
    "startQl": 2.25,
    "durationQl": 0.5,
    "velocity": 63,
    "confidence": 1.0,
    "hand": "lh"
  },
  {
    "pitch": 36,
    "startQl": 2.25,
    "durationQl": 0.5,
    "velocity": 63,
    "confidence": 1.0,
    "hand": "lh"
  },
  {
    "pitch": 69,
    "startQl": 2.25,
    "durationQl": 0.25,
    "velocity": 60,
    "confidence": 1.0,
    "hand": "rh"
  },
  {
    "pitch": 72,
    "startQl": 2.25,
    "durationQl": 0.25,
    "velocity": 60,
    "confidence": 1.0,
    "hand": "rh"
  },
  {
    "pitch": 74,
    "startQl": 2.25,
    "durationQl": 0.25,
    "velocity": 60,
    "confidence": 1.0,
    "hand": "rh"
  },
  {
    "pitch": 76,
    "startQl": 2.25,
    "durationQl": 0.25,
    "velocity": 60,
    "confidence": 1.0,
    "hand": "rh"
  },
  {
    "pitch": 65,
    "startQl": 2.5,
    "durationQl": 0.25,
    "velocity": 63,
    "confidence": 1.0,
    "hand": "rh"
  },
  {
    "pitch": 67,
    "startQl": 2.5,
    "durationQl": 0.25,
    "velocity": 63,
    "confidence": 1.0,
    "hand": "rh"
  },
  {
    "pitch": 69,
    "startQl": 2.5,
    "durationQl": 0.25,
    "velocity": 63,
    "confidence": 1.0,
    "hand": "rh"
  },
  {
    "pitch": 76,
    "startQl": 2.5,
    "durationQl": 0.25,
    "velocity": 63,
    "confidence": 1.0,
    "hand": "rh"
  },
  {
    "pitch": 36,
    "startQl": 2.75,
    "durationQl": 0.25,
    "velocity": 64,
    "confidence": 1.0,
    "hand": "lh"
  },
  {
    "pitch": 40,
    "startQl": 2.75,
    "durationQl": 0.25,
    "velocity": 64,
    "confidence": 1.0,
    "hand": "lh"
  },
  {
    "pitch": 48,
    "startQl": 2.75,
    "durationQl": 0.25,
    "velocity": 64,
    "confidence": 1.0,
    "hand": "lh"
  },
  {
    "pitch": 65,
    "startQl": 2.75,
    "durationQl": 0.25,
    "velocity": 82,
    "confidence": 1.0,
    "hand": "rh"
  },
  {
    "pitch": 66,
    "startQl": 2.75,
    "durationQl": 0.25,
    "velocity": 82,
    "confidence": 1.0,
    "hand": "rh"
  },
  {
    "pitch": 76,
    "startQl": 2.75,
    "durationQl": 0.25,
    "velocity": 82,
    "confidence": 1.0,
    "hand": "rh"
  },
  {
    "pitch": 77,
    "startQl": 2.75,
    "durationQl": 0.25,
    "velocity": 82,
    "confidence": 1.0,
    "hand": "rh"
  },
  {
    "pitch": 35,
    "startQl": 3.0,
    "durationQl": 0.25,
    "velocity": 76,
    "confidence": 1.0,
    "hand": "lh"
  },
  {
    "pitch": 48,
    "startQl": 3.0,
    "durationQl": 0.25,
    "velocity": 76,
    "confidence": 1.0,
    "hand": "lh"
  },
  {
    "pitch": 50,
    "startQl": 3.0,
    "durationQl": 0.25,
    "velocity": 76,
    "confidence": 1.0,
    "hand": "lh"
  },
  {
    "pitch": 67,
    "startQl": 3.0,
    "durationQl": 0.25,
    "velocity": 71,
    "confidence": 1.0,
    "hand": "rh"
  },
  {
    "pitch": 74,
    "startQl": 3.0,
    "durationQl": 0.25,
    "velocity": 71,
    "confidence": 1.0,
    "hand": "rh"
  },
  {
    "pitch": 77,
    "startQl": 3.0,
    "durationQl": 0.25,
    "velocity": 71,
    "confidence": 1.0,
    "hand": "rh"
  },
  {
    "pitch": 79,
    "startQl": 3.0,
    "durationQl": 0.25,
    "velocity": 71,
    "confidence": 1.0,
    "hand": "rh"
  },
  {
    "pitch": 33,
    "startQl": 3.25,
    "durationQl": 0.25,
    "velocity": 52,
    "confidence": 1.0,
    "hand": "lh"
  },
  {
    "pitch": 35,
    "startQl": 3.25,
    "durationQl": 0.25,
    "velocity": 52,
    "confidence": 1.0,
    "hand": "lh"
  },
  {
    "pitch": 36,
    "startQl": 3.25,
    "durationQl": 0.25,
    "velocity": 52,
    "confidence": 1.0,
    "hand": "lh"
  },
  {
    "pitch": 67,
    "startQl": 3.25,
    "durationQl": 0.25,
    "velocity": 61,
    "confidence": 1.0,
    "hand": "rh"
  },
  {
    "pitch": 70,
    "startQl": 3.25,
    "durationQl": 0.25,
    "velocity": 61,
    "confidence": 1.0,
    "hand": "rh"
  },
  {
    "pitch": 77,
    "startQl": 3.25,
    "durationQl": 0.25,
    "velocity": 61,
    "confidence": 1.0,
    "hand": "rh"
  },
  {
    "pitch": 79,
    "startQl": 3.25,
    "durationQl": 0.25,
    "velocity": 61,
    "confidence": 1.0,
    "hand": "rh"
  },
  {
    "pitch": 35,
    "startQl": 3.5,
    "durationQl": 0.25,
    "velocity": 65,
    "confidence": 1.0,
    "hand": "lh"
  },
  {
    "pitch": 40,
    "startQl": 3.5,
    "durationQl": 0.25,
    "velocity": 65,
    "confidence": 1.0,
    "hand": "lh"
  },
  {
    "pitch": 48,
    "startQl": 3.5,
    "durationQl": 0.25,
    "velocity": 65,
    "confidence": 1.0,
    "hand": "lh"
  },
  {
    "pitch": 70,
    "startQl": 3.5,
    "durationQl": 0.25,
    "velocity": 62,
    "confidence": 1.0,
    "hand": "rh"
  },
  {
    "pitch": 74,
    "startQl": 3.5,
    "durationQl": 0.25,
    "velocity": 62,
    "confidence": 1.0,
    "hand": "rh"
  },
  {
    "pitch": 76,
    "startQl": 3.5,
    "durationQl": 0.25,
    "velocity": 62,
    "confidence": 1.0,
    "hand": "rh"
  },
  {
    "pitch": 77,
    "startQl": 3.5,
    "durationQl": 0.25,
    "velocity": 62,
    "confidence": 1.0,
    "hand": "rh"
  },
  {
    "pitch": 35,
    "startQl": 3.75,
    "durationQl": 0.25,
    "velocity": 56,
    "confidence": 1.0,
    "hand": "lh"
  },
  {
    "pitch": 40,
    "startQl": 3.75,
    "durationQl": 0.25,
    "velocity": 56,
    "confidence": 1.0,
    "hand": "lh"
  },
  {
    "pitch": 45,
    "startQl": 3.75,
    "durationQl": 0.25,
    "velocity": 56,
    "confidence": 1.0,
    "hand": "lh"
  },
  {
    "pitch": 65,
    "startQl": 3.75,
    "durationQl": 0.25,
    "velocity": 78,
    "confidence": 1.0,
    "hand": "rh"
  },
  {
    "pitch": 67,
    "startQl": 3.75,
    "durationQl": 0.25,
    "velocity": 78,
    "confidence": 1.0,
    "hand": "rh"
  },
  {
    "pitch": 77,
    "startQl": 3.75,
    "durationQl": 0.25,
    "velocity": 78,
    "confidence": 1.0,
    "hand": "rh"
  }
]