[
  {
    "pitch": 33,
    "startQl": 0.0,
    "durationQl": 0.3333333333333333,
    "velocity": 51
  },
  {
    "pitch": 33,
    "startQl": 0.0,
    "durationQl": 0.25,
    "velocity": 55
  },
  {
    "pitch": 40,
    "startQl": 0.0,
    "durationQl": 0.25,
    "velocity": 58
  },
  {
    "pitch": 45,
    "startQl": 0.0,
    "durationQl": 0.3333333333333333,
    "velocity": 51
  },
  {
    "pitch": 45,
    "startQl": 0.0,
    "durationQl": 0.25,
    "velocity": 55
  },
  {
    "pitch": 48,
    "startQl": 0.0,
    "durationQl": 0.75,
    "velocity": 90
  },
  {
    "pitch": 48,
    "startQl": 0.0,
    "durationQl": 0.5,
    "velocity": 90
  },
  {
    "pitch": 48,
    "startQl": 0.0,
    "durationQl": 0.75,
    "velocity": 85
  },
  {
    "pitch": 48,
    "startQl": 0.0,
    "durationQl": 0.5,
    "velocity": 85
  },
  {
    "pitch": 48,
    "startQl": 0.0,
    "durationQl": 0.5,
    "velocity": 88
  },
  {
    "pitch": 52,
    "startQl": 0.0,
    "durationQl": 0.75,
    "velocity": 92
  },
  {
    "pitch": 52,
    "startQl": 0.0,
    "durationQl": 0.75,
    "velocity": 92
  },
  {
    "pitch": 52,
    "startQl": 0.0,
    "durationQl": 0.75,
    "velocity": 92
  },
  {
    "pitch": 52,
    "startQl": 0.0,
    "durationQl": 0.75,
    "velocity": 92
  },
  {
    "pitch": 52,
    "startQl": 0.0,
    "durationQl": 0.25,
    "velocity": 58
  },
  {
    "pitch": 52,
    "startQl": 0.0,
    "durationQl": 0.25,
    "velocity": 40
  },
  {
    "pitch": 53,
    "startQl": 0.0,
    "durationQl": 0.75,
    "velocity": 87
  },
  {
    "pitch": 57,
    "startQl": 0.0,
    "durationQl": 0.5,
    "velocity": 86
  },
  {
    "pitch": 57,
    "startQl": 0.0,
    "durationQl": 0.75,
    "velocity": 85
  },
  {
    "pitch": 57,
    "startQl": 0.0,
    "durationQl": 0.75,
    "velocity": 85
  },
  {
    "pitch": 57,
    "startQl": 0.0,
    "durationQl": 0.75,
    "velocity": 85
  },
  {
    "pitch": 57,
    "startQl": 0.0,
    "durationQl": 0.75,
    "velocity": 85
  },
  {
    "pitch": 57,
    "startQl": 0.0,
    "durationQl": 0.75,
    "velocity": 85
  },
  {
    "pitch": 57,
    "startQl": 0.0,
    "durationQl": 0.75,
    "velocity": 87
  },
  {
    "pitch": 57,
    "startQl": 0.0,
    "durationQl": 0.25,
    "velocity": 60
  },
  {
    "pitch": 60,
    "startQl": 0.0,
    "durationQl": 0.75,
    "velocity": 90
  },
  {
    "pitch": 60,
    "startQl": 0.0,
    "durationQl": 0.5,
    "velocity": 90
  },
  {
    "pitch": 60,
    "startQl": 0.0,
    "durationQl": 0.75,
    "velocity": 85
  },
  {
    "pitch": 60,
    "startQl": 0.0,
    "durationQl": 0.5,
    "velocity": 85
  },
  {
    "pitch": 60,
    "startQl": 0.0,
    "durationQl": 0.5,
    "velocity": 86
  },
  {
    "pitch": 60,
    "startQl": 0.0,
    "durationQl": 0.75,
    "velocity": 85
  },
  {
    "pitch": 60,
    "startQl": 0.0,
    "durationQl": 0.75,
    "velocity": 85
  },
  {
    "pitch": 60,
    "startQl": 0.0,
    "durationQl": 0.75,
    "velocity": 85
  },
  {
    "pitch": 60,
    "startQl": 0.0,
    "durationQl": 0.75,
    "velocity": 85
  },
  {
    "pitch": 60,
    "startQl": 0.0,
    "durationQl": 0.75,
    "velocity": 87
  },
  {
    "pitch": 60,
    "startQl": 0.0,
    "durationQl": 0.3333333333333333,
    "velocity": 38
  },
  {
    "pitch": 64,
    "startQl": 0.0,
    "durationQl": 0.75,
    "velocity": 92
  },
  {
    "pitch": 64,
    "startQl": 0.0,
    "durationQl": 0.75,
    "velocity": 92
  },
  {
    "pitch": 64,
    "startQl": 0.0,
    "durationQl": 0.75,
    "velocity": 92
  },
  {
    "pitch": 64,
    "startQl": 0.0,
    "durationQl": 0.75,
    "velocity": 92
  },
  {
    "pitch": 64,
    "startQl": 0.0,
    "durationQl": 0.3333333333333333,
    "velocity": 38
  },
  {
    "pitch": 64,
    "startQl": 0.0,
    "durationQl": 0.3333333333333333,
    "velocity": 38
  },
  {
    "pitch": 64,
    "startQl": 0.0,
    "durationQl": 0.3333333333333333,
    "velocity": 51
  },
  {
    "pitch": 64,
    "startQl": 0.0,
    "durationQl": 0.3333333333333333,
    "velocity": 51
  },
  {
    "pitch": 64,
    "startQl": 0.0,
    "durationQl": 0.25,
    "velocity": 65
  },
  {
    "pitch": 65,
    "startQl": 0.0,
    "durationQl": 0.5,
    "velocity": 88
  },
  {
    "pitch": 65,
    "startQl": 0.0,
    "durationQl": 0.5,
    "velocity": 86
  },
  {
    "pitch": 69,
    "startQl": 0.0,
    "durationQl": 0.3333333333333333,
    "velocity": 70
  },
  {
    "pitch": 77,
    "startQl": 0.0,
    "durationQl": 0.5,
    "velocity": 86
  },
  {
    "pitch": 33,
    "startQl": 0.25,
    "durationQl": 0.25,
    "velocity": 67
  },
  {
    "pitch": 45,
    "startQl": 0.25,
    "durationQl": 0.25,
    "velocity": 67
  },
  {
    "pitch": 57,
    "startQl": 0.25,
    "durationQl": 0.3333333333333333,
    "velocity": 75
  },
  {
    "pitch": 58,
    "startQl": 0.25,
    "durationQl": 0.25,
    "velocity": 67
  },
  {
    "pitch": 59,
    "startQl": 0.25,
    "durationQl": 0.25,
    "velocity": 68
  },
  {
    "pitch": 62,
    "startQl": 0.25,
    "durationQl": 0.3333333333333333,
    "velocity": 60
  },
  {
    "pitch": 71,
    "startQl": 0.25,
    "durationQl": 0.25,
    "velocity": 68
  },
  {
    "pitch": 74,
    "startQl": 0.25,
    "durationQl": 0.25,
    "velocity": 90
  },
  {
    "pitch": 74,
    "startQl": 0.25,
    "durationQl": 0.3333333333333333,
    "velocity": 60
  },
  {
    "pitch": 79,
    "startQl": 0.25,
    "durationQl": 0.25,
    "velocity": 70
  },
  {
    "pitch": 33,
    "startQl": 0.3333333333333333,
    "durationQl": 0.25,
    "velocity": 51
  },
  {
    "pitch": 33,
    "startQl": 0.3333333333333333,
    "durationQl": 0.3333333333333333,
    "velocity": 52
  },
  {
    "pitch": 40,
    "startQl": 0.3333333333333333,
    "durationQl": 0.3333333333333333,
    "velocity": 47
  },
  {
    "pitch": 45,
    "startQl": 0.3333333333333333,
    "durationQl": 0.25,
    "velocity": 51
  },
  {
    "pitch": 45,
    "startQl": 0.3333333333333333,
    "durationQl": 0.3333333333333333,
    "velocity": 52
  },
  {
    "pitch": 58,
    "startQl": 0.3333333333333333,
    "durationQl": 0.3333333333333333,
    "velocity": 52
  },
  {
    "pitch": 59,
    "startQl": 0.3333333333333333,
    "durationQl": 0.3333333333333333,
    "velocity": 47
  },
  {
    "pitch": 62,
    "startQl": 0.3333333333333333,
    "durationQl": 0.25,
    "velocity": 51
  },
  {
    "pitch": 64,
    "startQl": 0.3333333333333333,
    "durationQl": 0.3333333333333333,
    "velocity": 47
  },
  {
    "pitch": 64,
    "startQl": 0.3333333333333333,
    "durationQl": 0.25,
    "velocity": 51
  },
  {
    "pitch": 64,
    "startQl": 0.3333333333333333,
    "durationQl": 0.3333333333333333,
    "velocity": 52
  },
  {
    "pitch": 64,
    "startQl": 0.3333333333333333,
    "durationQl": 0.3333333333333333,
    "velocity": 52
  },
  {
    "pitch": 33,
    "startQl": 0.5,
    "durationQl": 0.25,
    "velocity": 50
  },
  {
    "pitch": 35,
    "startQl": 0.5,
    "durationQl": 0.25,
    "velocity": 60
  },
  {
    "pitch": 45,
    "startQl": 0.5,
    "durationQl": 0.25,
    "velocity": 50
  },
  {
    "pitch": 52,
    "startQl": 0.5,
    "durationQl": 0.25,
    "velocity": 40
  },
  {
    "pitch": 57,
    "startQl": 0.5,
    "durationQl": 0.25,
    "velocity": 40
  },
  {
    "pitch": 62,
    "startQl": 0.5,
    "durationQl": 0.3333333333333333,
    "velocity": 35
  },
  {
    "pitch": 64,
    "startQl": 0.5,
    "durationQl": 0.25,
    "velocity": 35
  },
  {
    "pitch": 64,
    "startQl": 0.5,
    "durationQl": 0.25,
    "velocity": 35
  },
  {
    "pitch": 67,
    "startQl": 0.5,
    "durationQl": 0.25,
    "velocity": 40
  },
  {
    "pitch": 74,
    "startQl": 0.5,
    "durationQl": 0.25,
    "velocity": 60
  },
  {
    "pitch": 60,
    "startQl": 0.6666666666666666,
    "durationQl": 0.3333333333333333,
    "velocity": 38
  },
  {
    "pitch": 60,
    "startQl": 0.6666666666666666,
    "durationQl": 0.3333333333333333,
    "velocity": 38
  },
  {
    "pitch": 64,
    "startQl": 0.6666666666666666,
    "durationQl": 0.3333333333333333,
    "velocity": 30
  },
  {
    "pitch": 64,
    "startQl": 0.6666666666666666,
    "durationQl": 0.3333333333333333,
    "velocity": 30
  },
  {
    "pitch": 64,
    "startQl": 0.6666666666666666,
    "durationQl": 0.3333333333333333,
    "velocity": 50
  },
  {
    "pitch": 74,
    "startQl": 0.6666666666666666,
    "durationQl": 0.25,
    "velocity": 35
  },
  {
    "pitch": 28,
    "startQl": 0.75,
    "durationQl": 0.25,
    "velocity": 45
  },
  {
    "pitch": 48,
    "startQl": 0.75,
    "durationQl": 1.0,
    "velocity": 85
  },
  {
    "pitch": 48,
    "startQl": 0.75,
    "durationQl": 1.0,
    "velocity": 85
  },
  {
    "pitch": 48,
    "startQl": 0.75,
    "durationQl": 1.0,
    "velocity": 85
  },
  {
    "pitch": 48,
    "startQl": 0.75,
    "durationQl": 1.0,
    "velocity": 85
  },
  {
    "pitch": 52,
    "startQl": 0.75,
    "durationQl": 0.25,
    "velocity": 45
  },
  {
    "pitch": 53,
    "startQl": 0.75,
    "durationQl": 2.0,
    "velocity": 95
  },
  {
    "pitch": 53,
    "startQl": 0.75,
    "durationQl": 2.0,
    "velocity": 90
  },
  {
    "pitch": 53,
    "startQl": 0.75,
    "durationQl": 2.0,
    "velocity": 90
  },
  {
    "pitch": 53,
    "startQl": 0.75,
    "durationQl": 1.75,
    "velocity": 92
  },
  {
    "pitch": 53,
    "startQl": 0.75,
    "durationQl": 1.75,
    "velocity": 92
  },
  {
    "pitch": 53,
    "startQl": 0.75,
    "durationQl": 1.0,
    "velocity": 92
  },
  {
    "pitch": 53,
    "startQl": 0.75,
    "durationQl": 1.0,
    "velocity": 88
  },
  {
    "pitch": 53,
    "startQl": 0.75,
    "durationQl": 1.0,
    "velocity": 92
  },
  {
    "pitch": 53,
    "startQl": 0.75,
    "durationQl": 1.0,
    "velocity": 88
  },
  {
    "pitch": 53,
    "startQl": 0.75,
    "durationQl": 1.0,
    "velocity": 92
  },
  {
    "pitch": 53,
    "startQl": 0.75,
    "durationQl": 1.0,
    "velocity": 92
  },
  {
    "pitch": 60,
    "startQl": 0.75,
    "durationQl": 1.0,
    "velocity": 85
  },
  {
    "pitch": 60,
    "startQl": 0.75,
    "durationQl": 1.0,
    "velocity": 85
  },
  {
    "pitch": 60,
    "startQl": 0.75,
    "durationQl": 1.0,
    "velocity": 85
  },
  {
    "pitch": 60,
    "startQl": 0.75,
    "durationQl": 1.0,
    "velocity": 85
  },
  {
    "pitch": 62,
    "startQl": 0.75,
    "durationQl": 1.0,
    "velocity": 95
  },
  {
    "pitch": 62,
    "startQl": 0.75,
    "durationQl": 1.0,
    "velocity": 85
  },
  {
    "pitch": 62,
    "startQl": 0.75,
    "durationQl": 1.0,
    "velocity": 88
  },
  {
    "pitch": 62,
    "startQl": 0.75,
    "durationQl": 1.0,
    "velocity": 88
  },
  {
    "pitch": 64,
    "startQl": 0.75,
    "durationQl": 0.25,
    "velocity": 45
  },
  {
    "pitch": 65,
    "startQl": 0.75,
    "durationQl": 1.0,
    "velocity": 95
  },
  {
    "pitch": 65,
    "startQl": 0.75,
    "durationQl": 1.75,
    "velocity": 92
  },
  {
    "pitch": 65,
    "startQl": 0.75,
    "durationQl": 1.75,
    "velocity": 92
  },
  {
    "pitch": 65,
    "startQl": 0.75,
    "durationQl": 1.0,
    "velocity": 92
  },
  {
    "pitch": 65,
    "startQl": 0.75,
    "durationQl": 1.0,
    "velocity": 92
  },
  {
    "pitch": 65,
    "startQl": 0.75,
    "durationQl": 1.0,
    "velocity": 92
  },
  {
    "pitch": 65,
    "startQl": 0.75,
    "durationQl": 1.0,
    "velocity": 92
  },
  {
    "pitch": 67,
    "startQl": 0.75,
    "durationQl": 0.25,
    "velocity": 65
  },
  {
    "pitch": 67,
    "startQl": 0.75,
    "durationQl": 0.25,
    "velocity": 58
  },
  {
    "pitch": 72,
    "startQl": 0.75,
    "durationQl": 0.25,
    "velocity": 50
  },
  {
    "pitch": 72,
    "startQl": 0.75,
    "durationQl": 0.25,
    "velocity": 50
  },
  {
    "pitch": 76,
    "startQl": 0.75,
    "durationQl": 0.25,
    "velocity": 58
  },
  {
    "pitch": 31,
    "startQl": 1.0,
    "durationQl": 0.3333333333333333,
    "velocity": 45
  },
  {
    "pitch": 33,
    "startQl": 1.0,
    "durationQl": 0.3333333333333333,
    "velocity": 40
  },
  {
    "pitch": 35,
    "startQl": 1.0,
    "durationQl": 0.25,
    "velocity": 63
  },
  {
    "pitch": 48,
    "startQl": 1.0,
    "durationQl": 0.25,
    "velocity": 61
  },
  {
    "pitch": 52,
    "startQl": 1.0,
    "durationQl": 0.25,
    "velocity": 61
  },
  {
    "pitch": 53,
    "startQl": 1.0,
    "durationQl": 2.0,
    "velocity": 95
  },
  {
    "pitch": 57,
    "startQl": 1.0,
    "durationQl": 0.25,
    "velocity": 61
  },
  {
    "pitch": 57,
    "startQl": 1.0,
    "durationQl": 0.25,
    "velocity": 63
  },
  {
    "pitch": 57,
    "startQl": 1.0,
    "durationQl": 0.3333333333333333,
    "velocity": 40
  },
  {
    "pitch": 62,
    "startQl": 1.0,
    "durationQl": 0.25,
    "velocity": 61
  },
  {
    "pitch": 64,
    "startQl": 1.0,
    "durationQl": 0.3333333333333333,
    "velocity": 45
  },
  {
    "pitch": 64,
    "startQl": 1.0,
    "durationQl": 0.3333333333333333,
    "velocity": 45
  },
  {
    "pitch": 64,
    "startQl": 1.0,
    "durationQl": 0.3333333333333333,
    "velocity": 45
  },
  {
    "pitch": 64,
    "startQl": 1.0,
    "durationQl": 0.25,
    "velocity": 15
  },
  {
    "pitch": 64,
    "startQl": 1.0,
    "durationQl": 0.25,
    "velocity": 15
  },
  {
    "pitch": 64,
    "startQl": 1.0,
    "durationQl": 0.25,
    "velocity": 50
  },
  {
    "pitch": 64,
    "startQl": 1.0,
    "durationQl": 0.25,
    "velocity": 63
  },
  {
    "pitch": 65,
    "startQl": 1.0,
    "durationQl": 1.0,
    "velocity": 95
  },
  {
    "pitch": 74,
    "startQl": 1.0,
    "durationQl": 0.25,
    "velocity": 70
  },
  {
    "pitch": 33,
    "startQl": 1.25,
    "durationQl": 0.6666666666666666,
    "velocity": 50
  },
  {
    "pitch": 33,
    "startQl": 1.25,
    "durationQl": 0.25,
    "velocity": 39
  },
  {
    "pitch": 33,
    "startQl": 1.25,
    "durationQl": 0.25,
    "velocity": 58
  },
  {
    "pitch": 36,
    "startQl": 1.25,
    "durationQl": 0.25,
    "velocity": 58
  },
  {
    "pitch": 40,
    "startQl": 1.25,
    "durationQl": 0.3333333333333333,
    "velocity": 55
  },
  {
    "pitch": 45,
    "startQl": 1.25,
    "durationQl": 0.25,
    "velocity": 39
  },
  {
    "pitch": 45,
    "startQl": 1.25,
    "durationQl": 0.25,
    "velocity": 58
  },
  {
    "pitch": 48,
    "startQl": 1.25,
    "durationQl": 0.25,
    "velocity": 58
  },
  {
    "pitch": 57,
    "startQl": 1.25,
    "durationQl": 0.3333333333333333,
    "velocity": 55
  },
  {
    "pitch": 58,
    "startQl": 1.25,
    "durationQl": 0.3333333333333333,
    "velocity": 65
  },
  {
    "pitch": 62,
    "startQl": 1.25,
    "durationQl": 0.25,
    "velocity": 45
  },
  {
    "pitch": 62,
    "startQl": 1.25,
    "durationQl": 0.25,
    "velocity": 58
  },
  {
    "pitch": 64,
    "startQl": 1.25,
    "durationQl": 0.25,
    "velocity": 39
  },
  {
    "pitch": 64,
    "startQl": 1.25,
    "durationQl": 0.25,
    "velocity": 39
  },
  {
    "pitch": 64,
    "startQl": 1.25,
    "durationQl": 0.25,
    "velocity": 58
  },
  {
    "pitch": 69,
    "startQl": 1.25,
    "durationQl": 0.25,
    "velocity": 50
  },
  {
    "pitch": 70,
    "startQl": 1.25,
    "durationQl": 0.3333333333333333,
    "velocity": 65
  },
  {
    "pitch": 74,
    "startQl": 1.25,
    "durationQl": 0.25,
    "velocity": 65
  },
  {
    "pitch": 74,
    "startQl": 1.25,
    "durationQl": 0.25,
    "velocity": 70
  },
  {
    "pitch": 36,
    "startQl": 1.3333333333333333,
    "durationQl": 0.3333333333333333,
    "velocity": 48
  },
  {
    "pitch": 55,
    "startQl": 1.3333333333333333,
    "durationQl": 0.3333333333333333,
    "velocity": 48
  },
  {
    "pitch": 57,
    "startQl": 1.3333333333333333,
    "durationQl": 0.3333333333333333,
    "velocity": 60
  },
  {
    "pitch": 64,
    "startQl": 1.3333333333333333,
    "durationQl": 0.3333333333333333,
    "velocity": 48
  },
  {
    "pitch": 64,
    "startQl": 1.3333333333333333,
    "durationQl": 0.3333333333333333,
    "velocity": 48
  },
  {
    "pitch": 33,
    "startQl": 1.5,
    "durationQl": 0.25,
    "velocity": 62
  },
  {
    "pitch": 34,
    "startQl": 1.5,
    "durationQl": 0.25,
    "velocity": 64
  },
  {
    "pitch": 40,
    "startQl": 1.5,
    "durationQl": 0.25,
    "velocity": 60
  },
  {
    "pitch": 45,
    "startQl": 1.5,
    "durationQl": 0.25,
    "velocity": 62
  },
  {
    "pitch": 46,
    "startQl": 1.5,
    "durationQl": 0.25,
    "velocity": 64
  },
  {
    "pitch": 58,
    "startQl": 1.5,
    "durationQl": 0.25,
    "velocity": 64
  },
  {
    "pitch": 62,
    "startQl": 1.5,
    "durationQl": 0.25,
    "velocity": 52
  },
  {
    "pitch": 64,
    "startQl": 1.5,
    "durationQl": 0.25,
    "velocity": 64
  },
  {
    "pitch": 64,
    "startQl": 1.5,
    "durationQl": 0.25,
    "velocity": 64
  },
  {
    "pitch": 64,
    "startQl": 1.5,
    "durationQl": 0.25,
    "velocity": 62
  },
  {
    "pitch": 64,
    "startQl": 1.5,
    "durationQl": 0.25,
    "velocity": 20
  },
  {
    "pitch": 64,
    "startQl": 1.5,
    "durationQl": 0.25,
    "velocity": 52
  },
  {
    "pitch": 71,
    "startQl": 1.5,
    "durationQl": 0.25,
    "velocity": 60
  },
  {
    "pitch": 72,
    "startQl": 1.5,
    "durationQl": 0.25,
    "velocity": 62
  },
  {
    "pitch": 74,
    "startQl": 1.5,
    "durationQl": 0.25,
    "velocity": 62
  },
  {
    "pitch": 74,
    "startQl": 1.5,
    "durationQl": 0.25,
    "velocity": 32
  },
  {
    "pitch": 74,
    "startQl": 1.5,
    "durationQl": 0.25,
    "velocity": 32
  },
  {
    "pitch": 40,
    "startQl": 1.6666666666666667,
    "durationQl": 0.3333333333333333,
    "velocity": 58
  },
  {
    "pitch": 45,
    "startQl": 1.6666666666666667,
    "durationQl": 0.25,
    "velocity": 50
  },
  {
    "pitch": 50,
    "startQl": 1.6666666666666667,
    "durationQl": 0.25,
    "velocity": 50
  },
  {
    "pitch": 52,
    "startQl": 1.6666666666666667,
    "durationQl": 0.3333333333333333,
    "velocity": 58
  },
  {
    "pitch": 52,
    "startQl": 1.6666666666666667,
    "durationQl": 0.25,
    "velocity": 50
  },
  {
    "pitch": 57,
    "startQl": 1.6666666666666667,
    "durationQl": 0.3333333333333333,
    "velocity": 46
  },
  {
    "pitch": 57,
    "startQl": 1.6666666666666667,
    "durationQl": 0.3333333333333333,
    "velocity": 60
  },
  {
    "pitch": 59,
    "startQl": 1.6666666666666667,
    "durationQl": 0.3333333333333333,
    "velocity": 65
  },
  {
    "pitch": 64,
    "startQl": 1.6666666666666667,
    "durationQl": 0.3333333333333333,
    "velocity": 46
  },
  {
    "pitch": 64,
    "startQl": 1.6666666666666667,
    "durationQl": 0.3333333333333333,
    "velocity": 46
  },
  {
    "pitch": 64,
    "startQl": 1.6666666666666667,
    "durationQl": 0.3333333333333333,
    "velocity": 46
  },
  {
    "pitch": 69,
    "startQl": 1.6666666666666667,
    "durationQl": 0.25,
    "velocity": 85
  },
  {
    "pitch": 40,
    "startQl": 1.75,
    "durationQl": 0.25,
    "velocity": 50
  },
  {
    "pitch": 48,
    "startQl": 1.75,
    "durationQl": 1.0,
    "velocity": 85
  },
  {
    "pitch": 48,
    "startQl": 1.75,
    "durationQl": 1.0,
    "velocity": 85
  },
  {
    "pitch": 48,
    "startQl": 1.75,
    "durationQl": 1.0,
    "velocity": 85
  },
  {
    "pitch": 48,
    "startQl": 1.75,
    "durationQl": 1.0,
    "velocity": 85
  },
  {
    "pitch": 52,
    "startQl": 1.75,
    "durationQl": 0.25,
    "velocity": 50
  },
  {
    "pitch": 57,
    "startQl": 1.75,
    "durationQl": 1.0,
    "velocity": 88
  },
  {
    "pitch": 57,
    "startQl": 1.75,
    "durationQl": 1.0,
    "velocity": 85
  },
  {
    "pitch": 57,
    "startQl": 1.75,
    "durationQl": 1.0,
    "velocity": 88
  },
  {
    "pitch": 57,
    "startQl": 1.75,
    "durationQl": 1.0,
    "velocity": 85
  },
  {
    "pitch": 57,
    "startQl": 1.75,
    "durationQl": 1.0,
    "velocity": 85
  },
  {
    "pitch": 57,
    "startQl": 1.75,
    "durationQl": 1.0,
    "velocity": 85
  },
  {
    "pitch": 58,
    "startQl": 1.75,
    "durationQl": 0.25,
    "velocity": 55
  },
  {
    "pitch": 60,
    "startQl": 1.75,
    "durationQl": 1.0,
    "velocity": 85
  },
  {
    "pitch": 60,
    "startQl": 1.75,
    "durationQl": 1.0,
    "velocity": 85
  },
  {
    "pitch": 60,
    "startQl": 1.75,
    "durationQl": 1.0,
    "velocity": 85
  },
  {
    "pitch": 60,
    "startQl": 1.75,
    "durationQl": 1.0,
    "velocity": 85
  },
  {
    "pitch": 62,
    "startQl": 1.75,
    "durationQl": 1.0,
    "velocity": 95
  },
  {
    "pitch": 62,
    "startQl": 1.75,
    "durationQl": 1.0,
    "velocity": 85
  },
  {
    "pitch": 62,
    "startQl": 1.75,
    "durationQl": 1.0,
    "velocity": 85
  },
  {
    "pitch": 62,
    "startQl": 1.75,
    "durationQl": 1.0,
    "velocity": 85
  },
  {
    "pitch": 62,
    "startQl": 1.75,
    "durationQl": 0.3333333333333333,
    "velocity": 40
  },
  {
    "pitch": 65,
    "startQl": 1.75,
    "durationQl": 1.0,
    "velocity": 90
  },
  {
    "pitch": 65,
    "startQl": 1.75,
    "durationQl": 1.0,
    "velocity": 88
  },
  {
    "pitch": 65,
    "startQl": 1.75,
    "durationQl": 1.0,
    "velocity": 88
  },
  {
    "pitch": 67,
    "startQl": 1.75,
    "durationQl": 0.25,
    "velocity": 50
  },
  {
    "pitch": 69,
    "startQl": 1.75,
    "durationQl": 0.25,
    "velocity": 50
  },
  {
    "pitch": 72,
    "startQl": 1.75,
    "durationQl": 0.25,
    "velocity": 65
  },
  {
    "pitch": 33,
    "startQl": 2.0,
    "durationQl": 0.25,
    "velocity": 40
  },
  {
    "pitch": 35,
    "startQl": 2.0,
    "durationQl": 0.3333333333333333,
    "velocity": 58
  },
  {
    "pitch": 45,
    "startQl": 2.0,
    "durationQl": 0.3333333333333333,
    "velocity": 68
  },
  {
    "pitch": 46,
    "startQl": 2.0,
    "durationQl": 0.3333333333333333,
    "velocity": 68
  },
  {
    "pitch": 57,
    "startQl": 2.0,
    "durationQl": 0.3333333333333333,
    "velocity": 70
  },
  {
    "pitch": 58,
    "startQl": 2.0,
    "durationQl": 0.3333333333333333,
    "velocity": 68
  },
  {
    "pitch": 59,
    "startQl": 2.0,
    "durationQl": 0.3333333333333333,
    "velocity": 55
  },
  {
    "pitch": 59,
    "startQl": 2.0,
    "durationQl": 0.25,
    "velocity": 50
  },
  {
    "pitch": 64,
    "startQl": 2.0,
    "durationQl": 0.3333333333333333,
    "velocity": 58
  },
  {
    "pitch": 65,
    "startQl": 2.0,
    "durationQl": 1.0,
    "velocity": 95
  },
  {
    "pitch": 67,
    "startQl": 2.0,
    "durationQl": 0.3333333333333333,
    "velocity": 50
  },
  {
    "pitch": 71,
    "startQl": 2.0,
    "durationQl": 0.3333333333333333,
    "velocity": 30
  },
  {
    "pitch": 73,
    "startQl": 2.0,
    "durationQl": 0.3333333333333333,
    "velocity": 70
  },
  {
    "pitch": 76,
    "startQl": 2.0,
    "durationQl": 0.3333333333333333,
    "velocity": 75
  },
  {
    "pitch": 33,
    "startQl": 2.25,
    "durationQl": 0.25,
    "velocity": 50
  },
  {
    "pitch": 35,
    "startQl": 2.25,
    "durationQl": 0.25,
    "velocity": 50
  },
  {
    "pitch": 36,
    "startQl": 2.25,
    "durationQl": 0.6666666666666666,
    "velocity": 60
  },
  {
    "pitch": 40,
    "startQl": 2.25,
    "durationQl": 0.75,
    "velocity": 42
  },
  {
    "pitch": 45,
    "startQl": 2.25,
    "durationQl": 0.25,
    "velocity": 50
  },
  {
    "pitch": 52,
    "startQl": 2.25,
    "durationQl": 0.75,
    "velocity": 42
  },
  {
    "pitch": 57,
    "startQl": 2.25,
    "durationQl": 0.25,
    "velocity": 55
  },
  {
    "pitch": 58,
    "startQl": 2.25,
    "durationQl": 0.25,
    "velocity": 55
  },
  {
    "pitch": 64,
    "startQl": 2.25,
    "durationQl": 0.25,
    "velocity": 55
  },
  {
    "pitch": 64,
    "startQl": 2.25,
    "durationQl": 0.25,
    "velocity": 50
  },
  {
    "pitch": 64,
    "startQl": 2.25,
    "durationQl": 0.25,
    "velocity": 50
  },
  {
    "pitch": 69,
    "startQl": 2.25,
    "durationQl": 0.25,
    "velocity": 55
  },
  {
    "pitch": 72,
    "startQl": 2.25,
    "durationQl": 0.25,
    "velocity": 35
  },
  {
    "pitch": 76,
    "startQl": 2.25,
    "durationQl": 0.75,
    "velocity": 40
  },
  {
    "pitch": 33,
    "startQl": 2.3333333333333335,
    "durationQl": 0.3333333333333333,
    "velocity": 70
  },
  {
    "pitch": 45,
    "startQl": 2.3333333333333335,
    "durationQl": 0.3333333333333333,
    "velocity": 70
  },
  {
    "pitch": 57,
    "startQl": 2.3333333333333335,
    "durationQl": 0.3333333333333333,
    "velocity": 52
  },
  {
    "pitch": 57,
    "startQl": 2.3333333333333335,
    "durationQl": 0.3333333333333333,
    "velocity": 40
  },
  {
    "pitch": 58,
    "startQl": 2.3333333333333335,
    "durationQl": 0.3333333333333333,
    "velocity": 52
  },
  {
    "pitch": 62,
    "startQl": 2.3333333333333335,
    "durationQl": 0.3333333333333333,
    "velocity": 70
  },
  {
    "pitch": 62,
    "startQl": 2.3333333333333335,
    "durationQl": 0.3333333333333333,
    "velocity": 32
  },
  {
    "pitch": 64,
    "startQl": 2.3333333333333335,
    "durationQl": 0.3333333333333333,
    "velocity": 52
  },
  {
    "pitch": 64,
    "startQl": 2.3333333333333335,
    "durationQl": 0.3333333333333333,
    "velocity": 52
  },
  {
    "pitch": 64,
    "startQl": 2.3333333333333335,
    "durationQl": 0.25,
    "velocity": 65
  },
  {
    "pitch": 67,
    "startQl": 2.3333333333333335,
    "durationQl": 0.3333333333333333,
    "velocity": 55
  },
  {
    "pitch": 67,
    "startQl": 2.3333333333333335,
    "durationQl": 0.3333333333333333,
    "velocity": 55
  },
  {
    "pitch": 67,
    "startQl": 2.3333333333333335,
    "durationQl": 0.3333333333333333,
    "velocity": 32
  },
  {
    "pitch": 74,
    "startQl": 2.3333333333333335,
    "durationQl": 0.3333333333333333,
    "velocity": 70
  },
  {
    "pitch": 76,
    "startQl": 2.3333333333333335,
    "durationQl": 0.3333333333333333,
    "velocity": 80
  },
  {
    "pitch": 35,
    "startQl": 2.5,
    "durationQl": 0.25,
    "velocity": 57
  },
  {
    "pitch": 59,
    "startQl": 2.5,
    "durationQl": 0.25,
    "velocity": 35
  },
  {
    "pitch": 59,
    "startQl": 2.5,
    "durationQl": 0.25,
    "velocity": 35
  },
  {
    "pitch": 64,
    "startQl": 2.5,
    "durationQl": 0.25,
    "velocity": 57
  },
  {
    "pitch": 64,
    "startQl": 2.5,
    "durationQl": 0.25,
    "velocity": 25
  },
  {
    "pitch": 64,
    "startQl": 2.5,
    "durationQl": 0.25,
    "velocity": 25
  },
  {
    "pitch": 64,
    "startQl": 2.5,
    "durationQl": 0.25,
    "velocity": 25
  },
  {
    "pitch": 67,
    "startQl": 2.5,
    "durationQl": 0.25,
    "velocity": 57
  },
  {
    "pitch": 69,
    "startQl": 2.5,
    "durationQl": 0.25,
    "velocity": 20
  },
  {
    "pitch": 69,
    "startQl": 2.5,
    "durationQl": 0.25,
    "velocity": 20
  },
  {
    "pitch": 64,
    "startQl": 2.6666666666666665,
    "durationQl": 0.3333333333333333,
    "velocity": 40
  },
  {
    "pitch": 64,
    "startQl": 2.6666666666666665,
    "durationQl": 0.3333333333333333,
    "velocity": 40
  },
  {
    "pitch": 67,
    "startQl": 2.6666666666666665,
    "durationQl": 0.25,
    "velocity": 45
  },
  {
    "pitch": 76,
    "startQl": 2.6666666666666665,
    "durationQl": 0.3333333333333333,
    "velocity": 28
  },
  {
    "pitch": 76,
    "startQl": 2.6666666666666665,
    "durationQl": 0.3333333333333333,
    "velocity": 28
  },
  {
    "pitch": 31,
    "startQl": 2.75,
    "durationQl": 0.25,
    "velocity": 40
  },
  {
    "pitch": 33,
    "startQl": 2.75,
    "durationQl": 0.25,
    "velocity": 58
  },
  {
    "pitch": 43,
    "startQl": 2.75,
    "durationQl": 0.25,
    "velocity": 40
  },
  {
    "pitch": 48,
    "startQl": 2.75,
    "durationQl": 1.25,
    "velocity": 90
  },
  {
    "pitch": 48,
    "startQl": 2.75,
    "durationQl": 1.25,
    "velocity": 90
  },
  {
    "pitch": 48,
    "startQl": 2.75,
    "durationQl": 1.25,
    "velocity": 85
  },
  {
    "pitch": 48,
    "startQl": 2.75,
    "durationQl": 1.25,
    "velocity": 85
  },
  {
    "pitch": 48,
    "startQl": 2.75,
    "durationQl": 1.25,
    "velocity": 88
  },
  {
    "pitch": 48,
    "startQl": 2.75,
    "durationQl": 0.25,
    "velocity": 59
  },
  {
    "pitch": 50,
    "startQl": 2.75,
    "durationQl": 1.0,
    "velocity": 88
  },
  {
    "pitch": 50,
    "startQl": 2.75,
    "durationQl": 1.0,
    "velocity": 88
  },
  {
    "pitch": 50,
    "startQl": 2.75,
    "durationQl": 1.0,
    "velocity": 88
  },
  {
    "pitch": 50,
    "startQl": 2.75,
    "durationQl": 1.0,
    "velocity": 88
  },
  {
    "pitch": 52,
    "startQl": 2.75,
    "durationQl": 0.25,
    "velocity": 59
  },
  {
    "pitch": 53,
    "startQl": 2.75,
    "durationQl": 1.0,
    "velocity": 88
  },
  {
    "pitch": 53,
    "startQl": 2.75,
    "durationQl": 1.0,
    "velocity": 90
  },
  {
    "pitch": 53,
    "startQl": 2.75,
    "durationQl": 1.0,
    "velocity": 88
  },
  {
    "pitch": 53,
    "startQl": 2.75,
    "durationQl": 1.0,
    "velocity": 90
  },
  {
    "pitch": 53,
    "startQl": 2.75,
    "durationQl": 1.0,
    "velocity": 92
  },
  {
    "pitch": 53,
    "startQl": 2.75,
    "durationQl": 1.0,
    "velocity": 92
  },
  {
    "pitch": 57,
    "startQl": 2.75,
    "durationQl": 1.25,
    "velocity": 86
  },
  {
    "pitch": 57,
    "startQl": 2.75,
    "durationQl": 0.25,
    "velocity": 65
  },
  {
    "pitch": 57,
    "startQl": 2.75,
    "durationQl": 0.25,
    "velocity": 59
  },
  {
    "pitch": 60,
    "startQl": 2.75,
    "durationQl": 1.0,
    "velocity": 90
  },
  {
    "pitch": 60,
    "startQl": 2.75,
    "durationQl": 1.25,
    "velocity": 90
  },
  {
    "pitch": 60,
    "startQl": 2.75,
    "durationQl": 1.0,
    "velocity": 85
  },
  {
    "pitch": 60,
    "startQl": 2.75,
    "durationQl": 1.25,
    "velocity": 85
  },
  {
    "pitch": 60,
    "startQl": 2.75,
    "durationQl": 1.25,
    "velocity": 86
  },
  {
    "pitch": 60,
    "startQl": 2.75,
    "durationQl": 1.0,
    "velocity": 88
  },
  {
    "pitch": 60,
    "startQl": 2.75,
    "durationQl": 1.25,
    "velocity": 85
  },
  {
    "pitch": 60,
    "startQl": 2.75,
    "durationQl": 1.0,
    "velocity": 88
  },
  {
    "pitch": 60,
    "startQl": 2.75,
    "durationQl": 1.25,
    "velocity": 85
  },
  {
    "pitch": 62,
    "startQl": 2.75,
    "durationQl": 1.0,
    "velocity": 88
  },
  {
    "pitch": 62,
    "startQl": 2.75,
    "durationQl": 1.0,
    "velocity": 88
  },
  {
    "pitch": 62,
    "startQl": 2.75,
    "durationQl": 1.0,
    "velocity": 88
  },
  {
    "pitch": 62,
    "startQl": 2.75,
    "durationQl": 1.0,
    "velocity": 88
  },
  {
    "pitch": 62,
    "startQl": 2.75,
    "durationQl": 0.25,
    "velocity": 59
  },
  {
    "pitch": 64,
    "startQl": 2.75,
    "durationQl": 0.25,
    "velocity": 15
  },
  {
    "pitch": 64,
    "startQl": 2.75,
    "durationQl": 0.25,
    "velocity": 15
  },
  {
    "pitch": 64,
    "startQl": 2.75,
    "durationQl": 0.25,
    "velocity": 60
  },
  {
    "pitch": 64,
    "startQl": 2.75,
    "durationQl": 0.25,
    "velocity": 58
  },
  {
    "pitch": 64,
    "startQl": 2.75,
    "durationQl": 0.25,
    "velocity": 65
  },
  {
    "pitch": 65,
    "startQl": 2.75,
    "durationQl": 1.25,
    "velocity": 88
  },
  {
    "pitch": 65,
    "startQl": 2.75,
    "durationQl": 1.25,
    "velocity": 86
  },
  {
    "pitch": 65,
    "startQl": 2.75,
    "durationQl": 1.0,
    "velocity": 92
  },
  {
    "pitch": 65,
    "startQl": 2.75,
    "durationQl": 1.0,
    "velocity": 92
  },
  {
    "pitch": 66,
    "startQl": 2.75,
    "durationQl": 0.25,
    "velocity": 65
  },
  {
    "pitch": 69,
    "startQl": 2.75,
    "durationQl": 0.25,
    "velocity": 10
  },
  {
    "pitch": 74,
    "startQl": 2.75,
    "durationQl": 0.25,
    "velocity": 59
  },
  {
    "pitch": 74,
    "startQl": 2.75,
    "durationQl": 0.25,
    "velocity": 59
  },
  {
    "pitch": 77,
    "startQl": 2.75,
    "durationQl": 1.25,
    "velocity": 86
  },
  {
    "pitch": 31,
    "startQl": 3.0,
    "durationQl": 0.25,
    "velocity": 44
  },
  {
    "pitch": 33,
    "startQl": 3.0,
    "durationQl": 0.25,
    "velocity": 58
  },
  {
    "pitch": 33,
    "startQl": 3.0,
    "durationQl": 0.25,
    "velocity": 55
  },
  {
    "pitch": 35,
    "startQl": 3.0,
    "durationQl": 0.6666666666666666,
    "velocity": 50
  },
  {
    "pitch": 40,
    "startQl": 3.0,
    "durationQl": 0.25,
    "velocity": 57
  },
  {
    "pitch": 45,
    "startQl": 3.0,
    "durationQl": 0.25,
    "velocity": 55
  },
  {
    "pitch": 57,
    "startQl": 3.0,
    "durationQl": 0.25,
    "velocity": 45
  },
  {
    "pitch": 57,
    "startQl": 3.0,
    "durationQl": 0.25,
    "velocity": 57
  },
  {
    "pitch": 59,
    "startQl": 3.0,
    "durationQl": 0.25,
    "velocity": 45
  },
  {
    "pitch": 62,
    "startQl": 3.0,
    "durationQl": 0.25,
    "velocity": 55
  },
  {
    "pitch": 64,
    "startQl": 3.0,
    "durationQl": 0.25,
    "velocity": 45
  },
  {
    "pitch": 64,
    "startQl": 3.0,
    "durationQl": 0.25,
    "velocity": 45
  },
  {
    "pitch": 64,
    "startQl": 3.0,
    "durationQl": 0.25,
    "velocity": 44
  },
  {
    "pitch": 64,
    "startQl": 3.0,
    "durationQl": 0.25,
    "velocity": 44
  },
  {
    "pitch": 64,
    "startQl": 3.0,
    "durationQl": 0.3333333333333333,
    "velocity": 20
  },
  {
    "pitch": 64,
    "startQl": 3.0,
    "durationQl": 0.25,
    "velocity": 50
  },
  {
    "pitch": 64,
    "startQl": 3.0,
    "durationQl": 0.25,
    "velocity": 60
  },
  {
    "pitch": 67,
    "startQl": 3.0,
    "durationQl": 0.25,
    "velocity": 44
  },
  {
    "pitch": 67,
    "startQl": 3.0,
    "durationQl": 0.3333333333333333,
    "velocity": 40
  },
  {
    "pitch": 67,
    "startQl": 3.0,
    "durationQl": 0.25,
    "velocity": 57
  },
  {
    "pitch": 69,
    "startQl": 3.0,
    "durationQl": 0.25,
    "velocity": 58
  },
  {
    "pitch": 74,
    "startQl": 3.0,
    "durationQl": 0.25,
    "velocity": 70
  },
  {
    "pitch": 79,
    "startQl": 3.0,
    "durationQl": 0.3333333333333333,
    "velocity": 70
  },
  {
    "pitch": 45,
    "startQl": 3.25,
    "durationQl": 0.25,
    "velocity": 52
  },
  {
    "pitch": 52,
    "startQl": 3.25,
    "durationQl": 0.25,
    "velocity": 10
  },
  {
    "pitch": 64,
    "startQl": 3.25,
    "durationQl": 0.25,
    "velocity": 15
  },
  {
    "pitch": 70,
    "startQl": 3.25,
    "durationQl": 0.25,
    "velocity": 52
  },
  {
    "pitch": 70,
    "startQl": 3.25,
    "durationQl": 0.25,
    "velocity": 52
  },
  {
    "pitch": 33,
    "startQl": 3.3333333333333335,
    "durationQl": 0.3333333333333333,
    "velocity": 60
  },
  {
    "pitch": 33,
    "startQl": 3.3333333333333335,
    "durationQl": 0.25,
    "velocity": 55
  },
  {
    "pitch": 36,
    "startQl": 3.3333333333333335,
    "durationQl": 0.25,
    "velocity": 46
  },
  {
    "pitch": 45,
    "startQl": 3.3333333333333335,
    "durationQl": 0.25,
    "velocity": 55
  },
  {
    "pitch": 62,
    "startQl": 3.3333333333333335,
    "durationQl": 0.25,
    "velocity": 55
  },
  {
    "pitch": 64,
    "startQl": 3.3333333333333335,
    "durationQl": 0.25,
    "velocity": 46
  },
  {
    "pitch": 64,
    "startQl": 3.3333333333333335,
    "durationQl": 0.25,
    "velocity": 46
  },
  {
    "pitch": 67,
    "startQl": 3.3333333333333335,
    "durationQl": 0.3333333333333333,
    "velocity": 60
  },
  {
    "pitch": 79,
    "startQl": 3.3333333333333335,
    "durationQl": 0.25,
    "velocity": 46
  },
  {
    "pitch": 40,
    "startQl": 3.5,
    "durationQl": 0.25,
    "velocity": 22
  },
  {
    "pitch": 52,
    "startQl": 3.5,
    "durationQl": 0.25,
    "velocity": 22
  },
  {
    "pitch": 57,
    "startQl": 3.5,
    "durationQl": 0.25,
    "velocity": 65
  },
  {
    "pitch": 57,
    "startQl": 3.5,
    "durationQl": 0.25,
    "velocity": 22
  },
  {
    "pitch": 58,
    "startQl": 3.5,
    "durationQl": 0.3333333333333333,
    "velocity": 55
  },
  {
    "pitch": 64,
    "startQl": 3.5,
    "durationQl": 0.25,
    "velocity": 35
  },
  {
    "pitch": 64,
    "startQl": 3.5,
    "durationQl": 0.25,
    "velocity": 35
  },
  {
    "pitch": 64,
    "startQl": 3.5,
    "durationQl": 0.25,
    "velocity": 35
  },
  {
    "pitch": 64,
    "startQl": 3.5,
    "durationQl": 0.25,
    "velocity": 38
  },
  {
    "pitch": 64,
    "startQl": 3.5,
    "durationQl": 0.25,
    "velocity": 38
  },
  {
    "pitch": 64,
    "startQl": 3.5,
    "durationQl": 0.3333333333333333,
    "velocity": 70
  },
  {
    "pitch": 64,
    "startQl": 3.5,
    "durationQl": 0.25,
    "velocity": 62
  },
  {
    "pitch": 64,
    "startQl": 3.5,
    "durationQl": 0.25,
    "velocity": 62
  },
  {
    "pitch": 69,
    "startQl": 3.5,
    "durationQl": 0.25,
    "velocity": 35
  },
  {
    "pitch": 69,
    "startQl": 3.5,
    "durationQl": 0.25,
    "velocity": 35
  },
  {
    "pitch": 69,
    "startQl": 3.5,
    "durationQl": 0.25,
    "velocity": 35
  },
  {
    "pitch": 70,
    "startQl": 3.5,
    "durationQl": 0.3333333333333333,
    "velocity": 55
  },
  {
    "pitch": 74,
    "startQl": 3.5,
    "durationQl": 0.25,
    "velocity": 70
  },
  {
    "pitch": 76,
    "startQl": 3.5,
    "durationQl": 0.25,
    "velocity": 38
  },
  {
    "pitch": 40,
    "startQl": 3.6666666666666665,
    "durationQl": 0.3333333333333333,
    "velocity": 45
  },
  {
    "pitch": 35,
    "startQl": 3.75,
    "durationQl": 0.25,
    "velocity": 50
  },
  {
    "pitch": 40,
    "startQl": 3.75,
    "durationQl": 0.25,
    "velocity": 45
  },
  {
    "pitch": 40,
    "startQl": 3.75,
    "durationQl": 0.25,
    "velocity": 55
  },
  {
    "pitch": 45,
    "startQl": 3.75,
    "durationQl": 0.25,
    "velocity": 63
  },
  {
    "pitch": 50,
    "startQl": 3.75,
    "durationQl": 0.25,
    "velocity": 63
  },
  {
    "pitch": 52,
    "startQl": 3.75,
    "durationQl": 0.25,
    "velocity": 92
  },
  {
    "pitch": 52,
    "startQl": 3.75,
    "durationQl": 0.25,
    "velocity": 92
  },
  {
    "pitch": 52,
    "startQl": 3.75,
    "durationQl": 0.25,
    "velocity": 92
  },
  {
    "pitch": 52,
    "startQl": 3.75,
    "durationQl": 0.25,
    "velocity": 92
  },
  {
    "pitch": 52,
    "startQl": 3.75,
    "durationQl": 0.25,
    "velocity": 55
  },
  {
    "pitch": 52,
    "startQl": 3.75,
    "durationQl": 0.25,
    "velocity": 55
  },
  {
    "pitch": 52,
    "startQl": 3.75,
    "durationQl": 0.25,
    "velocity": 63
  },
  {
    "pitch": 53,
    "startQl": 3.75,
    "durationQl": 0.25,
    "velocity": 87
  },
  {
    "pitch": 57,
    "startQl": 3.75,
    "durationQl": 0.25,
    "velocity": 85
  },
  {
    "pitch": 57,
    "startQl": 3.75,
    "durationQl": 0.25,
    "velocity": 85
  },
  {
    "pitch": 57,
    "startQl": 3.75,
    "durationQl": 0.25,
    "velocity": 85
  },
  {
    "pitch": 57,
    "startQl": 3.75,
    "durationQl": 0.25,
    "velocity": 85
  },
  {
    "pitch": 57,
    "startQl": 3.75,
    "durationQl": 0.25,
    "velocity": 85
  },
  {
    "pitch": 57,
    "startQl": 3.75,
    "durationQl": 0.25,
    "velocity": 87
  },
  {
    "pitch": 59,
    "startQl": 3.75,
    "durationQl": 0.25,
    "velocity": 50
  },
  {
    "pitch": 60,
    "startQl": 3.75,
    "durationQl": 0.25,
    "velocity": 90
  },
  {
    "pitch": 60,
    "startQl": 3.75,
    "durationQl": 0.25,
    "velocity": 85
  },
  {
    "pitch": 60,
    "startQl": 3.75,
    "durationQl": 0.25,
    "velocity": 85
  },
  {
    "pitch": 60,
    "startQl": 3.75,
    "durationQl": 0.25,
    "velocity": 85
  },
  {
    "pitch": 60,
    "startQl": 3.75,
    "durationQl": 0.25,
    "velocity": 87
  },
  {
    "pitch": 64,
    "startQl": 3.75,
    "durationQl": 0.25,
    "velocity": 92
  },
  {
    "pitch": 64,
    "startQl": 3.75,
    "durationQl": 0.25,
    "velocity": 92
  },
  {
    "pitch": 64,
    "startQl": 3.75,
    "durationQl": 0.25,
    "velocity": 92
  },
  {
    "pitch": 64,
    "startQl": 3.75,
    "durationQl": 0.25,
    "velocity": 92
  },
  {
    "pitch": 64,
    "startQl": 3.75,
    "durationQl": 0.25,
    "velocity": 32
  },
  {
    "pitch": 64,
    "startQl": 3.75,
    "durationQl": 0.25,
    "velocity": 32
  },
  {
    "pitch": 64,
    "startQl": 3.75,
    "durationQl": 0.25,
    "velocity": 32
  },
  {
    "pitch": 64,
    "startQl": 3.75,
    "durationQl": 0.25,
    "velocity": 25
  },
  {
    "pitch": 64,
    "startQl": 3.75,
    "durationQl": 0.25,
    "velocity": 18
  },
  {
    "pitch": 64,
    "startQl": 3.75,
    "durationQl": 0.25,
    "velocity": 45
  },
  {
    "pitch": 64,
    "startQl": 3.75,
    "durationQl": 0.25,
    "velocity": 55
  },
  {
    "pitch": 67,
    "startQl": 3.75,
    "durationQl": 0.25,
    "velocity": 52
  },
  {
    "pitch": 67,
    "startQl": 3.75,
    "durationQl": 0.25,
    "velocity": 52
  },
  {
    "pitch": 67,
    "startQl": 3.75,
    "durationQl": 0.25,
    "velocity": 50
  },
  {
    "pitch": 67,
    "startQl": 3.75,
    "durationQl": 0.25,
    "velocity": 50
  },
  {
    "pitch": 76,
    "startQl": 3.75,
    "durationQl": 0.25,
    "velocity": 18
  }
]